<?xml version="1.0" encoding="UTF-8" standalone="no"?>
<!-- Created with Inkscape (http://www.inkscape.org/) -->

<svg
   xmlns:osb="http://www.openswatchbook.org/uri/2009/osb"
   xmlns:dc="http://purl.org/dc/elements/1.1/"
   xmlns:cc="http://creativecommons.org/ns#"
   xmlns:rdf="http://www.w3.org/1999/02/22-rdf-syntax-ns#"
   xmlns:svg="http://www.w3.org/2000/svg"
   xmlns="http://www.w3.org/2000/svg"
   xmlns:xlink="http://www.w3.org/1999/xlink"
   xmlns:sodipodi="http://sodipodi.sourceforge.net/DTD/sodipodi-0.dtd"
   xmlns:inkscape="http://www.inkscape.org/namespaces/inkscape"
   width="1173.7076"
   height="987.28101"
   id="svg2"
   version="1.1"
   inkscape:version="0.91 r13725"
   sodipodi:docname="osd_logo_little.svg"
   inkscape:export-filename="/Users/lucacorsato/Documents/osd/website/osd2/assets/img/logos/osd_logo_little.png"
   inkscape:export-xdpi="320"
   inkscape:export-ydpi="320">
  <defs
     id="defs4">
    <linearGradient
       id="linearGradient4444"
       osb:paint="solid">
      <stop
         style="stop-color:#002fa7;stop-opacity:1;"
         offset="0"
         id="stop4446" />
    </linearGradient>
    <linearGradient
       inkscape:collect="always"
       xlink:href="#linearGradient4444"
       id="linearGradient4448"
       x1="1481.6096"
       y1="393.59521"
       x2="3401.6096"
       y2="393.59521"
       gradientUnits="userSpaceOnUse" />
    <linearGradient
       inkscape:collect="always"
       xlink:href="#linearGradient4444"
       id="linearGradient4452"
       gradientUnits="userSpaceOnUse"
       x1="1481.6096"
       y1="393.59521"
       x2="3401.6096"
       y2="393.59521"
       gradientTransform="translate(-1761.6116,2283.4524)" />
  </defs>
  <sodipodi:namedview
     id="base"
     pagecolor="#ffffff"
     bordercolor="#666666"
     borderopacity="1.0"
     inkscape:pageopacity="0.0"
     inkscape:pageshadow="2"
     inkscape:zoom="0.30594232"
     inkscape:cx="1260.4562"
     inkscape:cy="650.7931"
     inkscape:document-units="px"
     inkscape:current-layer="layer11"
     showgrid="false"
     inkscape:window-width="1440"
     inkscape:window-height="851"
     inkscape:window-x="0"
     inkscape:window-y="0"
     inkscape:window-maximized="0"
     fit-margin-top="0"
     fit-margin-left="0"
     fit-margin-right="0"
     fit-margin-bottom="0" />
  <metadata
     id="metadata7">
    <rdf:RDF>
      <cc:Work
         rdf:about="">
        <dc:format>image/svg+xml</dc:format>
        <dc:type
           rdf:resource="http://purl.org/dc/dcmitype/StillImage" />
        <dc:title></dc:title>
      </cc:Work>
    </rdf:RDF>
  </metadata>
  <g
     inkscape:groupmode="layer"
     id="layer1"
     inkscape:label="sfondo"
     transform="translate(86.8548,738.95853)"
     style="display:inline" />
  <g
     inkscape:groupmode="layer"
     id="layer11"
     inkscape:label="logo"
     style="display:inline"
     transform="translate(86.8548,-275.90364)">
    <text
       xml:space="preserve"
       style="font-style:normal;font-variant:normal;font-weight:normal;font-stretch:normal;font-size:180px;line-height:125%;font-family:Griffo;-inkscape-font-specification:Griffo;text-align:start;letter-spacing:0px;word-spacing:0px;writing-mode:lr-tb;text-anchor:start;fill:#000000;fill-opacity:1;stroke:none;stroke-width:1px;stroke-linecap:butt;stroke-linejoin:miter;stroke-opacity:1"
       x="-368.75"
       y="910.95593"
       id="text4157"
       sodipodi:linespacing="125%"><tspan
         sodipodi:role="line"
         id="tspan4159"
         x="-368.75"
         y="910.95593"
         style="font-style:normal;font-variant:normal;font-weight:bold;font-stretch:normal;font-family:'Open Sans';-inkscape-font-specification:'Open Sans Bold'" /></text>
    <g
       id="g4617">
      <rect
         ry="0"
         y="952.36218"
         x="-9.4887298e-08"
         height="100"
         width="100"
         id="rect2995"
         style="display:inline;opacity:0.5;fill:none;fill-opacity:1;fill-rule:evenodd;stroke:none" />
      <g
         id="text4208"
         style="font-style:normal;font-variant:normal;font-weight:normal;font-stretch:normal;font-size:60px;line-height:125%;font-family:'HelveticaNeueLT Std Med';-inkscape-font-specification:'HelveticaNeueLT Std Med, Normal';text-align:start;letter-spacing:0px;word-spacing:0px;writing-mode:tb-rl;text-anchor:start;fill:#ea5480;fill-opacity:1;stroke:none;stroke-width:1px;stroke-linecap:butt;stroke-linejoin:miter;stroke-opacity:1">
        <path
           id="path4564"
           style="font-style:normal;font-variant:normal;font-weight:bold;font-stretch:normal;font-size:60px;font-family:'Open Sans';-inkscape-font-specification:'Open Sans Bold';letter-spacing:-20px;writing-mode:tb-rl;fill:#ea5480;fill-opacity:1"
           d="m 35.05201,864.48785 q -5.771485,0 -9.052735,-4.18945 l -0.46875,0 q 0.46875,4.10156 0.46875,4.74609 l 0,13.27149 -8.935547,0 0,-47.16797 7.265625,0 1.259766,4.24805 0.410156,0 q 3.134766,-4.86328 9.28711,-4.86328 5.800781,0 9.082031,4.48242 3.28125,4.48242 3.28125,12.45117 0,5.24414 -1.552735,9.11133 -1.523437,3.86719 -4.365234,5.88867 -2.841797,2.02148 -6.679687,2.02148 z m -2.636719,-26.80664 q -3.310547,0 -4.833985,2.05078 -1.523437,2.02149 -1.582031,6.70899 l 0,0.9668 q 0,5.27343 1.552735,7.55859 1.582031,2.28516 4.980468,2.28516 6.00586,0 6.00586,-9.90235 0,-4.83398 -1.494141,-7.23633 -1.464844,-2.43164 -4.628906,-2.43164 z" />
        <path
           id="path4566"
           style="font-style:normal;font-variant:normal;font-weight:bold;font-stretch:normal;font-size:60px;font-family:'Open Sans';-inkscape-font-specification:'Open Sans Bold';letter-spacing:-20px;writing-mode:tb-rl;fill:#ea5480;fill-opacity:1"
           d="m 31.85865,898.59918 q -2.841797,0 -4.453125,1.81641 -1.611328,1.78711 -1.845703,5.09765 l 12.539063,0 q -0.05859,-3.31054 -1.728516,-5.09765 -1.669922,-1.81641 -4.511719,-1.81641 z m 1.259766,27.59766 q -7.910156,0 -12.363281,-4.36524 -4.453125,-4.36523 -4.453125,-12.36328 0,-8.23242 4.101562,-12.71484 4.130859,-4.51172 11.396484,-4.51172 6.94336,0 10.810547,3.95508 3.867188,3.95508 3.867188,10.92773 l 0,4.33594 -21.123047,0 q 0.146484,3.80859 2.255859,5.94727 2.109375,2.13867 5.917969,2.13867 2.958984,0 5.595703,-0.61524 2.636719,-0.61523 5.507813,-1.96289 l 0,6.91407 q -2.34375,1.17187 -5.009766,1.72851 -2.666016,0.58594 -6.503906,0.58594 z" />
        <path
           id="path4568"
           style="font-style:normal;font-variant:normal;font-weight:bold;font-stretch:normal;font-size:60px;font-family:'Open Sans';-inkscape-font-specification:'Open Sans Bold';letter-spacing:-20px;writing-mode:tb-rl;fill:#ea5480;fill-opacity:1"
           d="m 46.536385,987.31989 -8.935547,0 0,-19.13086 q 0,-3.54493 -1.259766,-5.30274 -1.259766,-1.78711 -4.013672,-1.78711 -3.75,0 -5.419922,2.51953 -1.669922,2.49024 -1.669922,8.29102 l 0,15.41016 -8.935546,0 0,-32.75391 6.826171,0 1.201172,4.18945 0.498047,0 q 1.494141,-2.37304 4.101563,-3.57422 2.636718,-1.23047 5.976562,-1.23047 5.712891,0 8.671875,3.10547 2.958985,3.07618 2.958985,8.90625 l 0,21.35743 z" />
      </g>
      <path
         inkscape:export-ydpi="300"
         inkscape:export-xdpi="300"
         inkscape:export-filename="/Users/lucacorsato/Documents/o{s}d/o{s}d_semplice.png"
         d="m -18.845495,664.5299 c -1.6e-4,24.4861 3.93557,42.99625 11.807795,55.5331 8.017845,12.53505 20.99279,18.8043 38.92437,18.8043 17.78568,0 30.5422,-6.1951 38.26904,-18.5827 7.87238,-12.5384 11.80869,-31.12195 11.80877,-55.7547 -8e-5,-24.4844 -3.93639,-42.84625 -11.80877,-55.08805 -7.87296,-12.2415 -20.77477,-18.3642 -38.70584,-18.3642 -17.78611,0 -30.61494,6.1227 -38.48757,18.3642 -7.872225,12.0943 -11.807955,30.45615 -11.807795,55.08805 m 169.036735,0 c -3.2e-4,40.26535 -10.49639,71.7557 -31.48928,94.4701 -20.99386,22.71525 -50.22221,34.0703 -87.68956,34.0703 -23.47069,0 -44.17289,-5.16 -62.104135,-15.4851 -17.931476,-10.4743 -31.707467,-25.44275 -41.330927,-44.913 -9.621317,-19.4685 -14.432138,-42.18285 -14.432138,-68.1423 0,-40.41125 10.422844,-71.8281 31.270509,-94.24835 20.847746,-22.4189 50.150876,-33.62885 87.908081,-33.62885 23.47218,0 44.17233,5.16185 62.10579,15.48705 17.93107,10.32535 31.70731,25.1475 41.32945,44.4706 9.62107,19.3216 14.43189,41.9609 14.43221,67.91955"
         style="font-style:normal;font-variant:normal;font-weight:bold;font-stretch:normal;font-size:28px;line-height:125%;font-family:'Open Sans';-inkscape-font-specification:'Open Sans Bold';text-align:start;letter-spacing:0px;word-spacing:0px;writing-mode:lr-tb;text-anchor:start;display:inline;fill:#ea5480;fill-opacity:1;stroke:none"
         id="path4292"
         inkscape:connector-curvature="0" />
      <path
         inkscape:export-ydpi="300"
         inkscape:export-xdpi="300"
         inkscape:export-filename="/Users/lucacorsato/Documents/o{s}d/o{s}d_semplice.png"
         d="m 358.36705,1039.862 c -36.73694,0 -65.01959,-11.3584 -84.84498,-34.0724 -19.53603,-22.71463 -29.30326,-54.71864 -29.30309,-96.01634 l 0,-130.53041 c -1.7e-4,-34.51241 -7.72674,-60.32572 -23.17858,-77.43479 -15.16256,-17.40334 -38.77875,-26.69495 -70.85211,-27.87496 l 0,-19.91079 c 62.68784,-1.1825 94.03052,-35.98823 94.03069,-104.4246 l 0,-130.08919 c -1.7e-4,-41.59209 9.47565,-73.59621 28.42719,-96.01635 18.95279,-22.41812 47.52504,-33.62821 85.72088,-33.62821 l 59.04315,0 0,20.79753 -27.11706,0 c -26.53299,0 -45.48405,8.1122 -56.85506,24.33494 -11.07902,15.93024 -16.61865,39.52783 -16.61849,70.79633 l 0,146.01622 c -1.6e-4,28.02489 -7.58144,52.21352 -22.74309,72.56762 -15.16083,20.05828 -35.57111,32.88909 -61.22919,38.49574 l 0,1.32661 c 25.94966,6.19336 46.35978,19.31998 61.22919,39.37992 15.16165,19.76247 22.74293,43.95152 22.74309,72.56644 l 0,147.78626 c -1.6e-4,31.26802 5.53947,54.86638 16.61849,70.79746 11.37101,16.22127 30.32207,24.33377 56.85506,24.33377 l 27.11706,0 0,20.7975 -59.04315,0"
         style="font-style:normal;font-variant:normal;font-weight:normal;font-stretch:normal;font-size:56px;line-height:125%;font-family:'Liberation Serif';-inkscape-font-specification:'Liberation Serif';text-align:start;letter-spacing:0px;word-spacing:0px;writing-mode:lr-tb;text-anchor:start;display:inline;fill:#ea5480;fill-opacity:1;stroke:none"
         id="path4298"
         inkscape:connector-curvature="0" />
      <g
         id="text4212"
         style="font-style:normal;font-variant:normal;font-weight:bold;font-stretch:normal;font-size:60px;line-height:125%;font-family:'Open Sans';-inkscape-font-specification:'Open Sans Bold';text-align:start;letter-spacing:0px;word-spacing:0px;writing-mode:lr-tb;text-anchor:start;fill:#002fa7;fill-opacity:1;stroke:none;stroke-width:1px;stroke-linecap:butt;stroke-linejoin:miter;stroke-opacity:1">
        <path
           id="path4611"
           style="font-size:60px;letter-spacing:-20px;writing-mode:tb-rl"
           d="m 981.45026,863.96051 -1.72852,-4.45312 -0.23437,0 q -2.25586,2.84179 -4.65821,3.95507 -2.37304,1.08399 -6.21093,1.08399 -4.7168,0 -7.44141,-2.69531 -2.69531,-2.69532 -2.69531,-7.67579 0,-5.21484 3.63281,-7.67578 3.66211,-2.49023 11.01562,-2.7539 l 5.6836,-0.17578 0,-1.43555 q 0,-4.98047 -5.09766,-4.98047 -3.92578,0 -9.22851,2.37305 l -2.95899,-6.03516 q 5.6543,-2.95898 12.53906,-2.95898 6.5918,0 10.10743,2.87109 3.51562,2.87109 3.51562,8.73047 l 0,21.82617 -6.24023,0 z m -2.63672,-15.17578 -3.45703,0.11719 q -3.89649,0.11718 -5.80078,1.40625 -1.9043,1.28906 -1.9043,3.92578 0,3.77929 4.33594,3.77929 3.10546,0 4.95117,-1.7871 1.875,-1.78711 1.875,-4.7461 l 0,-2.69531 z" />
        <path
           id="path4613"
           style="font-size:60px;letter-spacing:-20px;writing-mode:tb-rl"
           d="m 979.48737,919.13629 q 2.34375,0 5.625,-1.02539 l 0,6.65039 q -3.33985,1.49414 -8.20313,1.49414 -5.36133,0 -7.82226,-2.69531 -2.43165,-2.72461 -2.43165,-8.14453 l 0,-15.79102 -4.27734,0 0,-3.77929 4.92188,-2.98829 2.57812,-6.91406 5.71289,0 0,6.97266 9.16992,0 0,6.70898 -9.16992,0 0,15.79102 q 0,1.9043 1.05469,2.8125 1.08398,0.9082 2.8418,0.9082 z" />
        <path
           id="path4615"
           style="font-size:60px;letter-spacing:-20px;writing-mode:tb-rl"
           d="m 981.45026,987.37848 -1.72852,-4.45313 -0.23437,0 q -2.25586,2.8418 -4.65821,3.95508 -2.37304,1.08399 -6.21093,1.08399 -4.7168,0 -7.44141,-2.69532 -2.69531,-2.69531 -2.69531,-7.67578 0,-5.21484 3.63281,-7.67578 3.66211,-2.49023 11.01562,-2.7539 l 5.6836,-0.17579 0,-1.43554 q 0,-4.98047 -5.09766,-4.98047 -3.92578,0 -9.22851,2.37305 l -2.95899,-6.03516 q 5.6543,-2.95899 12.53906,-2.95899 6.5918,0 10.10743,2.8711 3.51562,2.87109 3.51562,8.73047 l 0,21.82617 -6.24023,0 z m -2.63672,-15.17578 -3.45703,0.11719 q -3.89649,0.11718 -5.80078,1.40625 -1.9043,1.28906 -1.9043,3.92578 0,3.77929 4.33594,3.77929 3.10546,0 4.95117,-1.78711 1.875,-1.78711 1.875,-4.74609 l 0,-2.69531 z" />
      </g>
      <path
         inkscape:export-ydpi="300"
         inkscape:export-xdpi="300"
         inkscape:export-filename="/Users/lucacorsato/Documents/o{s}d/o{s}d_semplice.png"
         inkscape:connector-curvature="0"
         id="path4296"
         style="font-style:normal;font-variant:normal;font-weight:bold;font-stretch:normal;font-size:28px;line-height:125%;font-family:'Open Sans';-inkscape-font-specification:'Open Sans Bold';text-align:start;letter-spacing:0px;word-spacing:0px;writing-mode:lr-tb;text-anchor:start;display:inline;fill:#002fa7;fill-opacity:1;stroke:none"
         d="m 950.61865,793.0712 c -28.71995,0 -51.3159,-11.2833 -67.7898,-33.8491 -16.32805,-22.5657 -24.4911,-53.83395 -24.4911,-93.8047 0,-40.5599 8.30845,-72.1233 24.9284,-94.6882 16.76495,-22.71485 39.79825,-34.0721 69.10145,-34.0721 30.7598,0 54.2319,12.09475 70.4127,36.2829 l 2.1875,0 c -3.3532,-18.43585 -5.0292,-34.8824 -5.0289,-49.33505 l 0,-79.20455 66.9139,0 0,344.24745 -51.1703,0 -12.9022,-32.079 -2.8414,0 c -15.1625,24.33495 -38.26845,36.50235 -69.32025,36.50235 m 23.39775,-53.7598 c 17.0564,0 29.521,-5.01505 37.3937,-15.0425 8.017,-10.0308 12.3904,-27.0674 13.1208,-51.1082 l 0,-7.3008 c -2e-4,-26.5474 -4.0821,-45.5732 -12.2466,-57.0798 -8.018,-11.50265 -21.13845,-17.2568 -39.3607,-17.2568 -14.8711,0 -26.46,6.41665 -34.76955,19.2493 -8.16405,12.68405 -12.246,31.19405 -12.24595,55.529 -1.5e-4,24.3374 4.15505,42.62565 12.46435,54.86815 8.30975,12.09495 20.19025,18.14165 35.64375,18.14165" />
      <path
         inkscape:export-ydpi="300"
         inkscape:export-xdpi="300"
         inkscape:export-filename="/Users/lucacorsato/Documents/o{s}d/o{s}d_semplice.png"
         d="m 591.1178,1039.862 0,-20.7992 27.11506,0 c 26.53245,0 45.33789,-8.1125 56.4183,-24.33377 11.37018,-15.93108 17.0569,-39.52944 17.05707,-70.79746 l 0,-147.78626 c -1.7e-4,-28.61409 7.43338,-52.80231 22.30452,-72.56644 14.86912,-20.05994 35.42467,-33.18656 61.66598,-39.37992 l 0,-1.32661 c -25.65799,-5.60499 -46.06853,-18.58495 -61.22878,-38.93739 -15.16251,-20.35499 -22.74189,-44.39488 -22.74172,-72.12567 l 0,-146.01617 c -1.7e-4,-31.26849 -5.68689,-54.86608 -17.05707,-70.79639 -11.08041,-16.22268 -29.88585,-24.33494 -56.4183,-24.33494 l -27.11506,0 0,-20.79753 59.47863,0 c 37.90369,0.002 66.33259,11.21188 85.28393,33.62994 18.95069,22.41841 28.42618,54.42414 28.42653,96.01463 l 0,130.08924 c -3.5e-4,68.43602 31.34483,103.24347 94.03086,104.42425 l 0,19.91079 c -31.48905,1.18167 -55.1067,10.3233 -70.84981,27.43325 -15.45417,17.10996 -23.1814,43.06822 -23.18105,77.8765 l 0,130.53041 c -3.5e-4,41.00331 -9.91292,72.86131 -29.73836,95.57414 -19.53573,23.009 -47.52536,34.5146 -83.9721,34.5146 l -59.47863,0"
         style="font-style:normal;font-variant:normal;font-weight:normal;font-stretch:normal;font-size:56px;line-height:125%;font-family:'Liberation Serif';-inkscape-font-specification:'Liberation Serif';text-align:start;letter-spacing:0px;word-spacing:0px;writing-mode:lr-tb;text-anchor:start;display:inline;fill:#002fa7;fill-opacity:1;stroke:none"
         id="path4300"
         inkscape:connector-curvature="0" />
      <g
         id="text4184"
         style="font-style:normal;font-variant:normal;font-weight:bold;font-stretch:normal;font-size:199.18655396px;line-height:125%;font-family:'Open Sans';-inkscape-font-specification:'Open Sans Bold';text-align:start;letter-spacing:0px;word-spacing:0px;writing-mode:tb-rl;text-anchor:start;fill:#696969;fill-opacity:1;stroke:none;stroke-width:1px;stroke-linecap:butt;stroke-linejoin:miter;stroke-opacity:1">
        <path
           id="path4598"
           style="font-style:normal;font-variant:normal;font-weight:bold;font-stretch:normal;font-size:60px;font-family:'Open Sans';-inkscape-font-specification:'Open Sans Bold';letter-spacing:-40px"
           d="m 516.88382,299.54622 q 0,5.03906 -3.51563,7.67578 -3.48632,2.63672 -10.45898,2.63672 -3.57422,0 -6.09375,-0.49805 -2.51953,-0.46875 -4.7168,-1.40625 l 0,-7.38281 q 2.49024,1.17187 5.59571,1.96289 3.13476,0.79102 5.50781,0.79102 4.86328,0 4.86328,-2.8125 0,-1.05469 -0.64453,-1.69922 -0.64453,-0.67383 -2.22656,-1.49414 -1.58203,-0.84961 -4.21875,-1.96289 -3.7793,-1.58204 -5.56641,-2.92969 -1.75781,-1.34766 -2.57812,-3.07617 -0.79102,-1.75782 -0.79102,-4.30664 0,-4.36524 3.36914,-6.73829 3.39844,-2.40234 9.60938,-2.40234 5.91796,0 11.51367,2.57813 l -2.69532,6.44531 q -2.46093,-1.05469 -4.5996,-1.72852 -2.13868,-0.67383 -4.36524,-0.67383 -3.95508,0 -3.95508,2.13868 0,1.20117 1.25977,2.08007 1.28906,0.87891 5.5957,2.60743 3.83789,1.55273 5.625,2.90039 1.78711,1.34765 2.63672,3.10547 0.84961,1.75781 0.84961,4.18945 z" />
        <path
           id="path4600"
           style="font-style:normal;font-variant:normal;font-weight:bold;font-stretch:normal;font-size:60px;font-family:'Open Sans';-inkscape-font-specification:'Open Sans Bold';letter-spacing:-40px"
           d="m 504.78421,323.97005 q -2.8418,0 -4.45312,1.8164 -1.61133,1.78711 -1.84571,5.09766 l 12.53906,0 q -0.0586,-3.31055 -1.72851,-5.09766 -1.66992,-1.8164 -4.51172,-1.8164 z m 1.25977,27.59765 q -7.91016,0 -12.36329,-4.36523 -4.45312,-4.36524 -4.45312,-12.36328 0,-8.23242 4.10156,-12.71485 4.13086,-4.51171 11.39649,-4.51171 6.94336,0 10.81054,3.95507 3.86719,3.95508 3.86719,10.92774 l 0,4.33594 -21.12305,0 q 0.14649,3.80859 2.25586,5.94726 2.10938,2.13867 5.91797,2.13867 2.95899,0 5.59571,-0.61523 2.63671,-0.61524 5.50781,-1.96289 l 0,6.91406 q -2.34375,1.17188 -5.00977,1.72852 -2.66601,0.58593 -6.5039,0.58593 z" />
        <path
           id="path4602"
           style="font-style:normal;font-variant:normal;font-weight:bold;font-stretch:normal;font-size:60px;font-family:'Open Sans';-inkscape-font-specification:'Open Sans Bold';letter-spacing:-40px"
           d="m 519.46194,392.69075 -8.93554,0 0,-19.13086 q 0,-3.54492 -1.25977,-5.30273 -1.25976,-1.78711 -4.01367,-1.78711 -3.75,0 -5.41992,2.51953 -1.66992,2.49023 -1.66992,8.29101 l 0,15.41016 -8.93555,0 0,-32.75391 6.82617,0 1.20117,4.18946 0.49805,0 q 1.49414,-2.37305 4.10156,-3.57422 2.63672,-1.23047 5.97657,-1.23047 5.71289,0 8.67187,3.10547 2.95898,3.07617 2.95898,8.90625 l 0,21.35742 z" />
        <path
           id="path4604"
           style="font-style:normal;font-variant:normal;font-weight:bold;font-stretch:normal;font-size:60px;font-family:'Open Sans';-inkscape-font-specification:'Open Sans Bold';letter-spacing:-40px"
           d="m 516.88382,424.67317 q 0,5.03906 -3.51563,7.67578 -3.48632,2.63672 -10.45898,2.63672 -3.57422,0 -6.09375,-0.49804 -2.51953,-0.46875 -4.7168,-1.40625 l 0,-7.38282 q 2.49024,1.17188 5.59571,1.96289 3.13476,0.79102 5.50781,0.79102 4.86328,0 4.86328,-2.8125 0,-1.05469 -0.64453,-1.69922 -0.64453,-0.67383 -2.22656,-1.49414 -1.58203,-0.84961 -4.21875,-1.96289 -3.7793,-1.58203 -5.56641,-2.92969 -1.75781,-1.34765 -2.57812,-3.07617 -0.79102,-1.75781 -0.79102,-4.30664 0,-4.36524 3.36914,-6.73828 3.39844,-2.40235 9.60938,-2.40235 5.91796,0 11.51367,2.57813 l -2.69532,6.44531 q -2.46093,-1.05469 -4.5996,-1.72851 -2.13868,-0.67383 -4.36524,-0.67383 -3.95508,0 -3.95508,2.13867 0,1.20117 1.25977,2.08008 1.28906,0.8789 5.5957,2.60742 3.83789,1.55273 5.625,2.90039 1.78711,1.34766 2.63672,3.10547 0.84961,1.75781 0.84961,4.18945 z" />
        <path
           id="path4606"
           style="font-style:normal;font-variant:normal;font-weight:bold;font-stretch:normal;font-size:60px;font-family:'Open Sans';-inkscape-font-specification:'Open Sans Bold';letter-spacing:-40px"
           d="m 497.51859,459.67317 q 0,4.86328 1.58203,7.35352 1.61132,2.49023 5.21484,2.49023 3.57422,0 5.12695,-2.46094 1.58203,-2.49023 1.58203,-7.38281 0,-4.86328 -1.58203,-7.29492 -1.58203,-2.43164 -5.18554,-2.43164 -3.57422,0 -5.15625,2.43164 -1.58203,2.40234 -1.58203,7.29492 z m 22.64648,0 q 0,7.99805 -4.21875,12.50977 -4.21875,4.51172 -11.74805,4.51172 -4.71679,0 -8.32031,-2.05078 -3.60352,-2.08008 -5.53711,-5.94727 -1.93359,-3.86719 -1.93359,-9.02344 0,-8.02734 4.18945,-12.48047 4.18945,-4.45312 11.77734,-4.45312 4.7168,0 8.32032,2.05078 3.60351,2.05078 5.53711,5.88867 1.93359,3.83789 1.93359,8.99414 z" />
        <path
           id="path4608"
           style="font-style:normal;font-variant:normal;font-weight:bold;font-stretch:normal;font-size:60px;font-family:'Open Sans';-inkscape-font-specification:'Open Sans Bold';letter-spacing:-40px"
           d="m 513.66116,484.44856 q 1.81641,0 3.01758,0.26367 l -0.67383,8.37891 q -1.08398,-0.29297 -2.63672,-0.29297 -4.27734,0 -6.67968,2.19727 -2.37305,2.19726 -2.37305,6.15234 l 0,16.66992 -8.93555,0 0,-32.7539 6.76758,0 1.31836,5.50781 0.43945,0 q 1.52344,-2.75391 4.10157,-4.42383 2.60742,-1.69922 5.65429,-1.69922 z" />
      </g>
      <path
         d="m 591.1182,711.46498 q 0,35.23324 -24.58131,53.66923 -24.37645,18.43599 -73.12943,18.43599 -24.99101,0 -42.60763,-3.48236 -17.61661,-3.27751 -32.97994,-9.83252 l 0,-51.62082 q 17.41177,8.19382 39.12527,13.72458 21.91835,5.53081 38.51074,5.53081 34.00416,0 34.00416,-19.66504 0,-7.37442 -4.50656,-11.88098 -4.50656,-4.71141 -15.56819,-10.44707 -11.06159,-5.94047 -29.49759,-13.72458 -26.42492,-11.06158 -38.92042,-20.48445 -12.29065,-9.42282 -18.0263,-21.50865 -5.5308,-12.29063 -5.5308,-30.11212 0,-30.52177 23.5571,-47.11421 23.76195,-16.79719 67.18896,-16.79719 41.37854,0 80.50383,18.02629 l -18.84569,45.06576 q -17.20694,-7.37442 -32.16057,-12.08583 -14.95364,-4.71141 -30.52182,-4.71141 -27.65397,0 -27.65397,14.95363 0,8.39862 8.8083,14.54394 9.01315,6.14536 39.12526,18.23114 26.83462,10.85677 39.33014,20.2796 12.49548,9.42287 18.436,21.7135 5.94046,12.29067 5.94046,29.29276 z"
         style="font-style:normal;font-variant:normal;font-weight:bold;font-stretch:normal;font-size:medium;line-height:125%;font-family:'Open Sans';-inkscape-font-specification:'Open Sans Bold';text-align:start;letter-spacing:0px;word-spacing:0px;writing-mode:lr-tb;text-anchor:start;fill:#696969;fill-opacity:1;stroke:none"
         id="path4155"
         inkscape:connector-curvature="0" />
      <g
         id="text4245"
         style="font-style:normal;font-variant:normal;font-weight:bold;font-stretch:normal;font-size:199.18655396px;line-height:125%;font-family:'Open Sans';-inkscape-font-specification:'Open Sans Bold';text-align:start;letter-spacing:0px;word-spacing:0px;writing-mode:tb-rl;text-anchor:start;fill:#696969;fill-opacity:1;stroke:none;stroke-width:1px;stroke-linecap:butt;stroke-linejoin:miter;stroke-opacity:1">
        <path
           id="path4571"
           style="font-style:italic;font-variant:normal;font-weight:300;font-stretch:normal;font-size:40px;font-family:'Open Sans';-inkscape-font-specification:'Open Sans Light Italic';letter-spacing:-20px"
           d="m 508.50247,849.12213 2.91016,-13.51562 q 0.41015,-1.79688 0.41015,-3.04688 0,-1.5625 -0.85937,-2.4414 -0.83984,-0.87891 -2.61719,-0.87891 -2.1875,0 -4.12109,1.30859 -1.91406,1.3086 -3.24219,3.67188 -1.30859,2.36328 -2.01172,5.58594 l -1.99219,9.3164 -1.91406,0 6.48438,-30.39062 1.875,0 -1.67969,8.02734 q -0.85938,3.90625 -1.28906,5.44922 l 0.11718,0 q 1.52344,-2.20703 3.63282,-3.41797 2.1289,-1.23047 4.49218,-1.23047 2.42188,0 3.75,1.26953 1.32813,1.26953 1.32813,3.57422 0,1.36719 -0.46875,3.55469 l -2.89063,13.16406 -1.91406,0 z" />
        <path
           id="path4573"
           style="font-style:italic;font-variant:normal;font-weight:300;font-stretch:normal;font-size:40px;font-family:'Open Sans';-inkscape-font-specification:'Open Sans Light Italic';letter-spacing:-20px"
           d="m 501.022,862.36432 -2.96875,13.63281 q -0.42968,2.07031 -0.42968,3.08594 0,1.44531 0.91796,2.30469 0.9375,0.83984 2.71485,0.83984 2.14844,0 4.04297,-1.26953 1.91406,-1.28906 3.20312,-3.65234 1.3086,-2.38282 1.95313,-5.46875 l 2.05078,-9.47266 1.91406,0 -4.51172,21.23047 -1.5625,0 0.54688,-4.00391 -0.11719,0 q -3.26172,4.31641 -7.87109,4.31641 -2.5586,0 -3.88672,-1.21094 -1.3086,-1.21094 -1.3086,-3.53516 0,-1.17187 0.42969,-3.32031 l 2.92969,-13.47656 1.95312,0 z" />
        <path
           id="path4575"
           style="font-style:italic;font-variant:normal;font-weight:300;font-stretch:normal;font-size:40px;font-family:'Open Sans';-inkscape-font-specification:'Open Sans Light Italic';letter-spacing:-20px"
           d="m 501.52982,918.06744 2.87109,-13.16406 q 0.48828,-2.4414 0.48828,-3.16406 0,-3.55469 -3.00781,-3.55469 -2.07031,0 -3.90625,1.32813 -1.83594,1.30859 -3.10547,3.67187 -1.26953,2.36328 -1.95313,5.60547 l -1.95312,9.27734 -1.91406,0 4.51172,-21.23046 1.5625,0 -0.64454,4.10156 0.11719,0 q 1.5625,-2.20703 3.53516,-3.32031 1.99219,-1.11329 4.16015,-1.11329 2.07032,0 3.1836,1.3086 1.11328,1.30859 1.17187,3.80859 l 0.11719,0 q 1.50391,-2.51953 3.53516,-3.80859 2.03125,-1.3086 4.33593,-1.3086 2.28516,0 3.55469,1.21094 1.28906,1.19141 1.28906,3.4375 0,0.56641 -0.0586,1.11328 -0.0391,0.52735 -0.37109,2.32422 l -2.96875,13.47656 -1.95313,0 2.91016,-13.28125 q 0.48828,-2.34375 0.48828,-3.4375 0,-1.5039 -0.83984,-2.32421 -0.83985,-0.83985 -2.32422,-0.83985 -3.06641,0 -5.42969,2.69531 -2.34375,2.67579 -3.28125,7.07032 l -2.12891,10.11718 -1.99218,0 z" />
        <path
           id="path4577"
           style="font-style:italic;font-variant:normal;font-weight:300;font-stretch:normal;font-size:40px;font-family:'Open Sans';-inkscape-font-specification:'Open Sans Light Italic';letter-spacing:-20px"
           d="m 506.49075,930.9776 q 4.53125,0 5.44922,4.27734 l 0.11719,0 1.15234,-3.94531 1.5625,0 -4.47265,21.23047 -1.60157,0 0.87891,-5.35156 -0.11719,0 q -1.64062,2.77344 -3.65234,4.25781 -2.01172,1.48438 -4.62891,1.48438 -5.48828,0 -5.48828,-7.30469 0,-3.84766 1.46485,-7.34375 1.46484,-3.4961 3.90625,-5.39063 2.46093,-1.91406 5.42968,-1.91406 z m -4.86328,20.19531 q 1.73828,0 3.45703,-1.21093 1.73828,-1.21094 3.10547,-3.24219 1.38672,-2.03125 2.10938,-4.49219 0.72265,-2.46094 0.72265,-4.16016 0,-1.54296 -0.50781,-2.7539 -0.50781,-1.23047 -1.50391,-1.9336 -0.99609,-0.72265 -2.48046,-0.72265 -2.42188,0 -4.375,1.60156 -1.95313,1.60156 -3.20313,4.80469 -1.25,3.18359 -1.25,6.34765 0,2.96875 0.97656,4.375 0.97657,1.38672 2.94922,1.38672 z" />
        <path
           id="path4579"
           style="font-style:italic;font-variant:normal;font-weight:300;font-stretch:normal;font-size:40px;font-family:'Open Sans';-inkscape-font-specification:'Open Sans Light Italic';letter-spacing:-20px"
           d="m 508.50247,987.01276 2.91016,-13.51563 q 0.41015,-1.79687 0.41015,-3.04687 0,-1.5625 -0.85937,-2.44141 -0.83984,-0.87891 -2.61719,-0.87891 -2.1875,0 -4.12109,1.3086 -1.91406,1.30859 -3.24219,3.67187 -1.30859,2.34375 -2.01172,5.58594 l -1.99219,9.31641 -1.91406,0 4.51172,-21.23047 1.60156,0 -0.72265,4.3164 0.11718,0 q 3.20313,-4.64843 8.125,-4.64843 2.53907,0 3.8086,1.25 1.26953,1.25 1.26953,3.59375 0,1.36718 -0.46875,3.55468 l -2.89063,13.16407 -1.91406,0 z" />
        <path
           id="path4581"
           style="font-style:italic;font-variant:normal;font-weight:300;font-stretch:normal;font-size:40px;font-family:'Open Sans';-inkscape-font-specification:'Open Sans Light Italic';letter-spacing:-20px"
           d="m 500.22122,1011.6807 0.35156,-1.7578 8.92579,0 -0.3125,1.7578 -8.96485,0 z" />
        <path
           id="path4583"
           style="font-style:italic;font-variant:normal;font-weight:300;font-stretch:normal;font-size:40px;font-family:'Open Sans';-inkscape-font-specification:'Open Sans Light Italic';letter-spacing:-20px"
           d="m 501.52982,1055.9581 2.87109,-13.1641 q 0.48828,-2.4414 0.48828,-3.1641 0,-3.5546 -3.00781,-3.5546 -2.07031,0 -3.90625,1.3281 -1.83594,1.3086 -3.10547,3.6719 -1.26953,2.3632 -1.95313,5.6054 l -1.95312,9.2774 -1.91406,0 4.51172,-21.2305 1.5625,0 -0.64454,4.1016 0.11719,0 q 1.5625,-2.2071 3.53516,-3.3203 1.99219,-1.1133 4.16015,-1.1133 2.07032,0 3.1836,1.3086 1.11328,1.3086 1.17187,3.8086 l 0.11719,0 q 1.50391,-2.5196 3.53516,-3.8086 2.03125,-1.3086 4.33593,-1.3086 2.28516,0 3.55469,1.2109 1.28906,1.1914 1.28906,3.4375 0,0.5664 -0.0586,1.1133 -0.0391,0.5273 -0.37109,2.3242 l -2.96875,13.4766 -1.95313,0 2.91016,-13.2813 q 0.48828,-2.3437 0.48828,-3.4375 0,-1.5039 -0.83984,-2.3242 -0.83985,-0.8398 -2.32422,-0.8398 -3.06641,0 -5.42969,2.6953 -2.34375,2.6758 -3.28125,7.0703 l -2.12891,10.1172 -1.99218,0 z" />
        <path
           id="path4585"
           style="font-style:italic;font-variant:normal;font-weight:300;font-stretch:normal;font-size:40px;font-family:'Open Sans';-inkscape-font-specification:'Open Sans Light Italic';letter-spacing:-20px"
           d="m 506.49075,1068.8682 q 4.53125,0 5.44922,4.2774 l 0.11719,0 1.15234,-3.9453 1.5625,0 -4.47265,21.2304 -1.60157,0 0.87891,-5.3515 -0.11719,0 q -1.64062,2.7734 -3.65234,4.2578 -2.01172,1.4844 -4.62891,1.4844 -5.48828,0 -5.48828,-7.3047 0,-3.8477 1.46485,-7.3438 1.46484,-3.4961 3.90625,-5.3906 2.46093,-1.9141 5.42968,-1.9141 z m -4.86328,20.1953 q 1.73828,0 3.45703,-1.2109 1.73828,-1.2109 3.10547,-3.2422 1.38672,-2.0312 2.10938,-4.4922 0.72265,-2.4609 0.72265,-4.1601 0,-1.543 -0.50781,-2.7539 -0.50781,-1.2305 -1.50391,-1.9336 -0.99609,-0.7227 -2.48046,-0.7227 -2.42188,0 -4.375,1.6016 -1.95313,1.6015 -3.20313,4.8047 -1.25,3.1836 -1.25,6.3476 0,2.9688 0.97656,4.375 0.97657,1.3867 2.94922,1.3867 z" />
        <path
           id="path4587"
           style="font-style:italic;font-variant:normal;font-weight:300;font-stretch:normal;font-size:40px;font-family:'Open Sans';-inkscape-font-specification:'Open Sans Light Italic';letter-spacing:-20px"
           d="m 505.397,1125.294 q -3.39843,0 -5.37109,-2.1484 -1.95313,-2.168 -1.95313,-5.9961 0,-3.7696 1.42579,-7.0508 1.44531,-3.3008 3.88671,-5.0195 2.44141,-1.7383 5.66407,-1.7383 2.61718,0 4.70703,0.8398 l -0.54688,1.7578 q -2.08984,-0.9179 -4.25781,-0.9179 -2.51953,0 -4.55078,1.5039 -2.01172,1.5039 -3.16406,4.3359 -1.15235,2.832 -1.15235,6.25 0,3.086 1.42578,4.7656 1.44532,1.6602 4.08204,1.6602 1.38671,0 2.55859,-0.2539 1.19141,-0.2539 2.57812,-0.8984 l 0,1.7968 q -2.26562,1.1133 -5.33203,1.1133 z" />
        <path
           id="path4589"
           style="font-style:italic;font-variant:normal;font-weight:300;font-stretch:normal;font-size:40px;font-family:'Open Sans';-inkscape-font-specification:'Open Sans Light Italic';letter-spacing:-20px"
           d="m 508.50247,1159.376 2.91016,-13.5156 q 0.41015,-1.7969 0.41015,-3.0469 0,-1.5625 -0.85937,-2.4414 -0.83984,-0.8789 -2.61719,-0.8789 -2.1875,0 -4.12109,1.3086 -1.91406,1.3086 -3.24219,3.6719 -1.30859,2.3633 -2.01172,5.5859 l -1.99219,9.3164 -1.91406,0 6.48438,-30.3906 1.875,0 -1.67969,8.0274 q -0.85938,3.9062 -1.28906,5.4492 l 0.11718,0 q 1.52344,-2.2071 3.63282,-3.418 2.1289,-1.2305 4.49218,-1.2305 2.42188,0 3.75,1.2696 1.32813,1.2695 1.32813,3.5742 0,1.3672 -0.46875,3.5547 l -2.89063,13.164 -1.91406,0 z" />
        <path
           id="path4591"
           style="font-style:italic;font-variant:normal;font-weight:300;font-stretch:normal;font-size:40px;font-family:'Open Sans';-inkscape-font-specification:'Open Sans Light Italic';letter-spacing:-20px"
           d="m 503.50247,1193.8487 -1.91406,0 4.51172,-21.2305 1.875,0 -4.47266,21.2305 z m 3.4375,-26.6797 q 0,-1.0742 0.42969,-1.7187 0.42969,-0.6446 1.17187,-0.6446 1.11329,0 1.11329,1.4063 0,1.1133 -0.42969,1.7578 -0.42969,0.6445 -1.11328,0.6445 -0.56641,0 -0.87891,-0.3711 -0.29297,-0.3906 -0.29297,-1.0742 z" />
        <path
           id="path4593"
           style="font-style:italic;font-variant:normal;font-weight:300;font-stretch:normal;font-size:40px;font-family:'Open Sans';-inkscape-font-specification:'Open Sans Light Italic';letter-spacing:-20px"
           d="m 508.50247,1228.3214 2.91016,-13.5157 q 0.41015,-1.7968 0.41015,-3.0468 0,-1.5625 -0.85937,-2.4415 -0.83984,-0.8789 -2.61719,-0.8789 -2.1875,0 -4.12109,1.3086 -1.91406,1.3086 -3.24219,3.6719 -1.30859,2.3438 -2.01172,5.5859 l -1.99219,9.3165 -1.91406,0 4.51172,-21.2305 1.60156,0 -0.72265,4.3164 0.11718,0 q 3.20313,-4.6484 8.125,-4.6484 2.53907,0 3.8086,1.25 1.26953,1.25 1.26953,3.5937 0,1.3672 -0.46875,3.5547 l -2.89063,13.1641 -1.91406,0 z" />
        <path
           id="path4595"
           style="font-style:italic;font-variant:normal;font-weight:300;font-stretch:normal;font-size:40px;font-family:'Open Sans';-inkscape-font-specification:'Open Sans Light Italic';letter-spacing:-20px"
           d="m 504.85013,1263.1846 q -3.37891,0 -5.27344,-2.1289 -1.89453,-2.1484 -1.89453,-5.9765 0,-3.5352 1.38672,-6.7774 1.38672,-3.2422 3.80859,-5.1562 2.44141,-1.9141 5.3711,-1.9141 2.22656,0 3.55468,1.1914 1.32813,1.1914 1.32813,3.2422 0,3.5352 -3.20313,5.3906 -3.18359,1.8555 -9.47265,1.8555 l -0.64453,0 q -0.11719,0.8594 -0.11719,1.9141 0,3.2226 1.44531,4.9218 1.44531,1.6797 4.16016,1.6797 2.57812,0 5.39062,-1.4258 l 0,1.836 q -2.73437,1.3476 -5.83984,1.3476 z m 3.16406,-20.2734 q -2.55859,0 -4.76562,2.2656 -2.1875,2.2461 -3.16407,6.0156 l 0.95703,0 q 10.09766,0 10.09766,-5.2734 0,-1.3086 -0.85937,-2.1484 -0.83985,-0.8594 -2.26563,-0.8594 z" />
      </g>
    </g>
  </g>
</svg>
