<?xml version="1.0" encoding="UTF-8" standalone="no"?>
<!-- Created with Inkscape (http://www.inkscape.org/) -->

<svg
   xmlns:osb="http://www.openswatchbook.org/uri/2009/osb"
   xmlns:dc="http://purl.org/dc/elements/1.1/"
   xmlns:cc="http://creativecommons.org/ns#"
   xmlns:rdf="http://www.w3.org/1999/02/22-rdf-syntax-ns#"
   xmlns:svg="http://www.w3.org/2000/svg"
   xmlns="http://www.w3.org/2000/svg"
   xmlns:xlink="http://www.w3.org/1999/xlink"
   xmlns:sodipodi="http://sodipodi.sourceforge.net/DTD/sodipodi-0.dtd"
   xmlns:inkscape="http://www.inkscape.org/namespaces/inkscape"
   width="66"
   height="66"
   id="svg2"
   version="1.1"
   inkscape:version="0.91 r13725"
   sodipodi:docname="osd_logo_home_hi_1x1.svg"
   inkscape:export-filename="/Users/lucacorsato/Documents/osd/website/osd2/assets/img/logos/osd_logo_home_hi.png"
   inkscape:export-xdpi="320"
   inkscape:export-ydpi="320">
  <defs
     id="defs4">
    <linearGradient
       id="linearGradient4444"
       osb:paint="solid">
      <stop
         style="stop-color:#002fa7;stop-opacity:1;"
         offset="0"
         id="stop4446" />
    </linearGradient>
    <linearGradient
       inkscape:collect="always"
       xlink:href="#linearGradient4444"
       id="linearGradient4448"
       x1="1481.6096"
       y1="393.59521"
       x2="3401.6096"
       y2="393.59521"
       gradientUnits="userSpaceOnUse" />
    <linearGradient
       inkscape:collect="always"
       xlink:href="#linearGradient4444"
       id="linearGradient4452"
       gradientUnits="userSpaceOnUse"
       x1="1481.6096"
       y1="393.59521"
       x2="3401.6096"
       y2="393.59521"
       gradientTransform="translate(-1761.6116,2283.4524)" />
    <linearGradient
       inkscape:collect="always"
       xlink:href="#linearGradient4444"
       id="linearGradient5370"
       x1="1481.6096"
       y1="393.59521"
       x2="3401.6096"
       y2="393.59521"
       gradientUnits="userSpaceOnUse" />
    <linearGradient
       inkscape:collect="always"
       xlink:href="#linearGradient4444"
       id="linearGradient5372"
       gradientUnits="userSpaceOnUse"
       x1="1481.6096"
       y1="393.59521"
       x2="3401.6096"
       y2="393.59521"
       gradientTransform="translate(-1761.6116,2283.4524)" />
    <linearGradient
       inkscape:collect="always"
       xlink:href="#linearGradient4444"
       id="linearGradient6631"
       x1="1481.6096"
       y1="393.59521"
       x2="3401.6096"
       y2="393.59521"
       gradientUnits="userSpaceOnUse" />
    <linearGradient
       inkscape:collect="always"
       xlink:href="#linearGradient4444"
       id="linearGradient6633"
       gradientUnits="userSpaceOnUse"
       x1="1481.6096"
       y1="393.59521"
       x2="3401.6096"
       y2="393.59521"
       gradientTransform="translate(-1761.6116,2283.4524)" />
  </defs>
  <sodipodi:namedview
     id="base"
     pagecolor="#ffffff"
     bordercolor="#666666"
     borderopacity="1.0"
     inkscape:pageopacity="0.0"
     inkscape:pageshadow="2"
     inkscape:zoom="1.817623"
     inkscape:cx="-38.412002"
     inkscape:cy="10.993236"
     inkscape:document-units="px"
     inkscape:current-layer="layer11"
     showgrid="false"
     inkscape:window-width="1440"
     inkscape:window-height="851"
     inkscape:window-x="0"
     inkscape:window-y="0"
     inkscape:window-maximized="0"
     fit-margin-top="0"
     fit-margin-left="0"
     fit-margin-right="0"
     fit-margin-bottom="0" />
  <metadata
     id="metadata7">
    <rdf:RDF>
      <cc:Work
         rdf:about="">
        <dc:format>image/svg+xml</dc:format>
        <dc:type
           rdf:resource="http://purl.org/dc/dcmitype/StillImage" />
        <dc:title></dc:title>
      </cc:Work>
    </rdf:RDF>
  </metadata>
  <g
     inkscape:groupmode="layer"
     id="layer1"
     inkscape:label="sfondo"
     transform="translate(1.897746e-7,28.50003)"
     style="display:inline" />
  <g
     inkscape:groupmode="layer"
     id="layer11"
     inkscape:label="logo"
     style="display:inline"
     transform="translate(1.897746e-7,-986.36219)">
    <text
       xml:space="preserve"
       style="font-style:normal;font-variant:normal;font-weight:normal;font-stretch:normal;font-size:180px;line-height:125%;font-family:Griffo;-inkscape-font-specification:Griffo;text-align:start;letter-spacing:0px;word-spacing:0px;writing-mode:lr-tb;text-anchor:start;fill:#000000;fill-opacity:1;stroke:none;stroke-width:1px;stroke-linecap:butt;stroke-linejoin:miter;stroke-opacity:1"
       x="-368.75"
       y="910.95593"
       id="text4157"
       sodipodi:linespacing="125%"><tspan
         sodipodi:role="line"
         id="tspan4159"
         x="-368.75"
         y="910.95593"
         style="font-style:normal;font-variant:normal;font-weight:bold;font-stretch:normal;font-family:'Open Sans';-inkscape-font-specification:'Open Sans Bold'" /></text>
    <g
       id="g6609"
       transform="translate(0,-15.675116)">
      <rect
         ry="0"
         y="1045.7622"
         x="-1.8351204e-07"
         height="6.5999999"
         width="6.5999999"
         id="rect2995"
         style="display:inline;opacity:0.5;fill:none;fill-opacity:1;fill-rule:evenodd;stroke:none" />
      <path
         inkscape:export-ydpi="300"
         inkscape:export-xdpi="300"
         inkscape:export-filename="/Users/lucacorsato/Documents/o{s}d/o{s}d_semplice.png"
         d="m 4.488614,1026.7653 c -1.06e-5,1.616 0.2597476,2.8377 0.7793144,3.6652 0.5291778,0.8273 1.3855241,1.241 2.5690083,1.241 1.1738554,0 2.0157853,-0.4089 2.5257573,-1.2264 0.519577,-0.8275 0.779373,-2.0541 0.779378,-3.6798 -5e-6,-1.6161 -0.259801,-2.8279 -0.779378,-3.6358 -0.5196161,-0.808 -1.3711352,-1.2121 -2.5545858,-1.2121 -1.1738835,0 -2.0205862,0.4041 -2.5401798,1.2121 -0.5195668,0.7981 -0.779325,2.0101 -0.7793144,3.6358 m 11.156424,0 c -2e-5,2.6574 -0.692762,4.7359 -2.078292,6.235 -1.385595,1.4992 -3.314666,2.2486 -5.7875113,2.2486 -1.5490652,0 -2.9154104,-0.3405 -4.0988726,-1.022 -1.1834774,-0.6913 -2.0926928,-1.6792 -2.72784115,-2.9643 -0.63500692,-1.2849 -0.9525211397746,-2.7841 -0.9525211397746,-4.4973 0,-2.6672 0.6879077197746,-4.7407 2.0638535897746,-6.2204 1.3759513,-1.4797 3.3099578,-2.2196 5.8019332,-2.2196 1.5491638,0 2.9153734,0.3407 4.0989824,1.0222 1.18345,0.6815 2.092682,1.6597 2.727743,2.9351 0.634991,1.2752 0.952506,2.7693 0.952526,4.4827"
         style="font-style:normal;font-variant:normal;font-weight:bold;font-stretch:normal;font-size:28px;line-height:125%;font-family:'Open Sans';-inkscape-font-specification:'Open Sans Bold';text-align:start;letter-spacing:0px;word-spacing:0px;writing-mode:lr-tb;text-anchor:start;display:inline;fill:#ea5480;fill-opacity:1;stroke:none"
         id="path4292"
         inkscape:connector-curvature="0" />
      <path
         inkscape:export-ydpi="300"
         inkscape:export-xdpi="300"
         inkscape:export-filename="/Users/lucacorsato/Documents/o{s}d/o{s}d_semplice.png"
         inkscape:connector-curvature="0"
         id="path4296"
         style="font-style:normal;font-variant:normal;font-weight:bold;font-stretch:normal;font-size:28px;line-height:125%;font-family:'Open Sans';-inkscape-font-specification:'Open Sans Bold';text-align:start;letter-spacing:0px;word-spacing:0px;writing-mode:lr-tb;text-anchor:start;display:inline;fill:#002fa7;fill-opacity:1;stroke:none"
         d="m 57.008545,1035.249 c -1.895516,0 -3.386849,-0.7447 -4.474126,-2.2341 -1.077651,-1.4893 -1.616413,-3.553 -1.616413,-6.1911 0,-2.6769 0.548358,-4.7601 1.645275,-6.2494 1.106487,-1.4991 2.626684,-2.2488 4.560695,-2.2488 2.030147,0 3.579303,0.7983 4.647242,2.3947 l 0.144372,0 c -0.221309,-1.2167 -0.331927,-2.3022 -0.331907,-3.2561 l 0,-5.2275 4.416317,0 0,22.7203 -3.37724,0 -0.851542,-2.1172 -0.187535,0 c -1.000726,1.6061 -2.525719,2.4092 -4.575138,2.4092 m 1.544252,-3.5481 c 1.125723,0 1.94839,-0.331 2.467984,-0.9929 0.529122,-0.662 0.817767,-1.7864 0.86597,-3.3731 l 0,-0.4819 c -1.3e-5,-1.7521 -0.269412,-3.0078 -0.808272,-3.7672 -0.529192,-0.7592 -1.395138,-1.139 -2.597806,-1.139 -0.981493,0 -1.746361,0.4235 -2.294791,1.2705 -0.538827,0.8371 -0.808236,2.0587 -0.808233,3.6649 -9e-6,1.6063 0.274234,2.8133 0.822648,3.6213 0.548443,0.7983 1.332556,1.1974 2.352487,1.1974" />
      <g
         transform="matrix(0.39173317,0,0,0.39173317,-6.1087565,653.6509)"
         id="g3785">
        <path
           inkscape:connector-curvature="0"
           id="path4298"
           style="font-style:normal;font-variant:normal;font-weight:normal;font-stretch:normal;font-size:56px;line-height:125%;font-family:'Liberation Serif';-inkscape-font-specification:'Liberation Serif';text-align:start;letter-spacing:0px;word-spacing:0px;writing-mode:lr-tb;text-anchor:start;display:inline;fill:#ea5480;fill-opacity:1;stroke:none"
           d="m 90.606059,1015.7074 c -6.189514,-3e-4 -10.954632,-1.9137 -14.294854,-5.7406 -3.29147,-3.827 -4.937073,-9.2191 -4.937045,-16.17702 l 0,-21.99203 c -2.8e-5,-5.81472 -1.301817,-10.1638 -3.905173,-13.04637 -2.554619,-2.93215 -6.533523,-4.49762 -11.937309,-4.69643 l 0,-3.35461 c 10.561775,-0.19923 15.842454,-6.06337 15.842482,-17.59367 l 0,-21.91769 c -2.8e-5,-7.00752 1.596477,-12.39964 4.789472,-16.17703 3.193204,-3.77705 8.007115,-5.66575 14.442427,-5.66575 l 9.947711,0 0,3.50401 -4.568738,0 c -4.470333,0 -7.663245,1.36676 -9.579056,4.1 -1.866616,2.68396 -2.799944,6.65973 -2.799917,11.92791 l 0,24.60111 c -2.7e-5,4.72169 -1.277337,8.79704 -3.831803,12.22634 -2.554327,3.37946 -5.993092,5.54122 -10.316018,6.48584 l 0,0.22351 c 4.372052,1.04347 7.81079,3.25507 10.316018,6.63481 2.554466,3.32962 3.831776,7.40504 3.831803,12.22614 l 0,24.89933 c -2.7e-5,5.2681 0.933301,9.244 2.799917,11.9281 1.915811,2.733 5.108723,4.0998 9.579056,4.0998 l 4.568738,0 0,3.504 -9.947711,0"
           inkscape:export-filename="/Users/lucacorsato/Documents/o{s}d/o{s}d_semplice.png"
           inkscape:export-xdpi="300"
           inkscape:export-ydpi="300" />
        <path
           inkscape:connector-curvature="0"
           id="path4300"
           style="font-style:normal;font-variant:normal;font-weight:normal;font-stretch:normal;font-size:56px;line-height:125%;font-family:'Liberation Serif';-inkscape-font-specification:'Liberation Serif';text-align:start;letter-spacing:0px;word-spacing:0px;writing-mode:lr-tb;text-anchor:start;display:inline;fill:#002fa7;fill-opacity:1;stroke:none"
           d="m 100.55377,1015.7074 0,-3.5043 4.5684,0 c 4.47024,0 7.63862,-1.3668 9.50547,-4.0998 1.91567,-2.6841 2.87378,-6.66 2.87381,-11.9281 l 0,-24.89933 c -3e-5,-4.82096 1.25239,-8.89624 3.75791,-12.22614 2.50518,-3.37974 5.96842,-5.59134 10.38961,-6.63481 l 0,-0.22351 c -4.32291,-0.94434 -7.76172,-3.13123 -10.31595,-6.56025 -2.55461,-3.42945 -3.8316,-7.47974 -3.83157,-12.15188 l 0,-24.6011 c -3e-5,-5.26818 -0.95814,-9.24395 -2.87381,-11.92792 -1.86685,-2.73323 -5.03523,-4.1 -9.50547,-4.1 l -4.5684,0 0,-3.50401 10.02108,0 c 6.38609,3e-4 11.17585,1.889 14.36881,5.66604 3.19285,3.7771 4.7893,9.16949 4.78936,16.17674 l 0,21.9177 c -6e-5,11.53024 5.28104,17.39467 15.84251,17.59361 l 0,3.35461 c -5.30534,0.19909 -9.28449,1.73929 -11.93692,4.62201 -2.60375,2.88272 -3.90565,7.25622 -3.90559,13.12079 l 0,21.99203 c -6e-5,6.90832 -1.67015,12.27582 -5.01038,16.10252 -3.29142,3.8766 -8.00717,5.8151 -14.14779,5.8151 l -10.02108,0"
           inkscape:export-filename="/Users/lucacorsato/Documents/o{s}d/o{s}d_semplice.png"
           inkscape:export-xdpi="300"
           inkscape:export-ydpi="300" />
      </g>
      <path
         d="m 39.013774,1029.863 q 0,2.3254 -1.622362,3.5421 -1.608843,1.2168 -4.826532,1.2168 -1.649402,0 -2.812097,-0.2298 -1.162693,-0.2163 -2.176671,-0.649 l 0,-3.407 q 1.149175,0.5409 2.582262,0.9059 1.446608,0.365 2.541703,0.365 2.24427,0 2.24427,-1.2979 0,-0.4867 -0.297433,-0.7841 -0.297432,-0.311 -1.027498,-0.6895 -0.730063,-0.3921 -1.946836,-0.9058 -1.744041,-0.7301 -2.568742,-1.352 -0.811181,-0.6219 -1.189733,-1.4196 -0.365032,-0.8112 -0.365032,-1.9874 0,-2.0144 1.554765,-3.1095 1.568285,-1.1086 4.434461,-1.1086 2.730978,0 5.313241,1.1897 l -1.243813,2.9744 q -1.135656,-0.4868 -2.122593,-0.7977 -0.986937,-0.3109 -2.014436,-0.3109 -1.825156,0 -1.825156,0.9869 0,0.5543 0.581346,0.9599 0.594866,0.4055 2.582261,1.2032 1.77108,0.7166 2.595783,1.3385 0.8247,0.6219 1.216773,1.4331 0.392069,0.8111 0.392069,1.9333 z"
         style="font-style:normal;font-variant:normal;font-weight:bold;font-stretch:normal;font-size:medium;line-height:125%;font-family:'Open Sans';-inkscape-font-specification:'Open Sans Bold';text-align:start;letter-spacing:0px;word-spacing:0px;writing-mode:lr-tb;text-anchor:start;fill:#696969;fill-opacity:1;stroke:none"
         id="path4155"
         inkscape:connector-curvature="0" />
    </g>
    <text
       xml:space="preserve"
       style="font-style:normal;font-variant:normal;font-weight:800;font-stretch:normal;font-size:13.49790287px;line-height:125%;font-family:'Open Sans';-inkscape-font-specification:'Open Sans Ultra-Bold';text-align:start;letter-spacing:0px;word-spacing:0px;writing-mode:lr-tb;text-anchor:start;fill:#696969;fill-opacity:1;stroke:none;stroke-width:1px;stroke-linecap:butt;stroke-linejoin:miter;stroke-opacity:1"
       x="-0.56680727"
       y="1052.2303"
       id="text4158"
       sodipodi:linespacing="125%"><tspan
         sodipodi:role="line"
         id="tspan4160"
         x="-0.56680727"
         y="1052.2303">discourse</tspan></text>
  </g>
</svg>
