<?xml version="1.0" encoding="UTF-8" standalone="no"?>
<svg
   xmlns:dc="http://purl.org/dc/elements/1.1/"
   xmlns:cc="http://creativecommons.org/ns#"
   xmlns:rdf="http://www.w3.org/1999/02/22-rdf-syntax-ns#"
   xmlns:svg="http://www.w3.org/2000/svg"
   xmlns="http://www.w3.org/2000/svg"
   xmlns:sodipodi="http://sodipodi.sourceforge.net/DTD/sodipodi-0.dtd"
   xmlns:inkscape="http://www.inkscape.org/namespaces/inkscape"
   viewBox="0 0 120 59.998418"
   id="svg2"
   version="1.1"
   inkscape:version="0.48.5 r10040"
   width="100%"
   height="100%"
   sodipodi:docname="Lego_Brick.svg">
  <metadata
     id="metadata28">
    <rdf:RDF>
      <cc:Work
         rdf:about="">
        <dc:format>image/svg+xml</dc:format>
        <dc:type
           rdf:resource="http://purl.org/dc/dcmitype/StillImage" />
      </cc:Work>
    </rdf:RDF>
  </metadata>
  <defs
     id="defs26" />
  <sodipodi:namedview
     pagecolor="#ffffff"
     bordercolor="#666666"
     borderopacity="1"
     objecttolerance="10"
     gridtolerance="10"
     guidetolerance="10"
     inkscape:pageopacity="0"
     inkscape:pageshadow="2"
     inkscape:window-width="1313"
     inkscape:window-height="728"
     id="namedview24"
     showgrid="false"
     inkscape:zoom="6.675088"
     inkscape:cx="51.306425"
     inkscape:cy="30.938403"
     inkscape:window-x="0"
     inkscape:window-y="0"
     inkscape:window-maximized="0"
     inkscape:current-layer="svg2"
     fit-margin-top="0"
     fit-margin-left="0"
     fit-margin-right="0"
     fit-margin-bottom="0" />
  <title
     id="title4">personnage</title>
  <g
     id="g3789"
     transform="matrix(1.5935097,0,0,1.5935097,25.083184,-13.250501)">
    <path
       style="fill-rule:evenodd;stroke:#000000;stroke-width:0.43955433;stroke-linecap:round;stroke-linejoin:round"
       inkscape:connector-curvature="0"
       id="path10"
       d="M 10.664225,38.640686 5.8790664,19.980077 19.426289,23.58534 24.918919,45.659948 10.664225,38.640686 z" />
    <path
       style="fill:#002fa7;fill-opacity:1;fill-rule:evenodd;stroke:#000000;stroke-width:0.99999923;stroke-linecap:round;stroke-linejoin:round"
       inkscape:connector-curvature="0"
       id="path12"
       d="M 24.993457,45.469258 36.78157,35.935004 33.04344,14.345666 19.554373,23.287685 24.993457,45.469258 z" />
    <path
       style="fill:#002fa7;fill-opacity:1;fill-rule:evenodd;stroke:#000000;stroke-width:0.99999923;stroke-linecap:round;stroke-linejoin:round"
       inkscape:connector-curvature="0"
       id="path14"
       d="M 6.0755446,19.965417 19.977476,12.196506 33.073692,14.336405 19.600412,23.555395 6.0755446,19.965417 z" />
    <path
       d="m 17.52591,8.8684014 c -4.752245,0.8172707 -8.4030473,2.6825826 -8.148785,4.1610616 0.01907,0.110886 0.062956,0.213139 0.1235622,0.313256 l 0.8217308,3.886682 c -0.01861,0.104999 0.80177,1.262524 0.888189,1.319141 1.515251,0.99271 3.56076,1.340588 8.313001,0.523318 4.752241,-0.81727 7.982721,-2.520662 7.728458,-3.999141 -0.03019,-0.175571 0.154858,-0.833357 0.02247,-0.981675 l -0.668163,-3.885218 c -4.03e-4,-0.04691 -0.0018,-0.0915 -0.0097,-0.137698 -0.0079,-0.0462 -0.02153,-0.088697 -0.03682,-0.133048 l -0.02095,-0.1218342 -0.02707,0.00466 C 25.856764,8.5341633 21.995425,8.0997537 17.525915,8.8684006 z"
       id="path18"
       inkscape:connector-curvature="0"
       style="fill-rule:evenodd;stroke:#000000;stroke-width:0.34225279;stroke-linecap:round;stroke-linejoin:round" />
    <path
       d="m 25.340526,10.162039 c 0.197947,1.151016 -2.907693,2.645789 -6.936642,3.33867 -4.02895,0.692881 -7.455525,0.321491 -7.653471,-0.829525 -0.197947,-1.151016 2.907693,-2.645789 6.936642,-3.3386702 4.02895,-0.6928813 7.455525,-0.3214905 7.653471,0.8295252 z"
       id="path20"
       inkscape:connector-curvature="0"
       style="fill:#002fa7;fill-opacity:1;fill-rule:evenodd" />
    <path
       d="m 26.32002,11.712361 0.550524,3.201172 c 0,0 -0.107192,1.096327 -4.195556,2.87651 -3.956936,1.722958 -0.679787,-4.174028 -0.821864,-4.041852 0,0 1.991128,-0.215662 4.466896,-2.03583 z"
       id="path22"
       inkscape:connector-curvature="0"
       style="fill:#002fa7;fill-opacity:0.94117647;fill-rule:evenodd;stroke:#000000;stroke-width:0.43955433" />
  </g>
</svg>
