<?xml version="1.0" encoding="UTF-8" standalone="no"?>
<!-- Created with Inkscape (http://www.inkscape.org/) -->

<svg
   xmlns:osb="http://www.openswatchbook.org/uri/2009/osb"
   xmlns:dc="http://purl.org/dc/elements/1.1/"
   xmlns:cc="http://creativecommons.org/ns#"
   xmlns:rdf="http://www.w3.org/1999/02/22-rdf-syntax-ns#"
   xmlns:svg="http://www.w3.org/2000/svg"
   xmlns="http://www.w3.org/2000/svg"
   xmlns:xlink="http://www.w3.org/1999/xlink"
   xmlns:sodipodi="http://sodipodi.sourceforge.net/DTD/sodipodi-0.dtd"
   xmlns:inkscape="http://www.inkscape.org/namespaces/inkscape"
   width="50"
   height="25"
   id="svg2"
   version="1.1"
   inkscape:version="0.91 r13725"
   sodipodi:docname="read_more.svg"
   inkscape:export-filename="/Users/lucacorsato/Documents/osd/website/osdfront/assets/img/osd_simple_200.png"
   inkscape:export-xdpi="320"
   inkscape:export-ydpi="320">
  <defs
     id="defs4">
    <linearGradient
       id="linearGradient4444"
       osb:paint="solid">
      <stop
         style="stop-color:#002fa7;stop-opacity:1;"
         offset="0"
         id="stop4446" />
    </linearGradient>
    <linearGradient
       inkscape:collect="always"
       xlink:href="#linearGradient4444"
       id="linearGradient4448"
       x1="1481.6096"
       y1="393.59521"
       x2="3401.6096"
       y2="393.59521"
       gradientUnits="userSpaceOnUse" />
    <linearGradient
       inkscape:collect="always"
       xlink:href="#linearGradient4444"
       id="linearGradient4452"
       gradientUnits="userSpaceOnUse"
       x1="1481.6096"
       y1="393.59521"
       x2="3401.6096"
       y2="393.59521"
       gradientTransform="translate(-1761.6116,2283.4524)" />
  </defs>
  <sodipodi:namedview
     id="base"
     pagecolor="#ffffff"
     bordercolor="#666666"
     borderopacity="1.0"
     inkscape:pageopacity="0.0"
     inkscape:pageshadow="2"
     inkscape:zoom="5.6568542"
     inkscape:cx="0.68598125"
     inkscape:cy="20.407816"
     inkscape:document-units="px"
     inkscape:current-layer="layer11"
     showgrid="false"
     inkscape:window-width="1440"
     inkscape:window-height="851"
     inkscape:window-x="0"
     inkscape:window-y="0"
     inkscape:window-maximized="1"
     fit-margin-top="0"
     fit-margin-left="0"
     fit-margin-right="0"
     fit-margin-bottom="0" />
  <metadata
     id="metadata7">
    <rdf:RDF>
      <cc:Work
         rdf:about="">
        <dc:format>image/svg+xml</dc:format>
        <dc:type
           rdf:resource="http://purl.org/dc/dcmitype/StillImage" />
        <dc:title></dc:title>
      </cc:Work>
    </rdf:RDF>
  </metadata>
  <g
     inkscape:groupmode="layer"
     id="layer1"
     inkscape:label="sfondo"
     transform="translate(1.9744365e-7,-6.249953)"
     style="display:inline" />
  <g
     inkscape:groupmode="layer"
     id="layer11"
     inkscape:label="logo"
     style="display:inline"
     transform="translate(1.9744365e-7,-1021.1122)">
    <g
       id="g4319"
       transform="matrix(0.8666667,0,0,0.8666667,3.3333319,136.14826)">
      <path
         inkscape:export-ydpi="300"
         inkscape:export-xdpi="300"
         inkscape:export-filename="/Users/lucacorsato/Documents/o{s}d/o{s}d_semplice.png"
         d="m 16.360164,1028.6055 c -3e-6,0.4897 0.07871,0.86 0.236157,1.1107 0.160357,0.2507 0.419857,0.3761 0.778489,0.3761 0.355715,0 0.610846,-0.1239 0.765383,-0.3716 0.157448,-0.2508 0.236175,-0.6225 0.236176,-1.1152 -1e-6,-0.4897 -0.07873,-0.8569 -0.236176,-1.1018 -0.157459,-0.2448 -0.415496,-0.3672 -0.774119,-0.3672 -0.355723,0 -0.6123,0.1224 -0.769753,0.3672 -0.157445,0.242 -0.23616,0.6092 -0.236157,1.1018 m 3.380744,0 c -6e-6,0.8053 -0.209929,1.4351 -0.629787,1.8895 -0.419879,0.4542 -1.004447,0.6813 -1.753796,0.6813 -0.469415,0 -0.88346,-0.1032 -1.242086,-0.3096 -0.35863,-0.2095 -0.634151,-0.5089 -0.826621,-0.8983 -0.192426,-0.3894 -0.288643,-0.8437 -0.288643,-1.3629 0,-0.8082 0.208457,-1.4366 0.625412,-1.8849 0.416956,-0.4484 1.00302,-0.6726 1.758166,-0.6726 0.469445,0 0.883449,0.1033 1.242119,0.3097 0.358622,0.2065 0.634148,0.503 0.826591,0.8895 0.192422,0.3864 0.288639,0.8391 0.288645,1.3583"
         style="font-style:normal;font-variant:normal;font-weight:bold;font-stretch:normal;font-size:28px;line-height:125%;font-family:'Open Sans';-inkscape-font-specification:'Open Sans Bold';text-align:start;letter-spacing:0px;word-spacing:0px;writing-mode:lr-tb;text-anchor:start;display:inline;fill:#1a1a1a;fill-opacity:1;stroke:none"
         id="path4292"
         inkscape:connector-curvature="0" />
      <path
         inkscape:export-ydpi="300"
         inkscape:export-xdpi="300"
         inkscape:export-filename="/Users/lucacorsato/Documents/o{s}d/o{s}d_semplice.png"
         inkscape:connector-curvature="0"
         id="path4296"
         style="font-style:normal;font-variant:normal;font-weight:bold;font-stretch:normal;font-size:28px;line-height:125%;font-family:'Open Sans';-inkscape-font-specification:'Open Sans Bold';text-align:start;letter-spacing:0px;word-spacing:0px;writing-mode:lr-tb;text-anchor:start;display:inline;fill:#1a1a1a;fill-opacity:1;stroke:none"
         d="m 32.275336,1031.1763 c -0.5744,0 -1.02632,-0.2256 -1.355799,-0.6769 -0.326562,-0.4513 -0.489824,-1.0767 -0.489824,-1.8761 0,-0.8112 0.166169,-1.4424 0.49857,-1.8938 0.3353,-0.4543 0.795968,-0.6814 1.382033,-0.6814 0.615197,0 1.084639,0.2418 1.408257,0.7256 l 0.04375,0 c -0.06706,-0.3686 -0.100584,-0.6977 -0.100578,-0.9866 l 0,-1.5842 1.338281,0 0,6.885 -1.023408,0 -0.258045,-0.6415 -0.05683,0 c -0.303252,0.4866 -0.765372,0.7299 -1.38641,0.7299 m 0.467957,-1.0752 c 0.341129,0 0.590422,-0.1002 0.747876,-0.3008 0.160341,-0.2006 0.247809,-0.5413 0.262416,-1.0222 l 0,-0.146 c -4e-6,-0.5309 -0.08164,-0.9114 -0.244932,-1.1416 -0.160362,-0.23 -0.42277,-0.3451 -0.787215,-0.3451 -0.297424,0 -0.529203,0.1283 -0.695394,0.385 -0.163281,0.2537 -0.24492,0.6239 -0.24492,1.1106 -3e-6,0.4867 0.0831,0.8525 0.249288,1.0973 0.166195,0.2419 0.403806,0.3628 0.712877,0.3628" />
      <g
         style="fill:#1a1a1a"
         transform="matrix(0.11870732,0,0,0.11870732,13.148832,915.5403)"
         id="g3781">
        <path
           inkscape:connector-curvature="0"
           id="path4298"
           style="font-style:normal;font-variant:normal;font-weight:normal;font-stretch:normal;font-size:56px;line-height:125%;font-family:'Liberation Serif';-inkscape-font-specification:'Liberation Serif';text-align:start;letter-spacing:0px;word-spacing:0px;writing-mode:lr-tb;text-anchor:start;display:inline;fill:#1a1a1a;fill-opacity:1;stroke:none"
           d="m 90.606059,1015.7074 c -6.189514,-3e-4 -10.954632,-1.9137 -14.294854,-5.7406 -3.29147,-3.827 -4.937073,-9.2191 -4.937045,-16.17702 l 0,-21.99203 c -2.8e-5,-5.81472 -1.301817,-10.1638 -3.905173,-13.04637 -2.554619,-2.93215 -6.533523,-4.49762 -11.937309,-4.69643 l 0,-3.35461 c 10.561775,-0.19923 15.842454,-6.06337 15.842482,-17.59367 l 0,-21.91769 c -2.8e-5,-7.00752 1.596477,-12.39964 4.789472,-16.17703 3.193204,-3.77705 8.007115,-5.66575 14.442427,-5.66575 l 9.947711,0 0,3.50401 -4.568738,0 c -4.470333,0 -7.663245,1.36676 -9.579056,4.1 -1.866616,2.68396 -2.799944,6.65973 -2.799917,11.92791 l 0,24.60111 c -2.7e-5,4.72169 -1.277337,8.79704 -3.831803,12.22634 -2.554327,3.37946 -5.993092,5.54122 -10.316018,6.48584 l 0,0.22351 c 4.372052,1.04347 7.81079,3.25507 10.316018,6.63481 2.554466,3.32962 3.831776,7.40504 3.831803,12.22614 l 0,24.89933 c -2.7e-5,5.2681 0.933301,9.244 2.799917,11.9281 1.915811,2.733 5.108723,4.0998 9.579056,4.0998 l 4.568738,0 0,3.504 -9.947711,0"
           inkscape:export-filename="/Users/lucacorsato/Documents/o{s}d/o{s}d_semplice.png"
           inkscape:export-xdpi="300"
           inkscape:export-ydpi="300" />
        <path
           inkscape:connector-curvature="0"
           id="path4300"
           style="font-style:normal;font-variant:normal;font-weight:normal;font-stretch:normal;font-size:56px;line-height:125%;font-family:'Liberation Serif';-inkscape-font-specification:'Liberation Serif';text-align:start;letter-spacing:0px;word-spacing:0px;writing-mode:lr-tb;text-anchor:start;display:inline;fill:#1a1a1a;fill-opacity:1;stroke:none"
           d="m 100.55377,1015.7074 0,-3.5043 4.5684,0 c 4.47024,0 7.63862,-1.3668 9.50547,-4.0998 1.91567,-2.6841 2.87378,-6.66 2.87381,-11.9281 l 0,-24.89933 c -3e-5,-4.82096 1.25239,-8.89624 3.75791,-12.22614 2.50518,-3.37974 5.96842,-5.59134 10.38961,-6.63481 l 0,-0.22351 c -4.32291,-0.94434 -7.76172,-3.13123 -10.31595,-6.56025 -2.55461,-3.42945 -3.8316,-7.47974 -3.83157,-12.15188 l 0,-24.6011 c -3e-5,-5.26818 -0.95814,-9.24395 -2.87381,-11.92792 -1.86685,-2.73323 -5.03523,-4.1 -9.50547,-4.1 l -4.5684,0 0,-3.50401 10.02108,0 c 6.38609,3e-4 11.17585,1.889 14.36881,5.66604 3.19285,3.7771 4.7893,9.16949 4.78936,16.17674 l 0,21.9177 c -6e-5,11.53024 5.28104,17.39467 15.84251,17.59361 l 0,3.35461 c -5.30534,0.19909 -9.28449,1.73929 -11.93692,4.62201 -2.60375,2.88272 -3.90565,7.25622 -3.90559,13.12079 l 0,21.99203 c -6e-5,6.90832 -1.67015,12.27582 -5.01038,16.10252 -3.29142,3.8766 -8.00717,5.8151 -14.14779,5.8151 l -10.02108,0"
           inkscape:export-filename="/Users/lucacorsato/Documents/o{s}d/o{s}d_semplice.png"
           inkscape:export-xdpi="300"
           inkscape:export-ydpi="300" />
      </g>
      <g
         transform="matrix(0.75000001,0,0,0.75000001,14.999975,251.52808)"
         id="text3777"
         style="font-style:normal;font-variant:normal;font-weight:bold;font-stretch:normal;font-size:11.18723583px;line-height:125%;font-family:'Open Sans';-inkscape-font-specification:'Open Sans Bold';text-align:start;letter-spacing:0px;word-spacing:0px;writing-mode:lr-tb;text-anchor:start;fill:#1a1a1a;fill-opacity:1;stroke:none">
        <path
           id="path4154"
           d="m 15.763183,1037.3549 q 0,0.9396 -0.655503,1.4312 -0.650039,0.4916 -1.950118,0.4916 -0.666427,0 -1.136204,-0.093 -0.469776,-0.087 -0.879465,-0.2622 l 0,-1.3765 q 0.464314,0.2185 1.043341,0.366 0.584489,0.1475 1.026953,0.1475 0.906778,0 0.906778,-0.5244 0,-0.1967 -0.120176,-0.3169 -0.120175,-0.1256 -0.415151,-0.2786 -0.294976,-0.1584 -0.786602,-0.3659 -0.704665,-0.295 -1.037879,-0.5463 -0.327751,-0.2513 -0.480701,-0.5736 -0.147488,-0.3277 -0.147488,-0.8029 0,-0.814 0.628189,-1.2564 0.633652,-0.448 1.791706,-0.448 1.103428,0 2.146769,0.4808 l -0.502551,1.2017 q -0.458852,-0.1966 -0.857616,-0.3223 -0.398763,-0.1256 -0.813915,-0.1256 -0.73744,0 -0.73744,0.3987 0,0.224 0.234889,0.3879 0.24035,0.1639 1.043341,0.4861 0.715589,0.2896 1.048803,0.5408 0.333213,0.2513 0.491627,0.5791 0.158413,0.3277 0.158413,0.7811 z"
           inkscape:connector-curvature="0" />
      </g>
    </g>
    <g
       style="font-style:normal;font-variant:normal;font-weight:normal;font-stretch:normal;font-size:10.90289593px;line-height:125%;font-family:'HelveticaNeueLT Std Med';-inkscape-font-specification:'HelveticaNeueLT Std Med, Normal';text-align:start;letter-spacing:0px;word-spacing:0px;writing-mode:lr-tb;text-anchor:start;fill:#000000;fill-opacity:1;stroke:none;stroke-width:1px;stroke-linecap:butt;stroke-linejoin:miter;stroke-opacity:1"
       id="text4368">
      <path
         d="m 2.2785343,1040.1071 q 0.3673338,0 0.7879045,0.074 l -0.1011499,0.5058 q -0.3620102,-0.091 -0.7506388,-0.091 -0.7399915,0 -1.213799,0.6282 -0.47380745,0.6282 -0.47380745,1.5864 l 0,3.1942 -0.52704428981861,0 0,-5.7868 0.44718908981861,0 0.0532368,1.0434 0.0372658,0 q 0.35668653,-0.6388 0.76128619,-0.8943 0.4045996,-0.2609 0.9795571,-0.2609 z"
         style="font-style:normal;font-variant:normal;font-weight:300;font-stretch:normal;font-family:'Open Sans';-inkscape-font-specification:'Open Sans Light'"
         id="path4392" />
      <path
         d="m 6.5747437,1046.1122 q -1.2617121,0 -1.9697615,-0.7772 -0.7027257,-0.7773 -0.7027257,-2.1774 0,-1.3842 0.681431,-2.2147 0.681431,-0.8358 1.8366695,-0.8358 1.0221465,0 1.6130749,0.7134 0.5909285,0.7133 0.5909285,1.9378 l 0,0.4259 -4.1684412,0 q 0.010647,1.1925 0.5536627,1.8207 0.548339,0.6282 1.5651618,0.6282 0.4951022,0 0.8677598,-0.069 0.3779812,-0.069 0.9529386,-0.2982 l 0,0.4792 q -0.4897785,0.2129 -0.9050255,0.2875 -0.415247,0.08 -0.9156729,0.08 z m -0.1543867,-5.5366 q -0.8358177,0 -1.3415673,0.5536 -0.5057496,0.5484 -0.5909284,1.5865 l 3.5775127,0 q 0,-1.0062 -0.4365417,-1.5705 -0.4365418,-0.5696 -1.2084753,-0.5696 z"
         style="font-style:normal;font-variant:normal;font-weight:300;font-stretch:normal;font-family:'Open Sans';-inkscape-font-specification:'Open Sans Light'"
         id="path4394" />
      <path
         d="m 13.756388,1046.0057 -0.133092,-0.9156 -0.04259,0 q -0.436542,0.559 -0.899702,0.7932 -0.457836,0.2289 -1.08603,0.2289 -0.851789,0 -1.325597,-0.4365 -0.473807,-0.4366 -0.473807,-1.2085 0,-0.8465 0.702726,-1.315 0.708049,-0.4684 2.044293,-0.4951 l 1.102001,-0.032 0,-0.3833 q 0,-0.8252 -0.335391,-1.2457 -0.335392,-0.4206 -1.080707,-0.4206 -0.803876,0 -1.666312,0.4472 l -0.196976,-0.4579 q 0.952938,-0.4472 1.884582,-0.4472 0.952939,0 1.421423,0.4951 0.473807,0.4952 0.473807,1.5439 l 0,3.849 -0.388628,0 z m -2.129472,-0.3726 q 0.92632,0 1.458688,-0.5271 0.537692,-0.5323 0.537692,-1.4746 l 0,-0.5697 -1.011499,0.043 q -1.219123,0.059 -1.740844,0.3833 -0.516397,0.3195 -0.516397,1.0009 0,0.543 0.330068,0.8465 0.335392,0.2981 0.942292,0.2981 z"
         style="font-style:normal;font-variant:normal;font-weight:300;font-stretch:normal;font-family:'Open Sans';-inkscape-font-specification:'Open Sans Light'"
         id="path4396" />
      <path
         d="m 18.132452,1040.1071 q 0.628194,0 1.086031,0.2289 0.457836,0.2289 0.819846,0.7826 l 0.03194,0 q -0.03194,-0.6708 -0.03194,-1.3149 l 0,-2.0816 0.521721,0 0,8.2836 -0.346039,0 -0.133092,-0.8837 -0.04259,0 q -0.660136,0.9902 -1.89523,0.9902 -1.197828,0 -1.831346,-0.7453 -0.633517,-0.7453 -0.633517,-2.1721 0,-1.5012 0.628194,-2.2945 0.628194,-0.7932 1.826022,-0.7932 z m 0,0.4791 q -0.947615,0 -1.426746,0.6655 -0.473808,0.6655 -0.473808,1.9325 0,2.4595 1.911201,2.4595 0.979557,0 1.437394,-0.5696 0.457836,-0.5696 0.457836,-1.8793 l 0,-0.091 q 0,-1.3415 -0.452513,-1.9271 -0.447189,-0.591 -1.453364,-0.591 z"
         style="font-style:normal;font-variant:normal;font-weight:300;font-stretch:normal;font-family:'Open Sans';-inkscape-font-specification:'Open Sans Light'"
         id="path4398" />
      <path
         d="m 32.570272,1046.0057 0,-3.7957 q 0,-0.8465 -0.330068,-1.2351 -0.330069,-0.3887 -1.0115,-0.3887 -0.889054,0 -1.314948,0.4898 -0.425895,0.4898 -0.425895,1.5386 l 0,3.3911 -0.537691,0 0,-3.9555 q 0,-1.464 -1.341568,-1.464 -0.910349,0 -1.325596,0.5324 -0.415247,0.527 -0.415247,1.6929 l 0,3.1942 -0.527044,0 0,-5.7868 0.436541,0 0.111798,0.7932 0.03194,0 q 0.239565,-0.4312 0.681431,-0.6654 0.441865,-0.2396 0.974233,-0.2396 1.368186,0 1.756815,1.0275 l 0.02129,0 q 0.282155,-0.4951 0.755963,-0.7613 0.479131,-0.2662 1.08603,-0.2662 0.947615,0 1.421423,0.5057 0.473807,0.5058 0.473807,1.6078 l 0,3.7851 -0.52172,0 z"
         style="font-style:normal;font-variant:normal;font-weight:300;font-stretch:normal;font-family:'Open Sans';-inkscape-font-specification:'Open Sans Light'"
         id="path4400" />
      <path
         d="m 39.751914,1043.1043 q 0,1.4161 -0.686754,2.2147 -0.686755,0.7932 -1.89523,0.7932 -0.761286,0 -1.341567,-0.3673 -0.580281,-0.3674 -0.889055,-1.0541 -0.308773,-0.6868 -0.308773,-1.5865 0,-1.4161 0.686754,-2.204 0.686755,-0.7932 1.884583,-0.7932 1.192504,0 1.868611,0.8039 0.681431,0.7985 0.681431,2.1933 z m -4.567717,0 q 0,1.1925 0.521721,1.8633 0.527044,0.6655 1.485307,0.6655 0.958262,0 1.479983,-0.6655 0.527044,-0.6708 0.527044,-1.8633 0,-1.1978 -0.532368,-1.8579 -0.527044,-0.6602 -1.485307,-0.6602 -0.958262,0 -1.479983,0.6602 -0.516397,0.6548 -0.516397,1.8579 z"
         style="font-style:normal;font-variant:normal;font-weight:300;font-stretch:normal;font-family:'Open Sans';-inkscape-font-specification:'Open Sans Light'"
         id="path4402" />
      <path
         d="m 43.654171,1040.1071 q 0.367334,0 0.787905,0.074 l -0.10115,0.5058 q -0.36201,-0.091 -0.750639,-0.091 -0.739991,0 -1.213799,0.6282 -0.473807,0.6282 -0.473807,1.5864 l 0,3.1942 -0.527045,0 0,-5.7868 0.44719,0 0.05324,1.0434 0.03727,0 q 0.356687,-0.6388 0.761286,-0.8943 0.4046,-0.2609 0.979557,-0.2609 z"
         style="font-style:normal;font-variant:normal;font-weight:300;font-stretch:normal;font-family:'Open Sans';-inkscape-font-specification:'Open Sans Light'"
         id="path4404" />
      <path
         d="m 47.950384,1046.1122 q -1.261712,0 -1.969762,-0.7772 -0.702726,-0.7773 -0.702726,-2.1774 0,-1.3842 0.681431,-2.2147 0.681431,-0.8358 1.83667,-0.8358 1.022146,0 1.613075,0.7134 Q 50,1041.5338 50,1042.7583 l 0,0.4259 -4.168441,0 q 0.01065,1.1925 0.553663,1.8207 0.548339,0.6282 1.565162,0.6282 0.495102,0 0.867759,-0.069 0.377982,-0.069 0.952939,-0.2982 l 0,0.4792 q -0.489778,0.2129 -0.905025,0.2875 -0.415248,0.08 -0.915673,0.08 z m -0.154387,-5.5366 q -0.835818,0 -1.341567,0.5536 -0.50575,0.5484 -0.590929,1.5865 l 3.577513,0 q 0,-1.0062 -0.436542,-1.5705 -0.436542,-0.5696 -1.208475,-0.5696 z"
         style="font-style:normal;font-variant:normal;font-weight:300;font-stretch:normal;font-family:'Open Sans';-inkscape-font-specification:'Open Sans Light'"
         id="path4406" />
    </g>
  </g>
</svg>
