<?xml version="1.0" encoding="UTF-8" standalone="no"?>
<!-- Generator: Adobe Illustrator 16.0.4, SVG Export Plug-In . SVG Version: 6.00 Build 0)  -->

<svg
   xmlns:dc="http://purl.org/dc/elements/1.1/"
   xmlns:cc="http://creativecommons.org/ns#"
   xmlns:rdf="http://www.w3.org/1999/02/22-rdf-syntax-ns#"
   xmlns:svg="http://www.w3.org/2000/svg"
   xmlns="http://www.w3.org/2000/svg"
   xmlns:sodipodi="http://sodipodi.sourceforge.net/DTD/sodipodi-0.dtd"
   xmlns:inkscape="http://www.inkscape.org/namespaces/inkscape"
   version="1.1"
   id="Capa_1"
   x="0px"
   y="0px"
   width="40"
   height="33.333652"
   viewBox="0 0 40 33.333652"
   enable-background="new 0 0 216 146"
   xml:space="preserve"
   inkscape:version="0.91 r13725"
   sodipodi:docname="reorder.svg"><metadata
     id="metadata15"><rdf:RDF><cc:Work
         rdf:about=""><dc:format>image/svg+xml</dc:format><dc:type
           rdf:resource="http://purl.org/dc/dcmitype/StillImage" /><dc:title></dc:title></cc:Work></rdf:RDF></metadata><defs
     id="defs13" /><sodipodi:namedview
     pagecolor="#ffffff"
     bordercolor="#666666"
     borderopacity="1"
     objecttolerance="10"
     gridtolerance="10"
     guidetolerance="10"
     inkscape:pageopacity="0"
     inkscape:pageshadow="2"
     inkscape:window-width="1327"
     inkscape:window-height="805"
     id="namedview11"
     showgrid="false"
     fit-margin-top="0"
     fit-margin-left="0"
     fit-margin-right="0"
     fit-margin-bottom="0"
     inkscape:zoom="1.6164384"
     inkscape:cx="62.572"
     inkscape:cy="52.142999"
     inkscape:window-x="0"
     inkscape:window-y="0"
     inkscape:window-maximized="0"
     inkscape:current-layer="Capa_1" /><g
     id="g3"
     transform="matrix(0.31963689,0,0,0.31963689,-14.520465,-6.6666666)"><path
       d="m 165.357,104.285 -114.714,0 c -1.413,0 -2.635,0.517 -3.667,1.549 -1.032,1.031 -1.548,2.254 -1.548,3.666 l 0,10.429 c 0,1.412 0.516,2.634 1.548,3.666 1.033,1.032 2.255,1.548 3.667,1.548 l 114.714,0 c 1.412,0 2.634,-0.516 3.666,-1.548 1.031,-1.032 1.547,-2.254 1.547,-3.666 l 0,-10.429 c 0,-1.412 -0.514,-2.635 -1.547,-3.666 -1.032,-1.032 -2.253,-1.549 -3.666,-1.549 z"
       id="path5"
       inkscape:connector-curvature="0" /><path
       d="m 169.023,22.405 c -1.032,-1.032 -2.254,-1.548 -3.666,-1.548 l -114.714,0 c -1.413,0 -2.635,0.516 -3.667,1.548 -1.032,1.032 -1.548,2.254 -1.548,3.666 l 0,10.429 c 0,1.412 0.516,2.634 1.548,3.666 1.033,1.032 2.255,1.548 3.667,1.548 l 114.714,0 c 1.412,0 2.634,-0.516 3.666,-1.548 1.031,-1.032 1.547,-2.254 1.547,-3.666 l 0,-10.429 c 0,-1.412 -0.515,-2.634 -1.547,-3.666 z"
       id="path7"
       inkscape:connector-curvature="0" /><path
       d="m 165.357,62.571 -114.714,0 c -1.413,0 -2.635,0.516 -3.667,1.548 -1.032,1.032 -1.548,2.254 -1.548,3.666 l 0,10.429 c 0,1.412 0.516,2.636 1.548,3.667 1.033,1.031 2.255,1.548 3.667,1.548 l 114.714,0 c 1.412,0 2.634,-0.517 3.666,-1.548 1.031,-1.031 1.547,-2.255 1.547,-3.667 l 0,-10.429 c 0,-1.412 -0.516,-2.634 -1.547,-3.666 -1.032,-1.032 -2.253,-1.548 -3.666,-1.548 z"
       id="path9"
       inkscape:connector-curvature="0" /></g></svg>