<?xml version="1.0" encoding="UTF-8" standalone="no"?>
<!-- Created with Inkscape (http://www.inkscape.org/) -->

<svg
   xmlns:osb="http://www.openswatchbook.org/uri/2009/osb"
   xmlns:dc="http://purl.org/dc/elements/1.1/"
   xmlns:cc="http://creativecommons.org/ns#"
   xmlns:rdf="http://www.w3.org/1999/02/22-rdf-syntax-ns#"
   xmlns:svg="http://www.w3.org/2000/svg"
   xmlns="http://www.w3.org/2000/svg"
   xmlns:xlink="http://www.w3.org/1999/xlink"
   xmlns:sodipodi="http://sodipodi.sourceforge.net/DTD/sodipodi-0.dtd"
   xmlns:inkscape="http://www.inkscape.org/namespaces/inkscape"
   width="1200"
   height="630"
   id="svg2"
   version="1.1"
   inkscape:version="0.91 r13725"
   sodipodi:docname="osd_wall.svg"
   inkscape:export-filename="/Users/lucacorsato/Documents/lavori/DISALVO.png"
   inkscape:export-xdpi="320"
   inkscape:export-ydpi="320">
  <defs
     id="defs4">
    <linearGradient
       id="linearGradient4444"
       osb:paint="solid">
      <stop
         style="stop-color:#002fa7;stop-opacity:1;"
         offset="0"
         id="stop4446" />
    </linearGradient>
    <linearGradient
       inkscape:collect="always"
       xlink:href="#linearGradient4444"
       id="linearGradient4448"
       x1="1481.6096"
       y1="393.59521"
       x2="3401.6096"
       y2="393.59521"
       gradientUnits="userSpaceOnUse" />
    <linearGradient
       inkscape:collect="always"
       xlink:href="#linearGradient4444"
       id="linearGradient4452"
       gradientUnits="userSpaceOnUse"
       x1="1481.6096"
       y1="393.59521"
       x2="3401.6096"
       y2="393.59521"
       gradientTransform="translate(-1761.6116,2283.4524)" />
  </defs>
  <sodipodi:namedview
     id="base"
     pagecolor="#ffffff"
     bordercolor="#666666"
     borderopacity="1.0"
     inkscape:pageopacity="0.0"
     inkscape:pageshadow="2"
     inkscape:zoom="0.43266778"
     inkscape:cx="712.53249"
     inkscape:cy="358.36941"
     inkscape:document-units="px"
     inkscape:current-layer="layer11"
     showgrid="false"
     inkscape:window-width="1440"
     inkscape:window-height="851"
     inkscape:window-x="18"
     inkscape:window-y="0"
     inkscape:window-maximized="0"
     fit-margin-top="0"
     fit-margin-left="0"
     fit-margin-right="0"
     fit-margin-bottom="0" />
  <metadata
     id="metadata7">
    <rdf:RDF>
      <cc:Work
         rdf:about="">
        <dc:format>image/svg+xml</dc:format>
        <dc:type
           rdf:resource="http://purl.org/dc/dcmitype/StillImage" />
        <dc:title></dc:title>
      </cc:Work>
    </rdf:RDF>
  </metadata>
  <g
     inkscape:groupmode="layer"
     id="layer1"
     inkscape:label="sfondo"
     transform="translate(206.58656,304.30253)"
     style="display:inline" />
  <g
     inkscape:groupmode="layer"
     id="layer11"
     inkscape:label="logo"
     style="display:inline"
     transform="translate(206.58656,-710.55967)">
    <text
       xml:space="preserve"
       style="font-style:normal;font-variant:normal;font-weight:normal;font-stretch:normal;font-size:180px;line-height:125%;font-family:Griffo;-inkscape-font-specification:Griffo;text-align:start;letter-spacing:0px;word-spacing:0px;writing-mode:lr-tb;text-anchor:start;fill:#000000;fill-opacity:1;stroke:none;stroke-width:1px;stroke-linecap:butt;stroke-linejoin:miter;stroke-opacity:1"
       x="-368.75"
       y="910.95593"
       id="text4157"
       sodipodi:linespacing="125%"><tspan
         sodipodi:role="line"
         id="tspan4159"
         x="-368.75"
         y="910.95593"
         style="font-style:normal;font-variant:normal;font-weight:bold;font-stretch:normal;font-family:'Open Sans';-inkscape-font-specification:'Open Sans Bold'" /></text>
    <g
       id="g4297"
       transform="matrix(0.51136356,0,0,0.51136356,58.85786,645.04629)">
      <rect
         ry="0"
         y="919.04675"
         x="613.1452"
         height="100"
         width="100"
         id="rect2995"
         style="display:inline;opacity:0.5;fill:none;fill-opacity:1;fill-rule:evenodd;stroke:none" />
      <g
         transform="translate(-168.52302,0)"
         id="g4246">
        <path
           inkscape:connector-curvature="0"
           id="path4204"
           style="font-style:normal;font-variant:normal;font-weight:bold;font-stretch:normal;font-size:medium;line-height:125%;font-family:'Open Sans';-inkscape-font-specification:'Open Sans Bold';text-align:start;letter-spacing:0px;word-spacing:0px;writing-mode:tb-rl;text-anchor:start;fill:#ea5480;fill-opacity:1;stroke:none;stroke-width:1px;stroke-linecap:butt;stroke-linejoin:miter;stroke-opacity:1"
           d="m 205.65231,885.31046 q -17.94172,0 -28.14208,-13.0237 l -1.4572,0 q 1.4572,12.7504 1.4572,14.7541 l 0,41.25692 -27.77778,0 0,-146.63042 22.58652,0 3.91621,13.2059 1.27505,0 q 9.74499,-15.1184 28.87067,-15.1184 18.03279,0 28.23315,13.9344 10.20037,13.9344 10.20037,38.7067 0,16.3024 -4.82696,28.3243 -4.73588,12.0219 -13.57013,18.306 -8.83424,6.2842 -20.76502,6.2842 z m -8.19673,-83.3334 q -10.29144,0 -15.02732,6.3752 -4.73588,6.2842 -4.91803,20.8561 l 0,3.0055 q 0,16.3934 4.82696,23.4973 4.91803,7.1038 15.48269,7.1038 18.67031,0 18.67031,-30.7833 0,-15.0273 -4.64481,-22.4954 -4.55373,-7.5592 -14.3898,-7.5592 z" />
        <path
           inkscape:connector-curvature="0"
           id="path4206"
           style="font-style:normal;font-variant:normal;font-weight:bold;font-stretch:normal;font-size:medium;line-height:125%;font-family:'Open Sans';-inkscape-font-specification:'Open Sans Bold';text-align:start;letter-spacing:0px;word-spacing:0px;writing-mode:tb-rl;text-anchor:start;fill:#ea5480;fill-opacity:1;stroke:none;stroke-width:1px;stroke-linecap:butt;stroke-linejoin:miter;stroke-opacity:1"
           d="m 104.28619,966.06098 q -8.83425,0 -13.84336,5.6466 -5.0091,5.5556 -5.7377,15.847 l 38.97996,0 q -0.18215,-10.2914 -5.3734,-15.847 -5.19126,-5.6466 -14.0255,-5.6466 z m 3.91621,85.79242 q -24.59017,0 -38.43352,-13.5702 -13.84335,-13.5701 -13.84335,-38.43352 0,-25.592 12.75046,-39.5264 12.84153,-14.0255 35.42805,-14.0255 21.5847,0 33.60655,12.2951 12.02186,12.2951 12.02186,33.9708 l 0,13.47912 -65.66484,0 q 0.45537,11.8397 7.01275,18.4882 6.55737,6.6484 18.39708,6.6484 9.19855,0 17.39527,-1.9126 8.19672,-1.9125 17.12204,-6.102 l 0,21.4937 q -7.28598,3.643 -15.57377,5.3734 -8.2878,1.8215 -20.21858,1.8215 z" />
        <path
           inkscape:connector-curvature="0"
           id="path4208"
           style="font-style:normal;font-variant:normal;font-weight:bold;font-stretch:normal;font-size:medium;line-height:125%;font-family:'Open Sans';-inkscape-font-specification:'Open Sans Bold';text-align:start;letter-spacing:0px;word-spacing:0px;writing-mode:tb-rl;text-anchor:start;fill:#ea5480;fill-opacity:1;stroke:none;stroke-width:1px;stroke-linecap:butt;stroke-linejoin:miter;stroke-opacity:1"
           d="m 55.92553,1175.5874 -27.77777,0 0,-59.4717 q 0,-11.0201 -3.91622,-16.4846 -3.91621,-5.5555 -12.47723,-5.5555 -11.65756,0 -16.84881,7.8324 -5.19126,7.7414 -5.19126,25.7741 l 0,47.9053 -27.77778,0 0,-101.8215 21.2204,0 3.73406,13.0237 1.54827,0 q 4.64481,-7.377 12.75046,-11.1111 8.19672,-3.8251 18.57923,-3.8251 17.75957,0 26.95811,9.6539 9.19854,9.5628 9.19854,27.6867 l 0,66.3934 z" />
      </g>
      <path
         inkscape:export-ydpi="300"
         inkscape:export-xdpi="300"
         inkscape:export-filename="/Users/lucacorsato/Documents/o{s}d/o{s}d_semplice.png"
         d="m 144.3007,631.21446 c -1.6e-4,24.4861 3.93557,42.99625 11.8078,55.5331 8.01784,12.53505 20.99279,18.8043 38.92437,18.8043 17.78568,0 30.5422,-6.1951 38.26904,-18.5827 7.87238,-12.5384 11.80869,-31.12195 11.80877,-55.7547 -8e-5,-24.4844 -3.93639,-42.84625 -11.80877,-55.08805 -7.87296,-12.2415 -20.77477,-18.3642 -38.70584,-18.3642 -17.78611,0 -30.61494,6.1227 -38.48757,18.3642 -7.87223,12.0943 -11.80796,30.45615 -11.8078,55.08805 m 169.03674,0 c -3.2e-4,40.26535 -10.49639,71.7557 -31.48928,94.4701 -20.99386,22.71525 -50.22221,34.0703 -87.68956,34.0703 -23.47069,0 -44.17289,-5.16 -62.10414,-15.4851 -17.93147,-10.4743 -31.70746,-25.44275 -41.33092,-44.913 -9.62132,-19.4685 -14.43214,-42.18285 -14.43214,-68.1423 0,-40.41125 10.42284,-71.8281 31.27051,-94.24835 20.84774,-22.4189 50.15087,-33.62885 87.90808,-33.62885 23.47218,0 44.17233,5.16185 62.10579,15.48705 17.93107,10.32535 31.70731,25.1475 41.32945,44.4706 9.62107,19.3216 14.43189,41.9609 14.43221,67.91955"
         style="font-style:normal;font-variant:normal;font-weight:bold;font-stretch:normal;font-size:28px;line-height:125%;font-family:'Open Sans';-inkscape-font-specification:'Open Sans Bold';text-align:start;letter-spacing:0px;word-spacing:0px;writing-mode:lr-tb;text-anchor:start;display:inline;fill:#ea5480;fill-opacity:1;stroke:none"
         id="path4292"
         inkscape:connector-curvature="0" />
      <path
         inkscape:export-ydpi="300"
         inkscape:export-xdpi="300"
         inkscape:export-filename="/Users/lucacorsato/Documents/o{s}d/o{s}d_semplice.png"
         d="m 521.51325,1006.5466 c -36.73694,0 -65.01959,-11.35844 -84.84498,-34.07244 -19.53603,-22.71463 -29.30326,-54.71864 -29.30309,-96.01634 l 0,-130.53041 c -1.7e-4,-34.51241 -7.72674,-60.32572 -23.17858,-77.43479 -15.16256,-17.40334 -38.77875,-26.69495 -70.85211,-27.87496 l 0,-19.91079 c 62.68784,-1.1825 94.03052,-35.98823 94.03069,-104.4246 l 0,-130.08919 c -1.7e-4,-41.59209 9.47565,-73.59621 28.42719,-96.01635 18.95279,-22.41812 47.52504,-33.62821 85.72088,-33.62821 l 59.04315,0 0,20.79753 -27.11706,0 c -26.53299,0 -45.48405,8.1122 -56.85506,24.33494 -11.07902,15.93024 -16.61865,39.52783 -16.61849,70.79633 l 0,146.01622 c -1.6e-4,28.02489 -7.58144,52.21352 -22.74309,72.56762 -15.16083,20.05828 -35.57111,32.88909 -61.22919,38.49574 l 0,1.32661 c 25.94966,6.19336 46.35978,19.31998 61.22919,39.37992 15.16165,19.76247 22.74293,43.95152 22.74309,72.56644 l 0,147.78626 c -1.6e-4,31.26802 5.53947,54.86638 16.61849,70.79746 11.37101,16.22127 30.32207,24.33377 56.85506,24.33377 l 27.11706,0 0,20.79754 -59.04315,0"
         style="font-style:normal;font-variant:normal;font-weight:normal;font-stretch:normal;font-size:56px;line-height:125%;font-family:'Liberation Serif';-inkscape-font-specification:'Liberation Serif';text-align:start;letter-spacing:0px;word-spacing:0px;writing-mode:lr-tb;text-anchor:start;display:inline;fill:#ea5480;fill-opacity:1;stroke:none"
         id="path4298"
         inkscape:connector-curvature="0" />
      <g
         transform="translate(161.9609,0)"
         id="g4251">
        <path
           inkscape:connector-curvature="0"
           id="path4213"
           style="font-style:normal;font-variant:normal;font-weight:bold;font-stretch:normal;font-size:medium;line-height:125%;font-family:'Open Sans';-inkscape-font-specification:'Open Sans Bold';text-align:start;letter-spacing:0px;word-spacing:0px;writing-mode:tb-rl;text-anchor:start;fill:#002fa7;fill-opacity:1;stroke:none;stroke-width:1px;stroke-linecap:butt;stroke-linejoin:miter;stroke-opacity:1"
           d="m 1163.0621,888.94232 -5.646,-14.54541 -0.7655,0 q -7.3684,9.2823 -15.2153,12.91871 -7.7512,3.5406 -20.2871,3.5406 -15.4067,0 -24.3062,-8.80381 -8.8039,-8.80382 -8.8039,-25.07177 0,-17.03349 11.8661,-25.07177 11.9617,-8.13397 35.9808,-8.99521 l 18.5646,-0.57417 0,-4.68899 q 0,-16.26794 -16.6507,-16.26794 -12.823,0 -30.1435,7.75119 l -9.6651,-19.71292 q 18.4689,-9.66507 40.9569,-9.66507 21.5311,0 33.0144,9.37799 11.4832,9.37799 11.4832,28.51675 l 0,71.29182 -20.3827,0 z m -8.6125,-49.56933 -11.2918,0.38277 q -12.7273,0.38278 -18.9474,4.5933 -6.2201,4.21053 -6.2201,12.82297 0,12.3445 14.1627,12.3445 10.1435,0 16.1722,-5.83732 6.1244,-5.83732 6.1244,-15.50239 l 0,-8.80383 z" />
        <path
           inkscape:connector-curvature="0"
           id="path4215"
           style="font-style:normal;font-variant:normal;font-weight:bold;font-stretch:normal;font-size:medium;line-height:125%;font-family:'Open Sans';-inkscape-font-specification:'Open Sans Bold';text-align:start;letter-spacing:0px;word-spacing:0px;writing-mode:tb-rl;text-anchor:start;fill:#002fa7;fill-opacity:1;stroke:none;stroke-width:1px;stroke-linecap:butt;stroke-linejoin:miter;stroke-opacity:1"
           d="m 1239.33,1019.2773 q 7.6555,0 18.3732,-3.3493 l 0,21.7225 q -10.9091,4.8804 -26.7943,4.8804 -17.5119,0 -25.5502,-8.8039 -7.9426,-8.8995 -7.9426,-26.6028 l 0,-51.57898 -13.9713,0 0,-12.3445 16.0766,-9.7607 8.421,-22.5838 18.6603,0 0,22.7752 29.9522,0 0,21.9138 -29.9522,0 0,51.57898 q 0,6.2201 3.445,9.1866 3.5407,2.9665 9.2823,2.9665 z" />
        <path
           inkscape:connector-curvature="0"
           id="path4217"
           style="font-style:normal;font-variant:normal;font-weight:bold;font-stretch:normal;font-size:medium;line-height:125%;font-family:'Open Sans';-inkscape-font-specification:'Open Sans Bold';text-align:start;letter-spacing:0px;word-spacing:0px;writing-mode:tb-rl;text-anchor:start;fill:#002fa7;fill-opacity:1;stroke:none;stroke-width:1px;stroke-linecap:butt;stroke-linejoin:miter;stroke-opacity:1"
           d="m 1332.7272,1173.6736 -5.646,-14.5455 -0.7655,0 q -7.3684,9.2823 -15.2153,12.9187 -7.7512,3.5406 -20.2871,3.5406 -15.4067,0 -24.3062,-8.8038 -8.8039,-8.8038 -8.8039,-25.0718 0,-17.0335 11.8661,-25.0717 11.9617,-8.134 35.9808,-8.9953 l 18.5646,-0.5741 0,-4.689 q 0,-16.268 -16.6507,-16.268 -12.823,0 -30.1435,7.7512 l -9.6651,-19.7129 q 18.4689,-9.6651 40.9569,-9.6651 21.5311,0 33.0144,9.378 11.4832,9.378 11.4832,28.5168 l 0,71.2919 -20.3827,0 z m -8.6125,-49.5694 -11.2918,0.3827 q -12.7273,0.3828 -18.9474,4.5934 -6.2201,4.2105 -6.2201,12.8229 0,12.3445 14.1627,12.3445 10.1435,0 16.1722,-5.8373 6.1244,-5.8373 6.1244,-15.5024 l 0,-8.8038 z" />
      </g>
      <path
         inkscape:export-ydpi="300"
         inkscape:export-xdpi="300"
         inkscape:export-filename="/Users/lucacorsato/Documents/o{s}d/o{s}d_semplice.png"
         inkscape:connector-curvature="0"
         id="path4296"
         style="font-style:normal;font-variant:normal;font-weight:bold;font-stretch:normal;font-size:28px;line-height:125%;font-family:'Open Sans';-inkscape-font-specification:'Open Sans Bold';text-align:start;letter-spacing:0px;word-spacing:0px;writing-mode:lr-tb;text-anchor:start;display:inline;fill:#002fa7;fill-opacity:1;stroke:none"
         d="m 1113.7649,759.75576 c -28.72,0 -51.3159,-11.2833 -67.7898,-33.8491 -16.3281,-22.5657 -24.4911,-53.83395 -24.4911,-93.8047 0,-40.5599 8.3084,-72.1233 24.9284,-94.6882 16.7649,-22.71485 39.7982,-34.0721 69.1014,-34.0721 30.7598,0 54.2319,12.09475 70.4127,36.2829 l 2.1875,0 c -3.3532,-18.43585 -5.0292,-34.8824 -5.0289,-49.33505 l 0,-79.20455 66.9139,0 0,344.24745 -51.1703,0 -12.9022,-32.079 -2.8414,0 c -15.1625,24.33495 -38.2684,36.50235 -69.3202,36.50235 m 23.3977,-53.7598 c 17.0564,0 29.521,-5.01505 37.3937,-15.0425 8.017,-10.0308 12.3904,-27.0674 13.1208,-51.1082 l 0,-7.3008 c -2e-4,-26.5474 -4.0821,-45.5732 -12.2466,-57.0798 -8.018,-11.50265 -21.1384,-17.2568 -39.3607,-17.2568 -14.8711,0 -26.46,6.41665 -34.7695,19.2493 -8.1641,12.68405 -12.246,31.19405 -12.246,55.529 -10e-5,24.3374 4.1551,42.62565 12.4644,54.86815 8.3097,12.09495 20.1902,18.14165 35.6437,18.14165" />
      <path
         inkscape:export-ydpi="300"
         inkscape:export-xdpi="300"
         inkscape:export-filename="/Users/lucacorsato/Documents/o{s}d/o{s}d_semplice.png"
         d="m 754.264,1006.5466 0,-20.79924 27.11506,0 c 26.53245,0 45.33789,-8.1125 56.4183,-24.33377 11.37018,-15.93108 17.0569,-39.52944 17.05707,-70.79746 l 0,-147.78626 c -1.7e-4,-28.61409 7.43338,-52.80231 22.30452,-72.56644 14.86912,-20.05994 35.42467,-33.18656 61.66598,-39.37992 l 0,-1.32661 c -25.65799,-5.60499 -46.06853,-18.58495 -61.22878,-38.93739 -15.16251,-20.35499 -22.74189,-44.39488 -22.74172,-72.12567 l 0,-146.01617 c -1.7e-4,-31.26849 -5.68689,-54.86608 -17.05707,-70.79639 -11.08041,-16.22268 -29.88585,-24.33494 -56.4183,-24.33494 l -27.11506,0 0,-20.79753 59.47863,0 c 37.90369,0.002 66.33259,11.21188 85.28393,33.62994 18.95069,22.41841 28.42618,54.42414 28.42653,96.01463 l 0,130.08924 c -3.5e-4,68.43602 31.34483,103.24347 94.03091,104.42425 l 0,19.91079 c -31.4891,1.18167 -55.10675,10.3233 -70.84986,27.43325 -15.45417,17.10996 -23.1814,43.06822 -23.18105,77.8765 l 0,130.53041 c -3.5e-4,41.00331 -9.91292,72.86131 -29.73836,95.57414 -19.53573,23.009 -47.52536,34.51464 -83.9721,34.51464 l -59.47863,0"
         style="font-style:normal;font-variant:normal;font-weight:normal;font-stretch:normal;font-size:56px;line-height:125%;font-family:'Liberation Serif';-inkscape-font-specification:'Liberation Serif';text-align:start;letter-spacing:0px;word-spacing:0px;writing-mode:lr-tb;text-anchor:start;display:inline;fill:#002fa7;fill-opacity:1;stroke:none"
         id="path4300"
         inkscape:connector-curvature="0" />
      <g
         id="text4184"
         style="font-style:normal;font-variant:normal;font-weight:800;font-stretch:normal;font-size:72.43147278px;line-height:125%;font-family:'Open Sans';-inkscape-font-specification:'Open Sans Ultra-Bold';text-align:start;letter-spacing:-38.16008377px;word-spacing:0px;writing-mode:tb-rl;text-anchor:start;fill:#696969;fill-opacity:1;stroke:none;stroke-width:1px;stroke-linecap:butt;stroke-linejoin:miter;stroke-opacity:1">
        <path
           id="path4284"
           style="letter-spacing:-38.16008377px"
           d="m 683.76762,176.14101 q 0,6.43678 -4.3855,9.7259 -4.3855,3.28913 -12.59062,3.28913 -4.45624,0 -7.74536,-0.49514 -3.28913,-0.45977 -6.71972,-1.73298 l 0,-11.06985 q 3.21839,1.41468 7.03802,2.33422 3.855,0.91954 6.86119,0.91954 4.4916,0 4.4916,-2.05128 0,-1.06101 -1.27321,-1.87445 -1.23785,-0.84881 -7.28559,-3.25376 -5.51724,-2.26348 -7.70999,-5.1282 -2.19275,-2.90009 -2.19275,-7.32096 0,-5.58797 4.31476,-8.70026 4.31477,-3.11229 12.20159,-3.11229 3.9611,0 7.42706,0.88417 3.50133,0.84881 7.25022,2.51105 l -3.74889,8.91247 q -2.75862,-1.23784 -5.83555,-2.08665 -3.07692,-0.88417 -5.0221,-0.88417 -3.39523,0 -3.39523,1.66224 0,1.02565 1.16711,1.76835 1.20248,0.70734 6.86119,2.93546 4.20866,1.73298 6.25994,3.39522 2.08665,1.66225 3.04156,3.92573 0.99027,2.22812 0.99027,5.44651 z"
           inkscape:connector-curvature="0" />
        <path
           id="path4286"
           style="letter-spacing:-38.16008377px"
           d="m 669.12571,249.63433 q -10.00884,0 -15.56145,-5.30504 -5.51724,-5.34041 -5.51724,-15.17242 0,-10.15031 5.12821,-15.56145 5.1282,-5.4465 14.64191,-5.4465 9.05393,0 13.96993,4.73916 4.95137,4.70381 4.95137,13.58091 l 0,6.15384 -24.72148,0 q 0.14147,3.35986 2.44032,5.26967 2.33422,1.90982 6.33068,1.90982 3.64279,0 6.68435,-0.67197 3.07692,-0.70734 6.64898,-2.36959 l 0,9.93811 q -3.25376,1.66225 -6.71972,2.29885 -3.46595,0.63661 -8.27586,0.63661 z m -0.81344,-32.07781 q -2.44031,0 -4.10256,1.55614 -1.62688,1.52078 -1.90981,4.80991 l 11.88328,0 q -0.0707,-2.90009 -1.66224,-4.63307 -1.55615,-1.73298 -4.20867,-1.73298 z"
           inkscape:connector-curvature="0" />
        <path
           id="path4288"
           style="letter-spacing:-38.16008377px"
           d="m 673.15754,309.40526 0,-21.85676 q 0,-3.99647 -1.1671,-6.01238 -1.13175,-2.05128 -3.67817,-2.05128 -3.50132,0 -5.05747,2.79398 -1.55614,2.79399 -1.55614,9.58444 l 0,17.542 -13.82847,0 0,-40.07073 10.43324,0 1.73298,4.95137 0.81344,0 q 1.76835,-2.82936 4.88064,-4.24403 3.14766,-1.41468 7.21485,-1.41468 6.64899,0 10.32715,3.85499 3.71352,3.855 3.71352,10.85765 l 0,26.06543 -13.82847,0 z"
           inkscape:connector-curvature="0" />
        <path
           id="path4290"
           style="letter-spacing:-38.16008377px"
           d="m 683.76762,357.57585 q 0,6.43678 -4.3855,9.72591 -4.3855,3.28912 -12.59062,3.28912 -4.45624,0 -7.74536,-0.49513 -3.28913,-0.45977 -6.71972,-1.73298 l 0,-11.06985 q 3.21839,1.41468 7.03802,2.33422 3.855,0.91954 6.86119,0.91954 4.4916,0 4.4916,-2.05129 0,-1.061 -1.27321,-1.87444 -1.23785,-0.84881 -7.28559,-3.25376 -5.51724,-2.26348 -7.70999,-5.12821 -2.19275,-2.90008 -2.19275,-7.32095 0,-5.58798 4.31476,-8.70027 4.31477,-3.11229 12.20159,-3.11229 3.9611,0 7.42706,0.88418 3.50133,0.8488 7.25022,2.51105 l -3.74889,8.91247 q -2.75862,-1.23785 -5.83555,-2.08665 -3.07692,-0.88418 -5.0221,-0.88418 -3.39523,0 -3.39523,1.66225 0,1.02564 1.16711,1.76835 1.20248,0.70733 6.86119,2.93545 4.20866,1.73298 6.25994,3.39523 2.08665,1.66224 3.04156,3.92573 0.99027,2.22811 0.99027,5.4465 z"
           inkscape:connector-curvature="0" />
        <path
           id="path4293"
           style="letter-spacing:-38.16008377px"
           d="m 687.41042,410.23803 q 0,9.83201 -5.30504,15.34925 -5.26968,5.48188 -14.78338,5.48188 -9.12467,0 -14.53581,-5.62335 -5.37577,-5.62334 -5.37577,-15.20778 0,-9.79664 5.26967,-15.20778 5.30504,-5.4465 14.85411,-5.4465 5.90628,0 10.43325,2.51105 4.52696,2.51105 6.96728,7.21485 2.47569,4.66844 2.47569,10.92838 z m -25.95933,0 q 0,5.16357 1.37931,7.88683 1.37931,2.68789 4.63307,2.68789 3.21839,0 4.52696,-2.68789 1.34395,-2.72326 1.34395,-7.88683 0,-5.1282 -1.34395,-7.74535 -1.34394,-2.61716 -4.5977,-2.61716 -3.18302,0 -4.56233,2.61716 -1.37931,2.58178 -1.37931,7.74535 z"
           inkscape:connector-curvature="0" />
        <path
           id="path4295"
           style="letter-spacing:-38.16008377px"
           d="m 679.34676,450.06205 q 1.80371,0 3.43059,0.28293 l 0.77807,0.14147 -1.23784,13.0504 q -1.69761,-0.4244 -4.7038,-0.4244 -4.52697,0 -6.57825,2.08664 -2.05128,2.05129 -2.05128,5.94165 l 0,19.69938 -13.82847,0 0,-40.07073 10.29177,0 2.15739,6.40141 0.67197,0 q 1.73298,-3.18302 4.8099,-5.1282 3.11229,-1.98055 6.25995,-1.98055 z"
           inkscape:connector-curvature="0" />
      </g>
      <path
         d="m 754.2644,678.14954 q 0,35.23324 -24.58131,53.66923 -24.37645,18.43599 -73.12943,18.43599 -24.99101,0 -42.60763,-3.48236 -17.61661,-3.27751 -32.97994,-9.83252 l 0,-51.62082 q 17.41177,8.19382 39.12527,13.72458 21.91835,5.53081 38.51074,5.53081 34.00416,0 34.00416,-19.66504 0,-7.37442 -4.50656,-11.88098 -4.50656,-4.71141 -15.56819,-10.44707 -11.06159,-5.94047 -29.49759,-13.72458 -26.42492,-11.06158 -38.92042,-20.48445 -12.29065,-9.42282 -18.0263,-21.50865 -5.5308,-12.29063 -5.5308,-30.11212 0,-30.52177 23.5571,-47.11421 23.76195,-16.79719 67.18896,-16.79719 41.37854,0 80.50383,18.02629 l -18.84569,45.06576 q -17.20694,-7.37442 -32.16057,-12.08583 -14.95364,-4.71141 -30.52182,-4.71141 -27.65397,0 -27.65397,14.95363 0,8.39862 8.8083,14.54394 9.01315,6.14536 39.12526,18.23114 26.83462,10.85677 39.33014,20.2796 12.49548,9.42287 18.436,21.7135 5.94046,12.29067 5.94046,29.29276 z"
         style="font-style:normal;font-variant:normal;font-weight:bold;font-stretch:normal;font-size:medium;line-height:125%;font-family:'Open Sans';-inkscape-font-specification:'Open Sans Bold';text-align:start;letter-spacing:0px;word-spacing:0px;writing-mode:lr-tb;text-anchor:start;fill:#696969;fill-opacity:1;stroke:none"
         id="path4155"
         inkscape:connector-curvature="0" />
      <g
         id="text4188"
         style="font-style:italic;font-variant:normal;font-weight:300;font-stretch:normal;font-size:47.85046768px;line-height:125%;font-family:'Open Sans';-inkscape-font-specification:'Open Sans Light Italic';text-align:start;letter-spacing:-20.04000854px;word-spacing:0px;writing-mode:tb-rl;text-anchor:start;fill:#a9a9a9;fill-opacity:1;stroke:none;stroke-width:1px;stroke-linecap:butt;stroke-linejoin:miter;stroke-opacity:1">
        <path
           id="path4257"
           d="m 672.66738,798.60989 3.48131,-16.16823 q 0.49065,-2.14953 0.49065,-3.64486 0,-1.86916 -1.02804,-2.92056 -1.00467,-1.0514 -3.13084,-1.0514 -2.61682,0 -4.9299,1.56542 -2.28972,1.56542 -3.87851,4.39252 -1.56542,2.82711 -2.40654,6.68225 l -2.38318,11.14486 -2.28972,0 7.75701,-36.35514 2.24299,0 -2.00934,9.6028 q -1.02804,4.6729 -1.54206,6.51869 l 0.14019,0 q 1.82243,-2.64019 4.34579,-4.08878 2.54673,-1.47197 5.37383,-1.47197 2.8972,0 4.48598,1.5187 1.58879,1.51869 1.58879,4.2757 0,1.63551 -0.56075,4.25233 l -3.45794,15.74767 -2.28972,0 z"
           inkscape:connector-curvature="0" />
        <path
           id="path4259"
           d="m 663.71878,818.33623 -3.5514,16.30841 q -0.51402,2.47664 -0.51402,3.69159 0,1.72897 1.09813,2.75701 1.1215,1.00467 3.24766,1.00467 2.5701,0 4.83645,-1.51869 2.28972,-1.54205 3.83178,-4.36916 1.56542,-2.85046 2.33645,-6.54205 l 2.45327,-11.33178 2.28972,0 -5.3972,25.3972 -1.86916,0 0.65421,-4.78972 -0.14019,0 q -3.90187,5.16355 -9.41589,5.16355 -3.06074,0 -4.64953,-1.4486 -1.56542,-1.4486 -1.56542,-4.22897 0,-1.40187 0.51402,-3.97196 l 3.50467,-16.1215 2.33645,0 z"
           inkscape:connector-curvature="0" />
        <path
           id="path4261"
           d="m 664.32626,888.85698 3.43458,-15.74766 q 0.58411,-2.92057 0.58411,-3.78505 0,-4.25234 -3.59813,-4.25234 -2.47664,0 -4.6729,1.58879 -2.19626,1.56542 -3.71495,4.39252 -1.51869,2.8271 -2.33645,6.70561 l -2.33645,11.09813 -2.28972,0 5.3972,-25.3972 1.86916,0 -0.77103,4.90654 0.14018,0 q 1.86916,-2.64018 4.22898,-3.97196 2.38317,-1.33177 4.97663,-1.33177 2.47664,0 3.80841,1.56542 1.33178,1.56542 1.40187,4.55607 l 0.14019,0 q 1.79906,-3.01402 4.22897,-4.55607 2.42991,-1.56542 5.18692,-1.56542 2.73364,0 4.25233,1.44859 1.54206,1.42524 1.54206,4.11215 0,0.67757 -0.0701,1.33178 -0.0467,0.63084 -0.44393,2.78037 l -3.5514,16.1215 -2.33645,0 3.48131,-15.88785 q 0.58411,-2.80374 0.58411,-4.11215 0,-1.79907 -1.00467,-2.78037 -1.00467,-1.00468 -2.78038,-1.00468 -3.66822,0 -6.49532,3.2243 -2.80374,3.20094 -3.92524,8.45795 l -2.54673,12.1028 -2.38317,0 z"
           inkscape:connector-curvature="0" />
        <path
           id="path4263"
           d="m 670.26084,908.18612 q 5.42056,0 6.51869,5.11682 l 0.14018,0 1.37851,-4.71962 1.86916,0 -5.35047,25.39719 -1.91589,0 1.0514,-6.40186 -0.14018,0 q -1.96262,3.31775 -4.36916,5.09345 -2.40654,1.7757 -5.53738,1.7757 -6.56543,0 -6.56543,-8.73831 0,-4.60281 1.75234,-8.78505 1.75234,-4.18224 4.6729,-6.4486 2.94392,-2.28972 6.49533,-2.28972 z m -5.81776,24.15888 q 2.07944,0 4.13551,-1.4486 2.07944,-1.4486 3.71496,-3.8785 1.65887,-2.42991 2.52336,-5.37383 0.86449,-2.94393 0.86449,-4.97664 0,-1.84579 -0.60748,-3.29439 -0.60748,-1.47196 -1.79907,-2.31309 -1.19158,-0.86448 -2.96729,-0.86448 -2.89719,0 -5.23364,1.91589 -2.33645,1.91588 -3.83178,5.74766 -1.49532,3.80841 -1.49532,7.59346 0,3.5514 1.16822,5.23364 1.16823,1.65888 3.52804,1.65888 z"
           inkscape:connector-curvature="0" />
        <path
           id="path4265"
           d="m 672.66738,979.10406 3.48131,-16.16822 q 0.49065,-2.14953 0.49065,-3.64486 0,-1.86916 -1.02804,-2.92056 -1.00467,-1.0514 -3.13084,-1.0514 -2.61682,0 -4.9299,1.56542 -2.28972,1.56542 -3.87851,4.39252 -1.56542,2.80374 -2.40654,6.68225 l -2.38318,11.14485 -2.28972,0 5.3972,-25.39719 1.91589,0 -0.86449,5.16355 0.14019,0 q 3.83177,-5.56075 9.71962,-5.56075 3.03739,0 4.55608,1.49533 1.51869,1.49533 1.51869,4.29906 0,1.63552 -0.56075,4.25234 l -3.45794,15.74766 -2.28972,0 z"
           inkscape:connector-curvature="0" />
        <path
           id="path4267"
           d="m 662.76084,1012.4986 0.42056,-2.1028 10.67757,0 -0.37384,2.1028 -10.72429,0 z"
           inkscape:connector-curvature="0" />
        <path
           id="path4269"
           d="m 664.32626,1069.3511 3.43458,-15.7476 q 0.58411,-2.9206 0.58411,-3.7851 0,-4.2523 -3.59813,-4.2523 -2.47664,0 -4.6729,1.5888 -2.19626,1.5654 -3.71495,4.3925 -1.51869,2.8271 -2.33645,6.7056 l -2.33645,11.0981 -2.28972,0 5.3972,-25.3972 1.86916,0 -0.77103,4.9066 0.14018,0 q 1.86916,-2.6402 4.22898,-3.972 2.38317,-1.3318 4.97663,-1.3318 2.47664,0 3.80841,1.5655 1.33178,1.5654 1.40187,4.556 l 0.14019,0 q 1.79906,-3.014 4.22897,-4.556 2.42991,-1.5655 5.18692,-1.5655 2.73364,0 4.25233,1.4486 1.54206,1.4253 1.54206,4.1122 0,0.6776 -0.0701,1.3318 -0.0467,0.6308 -0.44393,2.7803 l -3.5514,16.1215 -2.33645,0 3.48131,-15.8878 q 0.58411,-2.8038 0.58411,-4.1122 0,-1.799 -1.00467,-2.7803 -1.00467,-1.0047 -2.78038,-1.0047 -3.66822,0 -6.49532,3.2243 -2.80374,3.2009 -3.92524,8.4579 l -2.54673,12.1028 -2.38317,0 z"
           inkscape:connector-curvature="0" />
        <path
           id="path4271"
           d="m 670.26084,1088.6803 q 5.42056,0 6.51869,5.1168 l 0.14018,0 1.37851,-4.7196 1.86916,0 -5.35047,25.3972 -1.91589,0 1.0514,-6.4019 -0.14018,0 q -1.96262,3.3178 -4.36916,5.0935 -2.40654,1.7757 -5.53738,1.7757 -6.56543,0 -6.56543,-8.7383 0,-4.6028 1.75234,-8.7851 1.75234,-4.1822 4.6729,-6.4486 2.94392,-2.2897 6.49533,-2.2897 z m -5.81776,24.1589 q 2.07944,0 4.13551,-1.4486 2.07944,-1.4486 3.71496,-3.8785 1.65887,-2.4299 2.52336,-5.3738 0.86449,-2.944 0.86449,-4.9767 0,-1.8458 -0.60748,-3.2944 -0.60748,-1.4719 -1.79907,-2.3131 -1.19158,-0.8644 -2.96729,-0.8644 -2.89719,0 -5.23364,1.9158 -2.33645,1.9159 -3.83178,5.7477 -1.49532,3.8084 -1.49532,7.5935 0,3.5514 1.16822,5.2336 1.16823,1.6589 3.52804,1.6589 z"
           inkscape:connector-curvature="0" />
        <path
           id="path4273"
           d="m 668.95242,1160.0655 q -4.06542,0 -6.42523,-2.5701 -2.33645,-2.5934 -2.33645,-7.1729 0,-4.5093 1.70561,-8.4345 1.72897,-3.9486 4.64953,-6.0047 2.92056,-2.0795 6.7757,-2.0795 3.13084,0 5.63084,1.0047 l -0.6542,2.1028 q -2.5,-1.0981 -5.09346,-1.0981 -3.01402,0 -5.44392,1.7991 -2.40655,1.799 -3.78505,5.1869 -1.37851,3.3878 -1.37851,7.4766 0,3.6916 1.70561,5.7009 1.72897,1.986 4.88318,1.986 1.65888,0 3.06075,-0.3037 1.42523,-0.3038 3.08411,-1.0748 l 0,2.1496 q -2.71028,1.3317 -6.37851,1.3317 z"
           inkscape:connector-curvature="0" />
        <path
           id="path4275"
           d="m 672.66738,1204.7218 3.48131,-16.1683 q 0.49065,-2.1495 0.49065,-3.6448 0,-1.8692 -1.02804,-2.9206 -1.00467,-1.0514 -3.13084,-1.0514 -2.61682,0 -4.9299,1.5654 -2.28972,1.5655 -3.87851,4.3926 -1.56542,2.8271 -2.40654,6.6822 l -2.38318,11.1449 -2.28972,0 7.75701,-36.3552 2.24299,0 -2.00934,9.6028 q -1.02804,4.6729 -1.54206,6.5187 l 0.14019,0 q 1.82243,-2.6402 4.34579,-4.0888 2.54673,-1.4719 5.37383,-1.4719 2.8972,0 4.48598,1.5187 1.58879,1.5187 1.58879,4.2757 0,1.6355 -0.56075,4.2523 l -3.45794,15.7477 -2.28972,0 z"
           inkscape:connector-curvature="0" />
        <path
           id="path4277"
           d="m 666.68607,1249.8453 -2.28972,0 5.3972,-25.3972 2.24299,0 -5.35047,25.3972 z m 4.11215,-31.9159 q 0,-1.285 0.51402,-2.0561 0.51402,-0.771 1.40187,-0.771 1.33177,0 1.33177,1.6823 0,1.3317 -0.51402,2.1028 -0.51401,0.771 -1.33177,0.771 -0.67757,0 -1.0514,-0.4439 -0.35047,-0.4673 -0.35047,-1.2851 z"
           inkscape:connector-curvature="0" />
        <path
           id="path4279"
           d="m 672.66738,1294.9689 3.48131,-16.1683 q 0.49065,-2.1495 0.49065,-3.6448 0,-1.8692 -1.02804,-2.9206 -1.00467,-1.0514 -3.13084,-1.0514 -2.61682,0 -4.9299,1.5654 -2.28972,1.5655 -3.87851,4.3926 -1.56542,2.8037 -2.40654,6.6822 l -2.38318,11.1449 -2.28972,0 5.3972,-25.3972 1.91589,0 -0.86449,5.1635 0.14019,0 q 3.83177,-5.5607 9.71962,-5.5607 3.03739,0 4.55608,1.4953 1.51869,1.4953 1.51869,4.2991 0,1.6355 -0.56075,4.2523 l -3.45794,15.7477 -2.28972,0 z"
           inkscape:connector-curvature="0" />
        <path
           id="path4281"
           d="m 668.29822,1340.5597 q -4.04206,0 -6.30841,-2.5467 -2.26636,-2.5701 -2.26636,-7.1496 0,-4.2289 1.65888,-8.1074 1.65888,-3.8785 4.55608,-6.1683 2.92056,-2.2897 6.42523,-2.2897 2.66355,0 4.25234,1.4252 1.58878,1.4253 1.58878,3.8786 0,4.2289 -3.83177,6.4486 -3.80842,2.2196 -11.33178,2.2196 l -0.77103,0 q -0.14019,1.028 -0.14019,2.2897 0,3.8551 1.72898,5.8878 1.72897,2.0094 4.97663,2.0094 3.08411,0 6.4486,-1.7056 l 0,2.1962 q -3.27103,1.6122 -6.98598,1.6122 z m 3.78505,-24.2523 q -3.06075,0 -5.70094,2.7102 -2.61682,2.687 -3.78505,7.1963 l 1.14486,0 q 12.07944,0 12.07944,-6.3084 0,-1.5654 -1.02803,-2.5701 -1.00468,-1.028 -2.71028,-1.028 z"
           inkscape:connector-curvature="0" />
      </g>
    </g>
  </g>
</svg>
