<?xml version="1.0" encoding="UTF-8" standalone="no"?>
<!-- Created with Inkscape (http://www.inkscape.org/) -->

<svg
   xmlns:osb="http://www.openswatchbook.org/uri/2009/osb"
   xmlns:dc="http://purl.org/dc/elements/1.1/"
   xmlns:cc="http://creativecommons.org/ns#"
   xmlns:rdf="http://www.w3.org/1999/02/22-rdf-syntax-ns#"
   xmlns:svg="http://www.w3.org/2000/svg"
   xmlns="http://www.w3.org/2000/svg"
   xmlns:xlink="http://www.w3.org/1999/xlink"
   xmlns:sodipodi="http://sodipodi.sourceforge.net/DTD/sodipodi-0.dtd"
   xmlns:inkscape="http://www.inkscape.org/namespaces/inkscape"
   width="1500"
   height="1500"
   id="svg2"
   version="1.1"
   inkscape:version="0.91 r13725"
   sodipodi:docname="osd_wall_quadrato.svg"
   inkscape:export-filename="/Users/lucacorsato/Documents/lavori/DISALVO.png"
   inkscape:export-xdpi="320"
   inkscape:export-ydpi="320">
  <defs
     id="defs4">
    <linearGradient
       id="linearGradient4444"
       osb:paint="solid">
      <stop
         style="stop-color:#002fa7;stop-opacity:1;"
         offset="0"
         id="stop4446" />
    </linearGradient>
    <linearGradient
       inkscape:collect="always"
       xlink:href="#linearGradient4444"
       id="linearGradient4448"
       x1="1481.6096"
       y1="393.59521"
       x2="3401.6096"
       y2="393.59521"
       gradientUnits="userSpaceOnUse" />
    <linearGradient
       inkscape:collect="always"
       xlink:href="#linearGradient4444"
       id="linearGradient4452"
       gradientUnits="userSpaceOnUse"
       x1="1481.6096"
       y1="393.59521"
       x2="3401.6096"
       y2="393.59521"
       gradientTransform="translate(-1761.6116,2283.4524)" />
  </defs>
  <sodipodi:namedview
     id="base"
     pagecolor="#ffffff"
     bordercolor="#666666"
     borderopacity="1.0"
     inkscape:pageopacity="0.0"
     inkscape:pageshadow="2"
     inkscape:zoom="0.15297116"
     inkscape:cx="916.37463"
     inkscape:cy="724.61461"
     inkscape:document-units="px"
     inkscape:current-layer="layer11"
     showgrid="false"
     inkscape:window-width="1440"
     inkscape:window-height="851"
     inkscape:window-x="18"
     inkscape:window-y="0"
     inkscape:window-maximized="0"
     fit-margin-top="0"
     fit-margin-left="0"
     fit-margin-right="0"
     fit-margin-bottom="0" />
  <metadata
     id="metadata7">
    <rdf:RDF>
      <cc:Work
         rdf:about="">
        <dc:format>image/svg+xml</dc:format>
        <dc:type
           rdf:resource="http://purl.org/dc/dcmitype/StillImage" />
        <dc:title></dc:title>
      </cc:Work>
    </rdf:RDF>
  </metadata>
  <g
     inkscape:groupmode="layer"
     id="layer1"
     inkscape:label="sfondo"
     transform="translate(86.8548,900.50699)"
     style="display:inline" />
  <g
     inkscape:groupmode="layer"
     id="layer11"
     inkscape:label="logo"
     style="display:inline"
     transform="translate(86.8548,-114.35521)">
    <text
       xml:space="preserve"
       style="font-style:normal;font-variant:normal;font-weight:normal;font-stretch:normal;font-size:180px;line-height:125%;font-family:Griffo;-inkscape-font-specification:Griffo;text-align:start;letter-spacing:0px;word-spacing:0px;writing-mode:lr-tb;text-anchor:start;fill:#000000;fill-opacity:1;stroke:none;stroke-width:1px;stroke-linecap:butt;stroke-linejoin:miter;stroke-opacity:1"
       x="-368.75"
       y="910.95593"
       id="text4157"
       sodipodi:linespacing="125%"><tspan
         sodipodi:role="line"
         id="tspan4159"
         x="-368.75"
         y="910.95593"
         style="font-style:normal;font-variant:normal;font-weight:bold;font-stretch:normal;font-family:'Open Sans';-inkscape-font-specification:'Open Sans Bold'" /></text>
    <rect
       style="display:inline;opacity:0.5;fill:none;fill-opacity:1;fill-rule:evenodd;stroke:none"
       id="rect2995"
       width="100"
       height="100"
       x="613.1452"
       y="919.04675"
       ry="0" />
    <path
       inkscape:connector-curvature="0"
       id="path4204"
       style="font-style:normal;font-variant:normal;font-weight:bold;font-stretch:normal;font-size:medium;line-height:125%;font-family:'Open Sans';-inkscape-font-specification:'Open Sans Bold';text-align:start;letter-spacing:0px;word-spacing:0px;writing-mode:tb-rl;text-anchor:start;fill:#ea5480;fill-opacity:1;stroke:none;stroke-width:1px;stroke-linecap:butt;stroke-linejoin:miter;stroke-opacity:1"
       d="m 205.65231,999.31776 q -17.94172,0 -28.14208,-13.0237 l -1.4572,0 q 1.4572,12.7504 1.4572,14.75414 l 0,41.2568 -27.77778,0 0,-146.63026 22.58652,0 3.91621,13.20583 1.27505,0 q 9.74499,-15.1184 28.87067,-15.1184 18.03279,0 28.23315,13.93443 10.20037,13.93443 10.20037,38.70674 0,16.30237 -4.82696,28.32422 -4.73588,12.0219 -13.57013,18.306 -8.83424,6.2842 -20.76502,6.2842 z m -8.19673,-83.33337 q -10.29144,0 -15.02732,6.37523 -4.73588,6.28416 -4.91803,20.85611 l 0,3.00546 q 0,16.39344 4.82696,23.49727 4.91803,7.1038 15.48269,7.1038 18.67031,0 18.67031,-30.78322 0,-15.02732 -4.64481,-22.49545 -4.55373,-7.5592 -14.3898,-7.5592 z" />
    <path
       inkscape:connector-curvature="0"
       id="path4206"
       style="font-style:normal;font-variant:normal;font-weight:bold;font-stretch:normal;font-size:medium;line-height:125%;font-family:'Open Sans';-inkscape-font-specification:'Open Sans Bold';text-align:start;letter-spacing:0px;word-spacing:0px;writing-mode:tb-rl;text-anchor:start;fill:#ea5480;fill-opacity:1;stroke:none;stroke-width:1px;stroke-linecap:butt;stroke-linejoin:miter;stroke-opacity:1"
       d="m 195.72517,1167.5327 q -8.83425,0 -13.84336,5.6466 -5.0091,5.5556 -5.7377,15.847 l 38.97996,0 q -0.18215,-10.2914 -5.3734,-15.847 -5.19126,-5.6466 -14.0255,-5.6466 z m 3.91621,85.7924 q -24.59017,0 -38.43352,-13.5702 -13.84335,-13.5701 -13.84335,-38.4335 0,-25.592 12.75046,-39.5264 12.84153,-14.0255 35.42805,-14.0255 21.5847,0 33.60655,12.2951 12.02186,12.2951 12.02186,33.9708 l 0,13.4791 -65.66484,0 q 0.45537,11.8397 7.01275,18.4882 6.55737,6.6484 18.39708,6.6484 9.19855,0 17.39527,-1.9126 8.19672,-1.9125 17.12204,-6.102 l 0,21.4937 q -7.28598,3.643 -15.57377,5.3734 -8.2878,1.8215 -20.21858,1.8215 z" />
    <path
       inkscape:connector-curvature="0"
       id="path4208"
       style="font-style:normal;font-variant:normal;font-weight:bold;font-stretch:normal;font-size:medium;line-height:125%;font-family:'Open Sans';-inkscape-font-specification:'Open Sans Bold';text-align:start;letter-spacing:0px;word-spacing:0px;writing-mode:tb-rl;text-anchor:start;fill:#ea5480;fill-opacity:1;stroke:none;stroke-width:1px;stroke-linecap:butt;stroke-linejoin:miter;stroke-opacity:1"
       d="m 241.35358,1505.5108 -27.77777,0 0,-59.4717 q 0,-11.0201 -3.91622,-16.4846 -3.91621,-5.5555 -12.47723,-5.5555 -11.65756,0 -16.84881,7.8324 -5.19126,7.7414 -5.19126,25.7741 l 0,47.9053 -27.77778,0 0,-101.8215 21.2204,0 3.73406,13.0237 1.54827,0 q 4.64481,-7.377 12.75046,-11.1111 8.19672,-3.8251 18.57923,-3.8251 17.75957,0 26.95811,9.6539 9.19854,9.5628 9.19854,27.6867 l 0,66.3934 z" />
    <path
       inkscape:connector-curvature="0"
       id="path4292"
       style="font-style:normal;font-variant:normal;font-weight:bold;font-stretch:normal;font-size:28px;line-height:125%;font-family:'Open Sans';-inkscape-font-specification:'Open Sans Bold';text-align:start;letter-spacing:0px;word-spacing:0px;writing-mode:lr-tb;text-anchor:start;display:inline;fill:#ea5480;fill-opacity:1;stroke:none"
       d="m 144.3007,631.21446 c -1.6e-4,24.4861 3.93557,42.99625 11.8078,55.5331 8.01784,12.53505 20.99279,18.8043 38.92437,18.8043 17.78568,0 30.5422,-6.1951 38.26904,-18.5827 7.87238,-12.5384 11.80869,-31.12195 11.80877,-55.7547 -8e-5,-24.4844 -3.93639,-42.84625 -11.80877,-55.08805 -7.87296,-12.2415 -20.77477,-18.3642 -38.70584,-18.3642 -17.78611,0 -30.61494,6.1227 -38.48757,18.3642 -7.87223,12.0943 -11.80796,30.45615 -11.8078,55.08805 m 169.03674,0 c -3.2e-4,40.26535 -10.49639,71.7557 -31.48928,94.4701 -20.99386,22.71525 -50.22221,34.0703 -87.68956,34.0703 -23.47069,0 -44.17289,-5.16 -62.10414,-15.4851 -17.93147,-10.4743 -31.70746,-25.44275 -41.33092,-44.913 -9.62132,-19.4685 -14.43214,-42.18285 -14.43214,-68.1423 0,-40.41125 10.42284,-71.8281 31.27051,-94.24835 20.84774,-22.4189 50.15087,-33.62885 87.90808,-33.62885 23.47218,0 44.17233,5.16185 62.10579,15.48705 17.93107,10.32535 31.70731,25.1475 41.32945,44.4706 9.62107,19.3216 14.43189,41.9609 14.43221,67.91955"
       inkscape:export-filename="/Users/lucacorsato/Documents/o{s}d/o{s}d_semplice.png"
       inkscape:export-xdpi="300"
       inkscape:export-ydpi="300" />
    <path
       inkscape:connector-curvature="0"
       id="path4298"
       style="font-style:normal;font-variant:normal;font-weight:normal;font-stretch:normal;font-size:56px;line-height:125%;font-family:'Liberation Serif';-inkscape-font-specification:'Liberation Serif';text-align:start;letter-spacing:0px;word-spacing:0px;writing-mode:lr-tb;text-anchor:start;display:inline;fill:#ea5480;fill-opacity:1;stroke:none"
       d="m 521.51325,1006.5466 c -36.73694,0 -65.01959,-11.35844 -84.84498,-34.07244 -19.53603,-22.71463 -29.30326,-54.71864 -29.30309,-96.01634 l 0,-130.53041 c -1.7e-4,-34.51241 -7.72674,-60.32572 -23.17858,-77.43479 -15.16256,-17.40334 -38.77875,-26.69495 -70.85211,-27.87496 l 0,-19.91079 c 62.68784,-1.1825 94.03052,-35.98823 94.03069,-104.4246 l 0,-130.08919 c -1.7e-4,-41.59209 9.47565,-73.59621 28.42719,-96.01635 18.95279,-22.41812 47.52504,-33.62821 85.72088,-33.62821 l 59.04315,0 0,20.79753 -27.11706,0 c -26.53299,0 -45.48405,8.1122 -56.85506,24.33494 -11.07902,15.93024 -16.61865,39.52783 -16.61849,70.79633 l 0,146.01622 c -1.6e-4,28.02489 -7.58144,52.21352 -22.74309,72.56762 -15.16083,20.05828 -35.57111,32.88909 -61.22919,38.49574 l 0,1.32661 c 25.94966,6.19336 46.35978,19.31998 61.22919,39.37992 15.16165,19.76247 22.74293,43.95152 22.74309,72.56644 l 0,147.78626 c -1.6e-4,31.26802 5.53947,54.86638 16.61849,70.79746 11.37101,16.22127 30.32207,24.33377 56.85506,24.33377 l 27.11706,0 0,20.79754 -59.04315,0"
       inkscape:export-filename="/Users/lucacorsato/Documents/o{s}d/o{s}d_semplice.png"
       inkscape:export-xdpi="300"
       inkscape:export-ydpi="300" />
    <path
       inkscape:connector-curvature="0"
       id="path4213"
       style="font-style:normal;font-variant:normal;font-weight:bold;font-stretch:normal;font-size:medium;line-height:125%;font-family:'Open Sans';-inkscape-font-specification:'Open Sans Bold';text-align:start;letter-spacing:0px;word-spacing:0px;writing-mode:tb-rl;text-anchor:start;fill:#002fa7;fill-opacity:1;stroke:none;stroke-width:1px;stroke-linecap:butt;stroke-linejoin:miter;stroke-opacity:1"
       d="m 1163.0621,969.81696 -5.646,-14.54541 -0.7655,0 q -7.3684,9.2823 -15.2153,12.91871 -7.7512,3.5406 -20.2871,3.5406 -15.4067,0 -24.3062,-8.80381 -8.8039,-8.80382 -8.8039,-25.07177 0,-17.03349 11.8661,-25.07177 11.9617,-8.13397 35.9808,-8.99521 l 18.5646,-0.57417 0,-4.68899 q 0,-16.26794 -16.6507,-16.26794 -12.823,0 -30.1435,7.75119 l -9.6651,-19.71292 q 18.4689,-9.66507 40.9569,-9.66507 21.5311,0 33.0144,9.37799 11.4832,9.37799 11.4832,28.51675 l 0,71.29182 -20.3827,0 z m -8.6125,-49.56933 -11.2918,0.38277 q -12.7273,0.38278 -18.9474,4.5933 -6.2201,4.21053 -6.2201,12.82297 0,12.3445 14.1627,12.3445 10.1435,0 16.1722,-5.83732 6.1244,-5.83732 6.1244,-15.50239 l 0,-8.80383 z" />
    <path
       inkscape:connector-curvature="0"
       id="path4215"
       style="font-style:normal;font-variant:normal;font-weight:bold;font-stretch:normal;font-size:medium;line-height:125%;font-family:'Open Sans';-inkscape-font-specification:'Open Sans Bold';text-align:start;letter-spacing:0px;word-spacing:0px;writing-mode:tb-rl;text-anchor:start;fill:#002fa7;fill-opacity:1;stroke:none;stroke-width:1px;stroke-linecap:butt;stroke-linejoin:miter;stroke-opacity:1"
       d="m 1156.6506,1215.3673 q 7.6555,0 18.3732,-3.3493 l 0,21.7225 q -10.9091,4.8804 -26.7943,4.8804 -17.5119,0 -25.5502,-8.8039 -7.9426,-8.8995 -7.9426,-26.6028 l 0,-51.579 -13.9713,0 0,-12.3445 16.0766,-9.7607 8.421,-22.5838 18.6603,0 0,22.7752 29.9522,0 0,21.9138 -29.9522,0 0,51.579 q 0,6.2201 3.445,9.1866 3.5407,2.9665 9.2823,2.9665 z" />
    <path
       inkscape:connector-curvature="0"
       id="path4217"
       style="font-style:normal;font-variant:normal;font-weight:bold;font-stretch:normal;font-size:medium;line-height:125%;font-family:'Open Sans';-inkscape-font-specification:'Open Sans Bold';text-align:start;letter-spacing:0px;word-spacing:0px;writing-mode:tb-rl;text-anchor:start;fill:#002fa7;fill-opacity:1;stroke:none;stroke-width:1px;stroke-linecap:butt;stroke-linejoin:miter;stroke-opacity:1"
       d="m 1163.0621,1503.597 -5.646,-14.5455 -0.7655,0 q -7.3684,9.2823 -15.2153,12.9187 -7.7512,3.5406 -20.2871,3.5406 -15.4067,0 -24.3062,-8.8038 -8.8039,-8.8038 -8.8039,-25.0718 0,-17.0335 11.8661,-25.0717 11.9617,-8.134 35.9808,-8.9953 l 18.5646,-0.5741 0,-4.689 q 0,-16.268 -16.6507,-16.268 -12.823,0 -30.1435,7.7512 l -9.6651,-19.7129 q 18.4689,-9.6651 40.9569,-9.6651 21.5311,0 33.0144,9.378 11.4832,9.378 11.4832,28.5168 l 0,71.2919 -20.3827,0 z m -8.6125,-49.5694 -11.2918,0.3827 q -12.7273,0.3828 -18.9474,4.5934 -6.2201,4.2105 -6.2201,12.8229 0,12.3445 14.1627,12.3445 10.1435,0 16.1722,-5.8373 6.1244,-5.8373 6.1244,-15.5024 l 0,-8.8038 z" />
    <path
       d="m 1113.7649,759.75576 c -28.72,0 -51.3159,-11.2833 -67.7898,-33.8491 -16.3281,-22.5657 -24.4911,-53.83395 -24.4911,-93.8047 0,-40.5599 8.3084,-72.1233 24.9284,-94.6882 16.7649,-22.71485 39.7982,-34.0721 69.1014,-34.0721 30.7598,0 54.2319,12.09475 70.4127,36.2829 l 2.1875,0 c -3.3532,-18.43585 -5.0292,-34.8824 -5.0289,-49.33505 l 0,-79.20455 66.9139,0 0,344.24745 -51.1703,0 -12.9022,-32.079 -2.8414,0 c -15.1625,24.33495 -38.2684,36.50235 -69.3202,36.50235 m 23.3977,-53.7598 c 17.0564,0 29.521,-5.01505 37.3937,-15.0425 8.017,-10.0308 12.3904,-27.0674 13.1208,-51.1082 l 0,-7.3008 c -2e-4,-26.5474 -4.0821,-45.5732 -12.2466,-57.0798 -8.018,-11.50265 -21.1384,-17.2568 -39.3607,-17.2568 -14.8711,0 -26.46,6.41665 -34.7695,19.2493 -8.1641,12.68405 -12.246,31.19405 -12.246,55.529 -10e-5,24.3374 4.1551,42.62565 12.4644,54.86815 8.3097,12.09495 20.1902,18.14165 35.6437,18.14165"
       style="font-style:normal;font-variant:normal;font-weight:bold;font-stretch:normal;font-size:28px;line-height:125%;font-family:'Open Sans';-inkscape-font-specification:'Open Sans Bold';text-align:start;letter-spacing:0px;word-spacing:0px;writing-mode:lr-tb;text-anchor:start;display:inline;fill:#002fa7;fill-opacity:1;stroke:none"
       id="path4296"
       inkscape:connector-curvature="0"
       inkscape:export-filename="/Users/lucacorsato/Documents/o{s}d/o{s}d_semplice.png"
       inkscape:export-xdpi="300"
       inkscape:export-ydpi="300" />
    <path
       inkscape:connector-curvature="0"
       id="path4300"
       style="font-style:normal;font-variant:normal;font-weight:normal;font-stretch:normal;font-size:56px;line-height:125%;font-family:'Liberation Serif';-inkscape-font-specification:'Liberation Serif';text-align:start;letter-spacing:0px;word-spacing:0px;writing-mode:lr-tb;text-anchor:start;display:inline;fill:#002fa7;fill-opacity:1;stroke:none"
       d="m 754.264,1006.5466 0,-20.79924 27.11506,0 c 26.53245,0 45.33789,-8.1125 56.4183,-24.33377 11.37018,-15.93108 17.0569,-39.52944 17.05707,-70.79746 l 0,-147.78626 c -1.7e-4,-28.61409 7.43338,-52.80231 22.30452,-72.56644 14.86912,-20.05994 35.42467,-33.18656 61.66598,-39.37992 l 0,-1.32661 c -25.65799,-5.60499 -46.06853,-18.58495 -61.22878,-38.93739 -15.16251,-20.35499 -22.74189,-44.39488 -22.74172,-72.12567 l 0,-146.01617 c -1.7e-4,-31.26849 -5.68689,-54.86608 -17.05707,-70.79639 -11.08041,-16.22268 -29.88585,-24.33494 -56.4183,-24.33494 l -27.11506,0 0,-20.79753 59.47863,0 c 37.90369,0.002 66.33259,11.21188 85.28393,33.62994 18.95069,22.41841 28.42618,54.42414 28.42653,96.01463 l 0,130.08924 c -3.5e-4,68.43602 31.34483,103.24347 94.03091,104.42425 l 0,19.91079 c -31.4891,1.18167 -55.10675,10.3233 -70.84986,27.43325 -15.45417,17.10996 -23.1814,43.06822 -23.18105,77.8765 l 0,130.53041 c -3.5e-4,41.00331 -9.91292,72.86131 -29.73836,95.57414 -19.53573,23.009 -47.52536,34.51464 -83.9721,34.51464 l -59.47863,0"
       inkscape:export-filename="/Users/lucacorsato/Documents/o{s}d/o{s}d_semplice.png"
       inkscape:export-xdpi="300"
       inkscape:export-ydpi="300" />
    <text
       xml:space="preserve"
       style="font-style:normal;font-variant:normal;font-weight:800;font-stretch:normal;font-size:72.43147278px;line-height:125%;font-family:'Open Sans';-inkscape-font-specification:'Open Sans Ultra-Bold';text-align:start;letter-spacing:-38.16008377px;word-spacing:0px;writing-mode:tb-rl;text-anchor:start;fill:#696969;fill-opacity:1;stroke:none;stroke-width:1px;stroke-linecap:butt;stroke-linejoin:miter;stroke-opacity:1"
       x="667.4281"
       y="111.03049"
       id="text4184"
       sodipodi:linespacing="125%"><tspan
         sodipodi:role="line"
         id="tspan4186"
         x="144.34593"
         y="634.11267"
         style="letter-spacing:-38.16008377px">sensor</tspan></text>
    <path
       inkscape:connector-curvature="0"
       id="path4155"
       style="font-style:normal;font-variant:normal;font-weight:bold;font-stretch:normal;font-size:medium;line-height:125%;font-family:'Open Sans';-inkscape-font-specification:'Open Sans Bold';text-align:start;letter-spacing:0px;word-spacing:0px;writing-mode:lr-tb;text-anchor:start;fill:#696969;fill-opacity:1;stroke:none"
       d="m 754.2644,678.14954 q 0,35.23324 -24.58131,53.66923 -24.37645,18.43599 -73.12943,18.43599 -24.99101,0 -42.60763,-3.48236 -17.61661,-3.27751 -32.97994,-9.83252 l 0,-51.62082 q 17.41177,8.19382 39.12527,13.72458 21.91835,5.53081 38.51074,5.53081 34.00416,0 34.00416,-19.66504 0,-7.37442 -4.50656,-11.88098 -4.50656,-4.71141 -15.56819,-10.44707 -11.06159,-5.94047 -29.49759,-13.72458 -26.42492,-11.06158 -38.92042,-20.48445 -12.29065,-9.42282 -18.0263,-21.50865 -5.5308,-12.29063 -5.5308,-30.11212 0,-30.52177 23.5571,-47.11421 23.76195,-16.79719 67.18896,-16.79719 41.37854,0 80.50383,18.02629 l -18.84569,45.06576 q -17.20694,-7.37442 -32.16057,-12.08583 -14.95364,-4.71141 -30.52182,-4.71141 -27.65397,0 -27.65397,14.95363 0,8.39862 8.8083,14.54394 9.01315,6.14536 39.12526,18.23114 26.83462,10.85677 39.33014,20.2796 12.49548,9.42287 18.436,21.7135 5.94046,12.29067 5.94046,29.29276 z" />
    <text
       sodipodi:linespacing="125%"
       id="text4188"
       y="747.46503"
       x="668.1814"
       style="font-style:italic;font-variant:normal;font-weight:300;font-stretch:normal;font-size:47.85046768px;line-height:125%;font-family:'Open Sans';-inkscape-font-specification:'Open Sans Light Italic';text-align:start;letter-spacing:0px;word-spacing:0px;writing-mode:tb-rl;text-anchor:start;fill:#a9a9a9;fill-opacity:1;stroke:none;stroke-width:1px;stroke-linecap:butt;stroke-linejoin:miter;stroke-opacity:1"
       xml:space="preserve"><tspan
         y="634.86597"
         x="780.78046"
         sodipodi:role="line"
         id="tspan4196">human-machine</tspan></text>
  </g>
</svg>
