<?xml version="1.0" encoding="UTF-8" standalone="no"?>
<!-- Created with Inkscape (http://www.inkscape.org/) -->

<svg
   xmlns:osb="http://www.openswatchbook.org/uri/2009/osb"
   xmlns:dc="http://purl.org/dc/elements/1.1/"
   xmlns:cc="http://creativecommons.org/ns#"
   xmlns:rdf="http://www.w3.org/1999/02/22-rdf-syntax-ns#"
   xmlns:svg="http://www.w3.org/2000/svg"
   xmlns="http://www.w3.org/2000/svg"
   xmlns:xlink="http://www.w3.org/1999/xlink"
   xmlns:sodipodi="http://sodipodi.sourceforge.net/DTD/sodipodi-0.dtd"
   xmlns:inkscape="http://www.inkscape.org/namespaces/inkscape"
   width="50"
   height="25"
   id="svg2"
   version="1.1"
   inkscape:version="0.91 r13725"
   sodipodi:docname="read_less.svg"
   inkscape:export-filename="/Users/lucacorsato/Documents/osd/website/osdfront/assets/img/osd_simple_200.png"
   inkscape:export-xdpi="320"
   inkscape:export-ydpi="320">
  <defs
     id="defs4">
    <linearGradient
       id="linearGradient4444"
       osb:paint="solid">
      <stop
         style="stop-color:#002fa7;stop-opacity:1;"
         offset="0"
         id="stop4446" />
    </linearGradient>
    <linearGradient
       inkscape:collect="always"
       xlink:href="#linearGradient4444"
       id="linearGradient4448"
       x1="1481.6096"
       y1="393.59521"
       x2="3401.6096"
       y2="393.59521"
       gradientUnits="userSpaceOnUse" />
    <linearGradient
       inkscape:collect="always"
       xlink:href="#linearGradient4444"
       id="linearGradient4452"
       gradientUnits="userSpaceOnUse"
       x1="1481.6096"
       y1="393.59521"
       x2="3401.6096"
       y2="393.59521"
       gradientTransform="translate(-1761.6116,2283.4524)" />
  </defs>
  <sodipodi:namedview
     id="base"
     pagecolor="#ffffff"
     bordercolor="#666666"
     borderopacity="1.0"
     inkscape:pageopacity="0.0"
     inkscape:pageshadow="2"
     inkscape:zoom="5.6568542"
     inkscape:cx="0.68598125"
     inkscape:cy="20.407816"
     inkscape:document-units="px"
     inkscape:current-layer="layer11"
     showgrid="false"
     inkscape:window-width="1440"
     inkscape:window-height="851"
     inkscape:window-x="0"
     inkscape:window-y="0"
     inkscape:window-maximized="1"
     fit-margin-top="0"
     fit-margin-left="0"
     fit-margin-right="0"
     fit-margin-bottom="0" />
  <metadata
     id="metadata7">
    <rdf:RDF>
      <cc:Work
         rdf:about="">
        <dc:format>image/svg+xml</dc:format>
        <dc:type
           rdf:resource="http://purl.org/dc/dcmitype/StillImage" />
        <dc:title></dc:title>
      </cc:Work>
    </rdf:RDF>
  </metadata>
  <g
     inkscape:groupmode="layer"
     id="layer1"
     inkscape:label="sfondo"
     transform="translate(1.9744365e-7,-6.249953)"
     style="display:inline" />
  <g
     inkscape:groupmode="layer"
     id="layer11"
     inkscape:label="logo"
     style="display:inline"
     transform="translate(1.9744365e-7,-1021.1122)">
    <g
       id="g4319"
       transform="matrix(0.8666667,0,0,0.8666667,3.3333319,136.14826)">
      <path
         inkscape:export-ydpi="300"
         inkscape:export-xdpi="300"
         inkscape:export-filename="/Users/lucacorsato/Documents/o{s}d/o{s}d_semplice.png"
         d="m 16.360164,1028.6055 c -3e-6,0.4897 0.07871,0.86 0.236157,1.1107 0.160357,0.2507 0.419857,0.3761 0.778489,0.3761 0.355715,0 0.610846,-0.1239 0.765383,-0.3716 0.157448,-0.2508 0.236175,-0.6225 0.236176,-1.1152 -1e-6,-0.4897 -0.07873,-0.8569 -0.236176,-1.1018 -0.157459,-0.2448 -0.415496,-0.3672 -0.774119,-0.3672 -0.355723,0 -0.6123,0.1224 -0.769753,0.3672 -0.157445,0.242 -0.23616,0.6092 -0.236157,1.1018 m 3.380744,0 c -6e-6,0.8053 -0.209929,1.4351 -0.629787,1.8895 -0.419879,0.4542 -1.004447,0.6813 -1.753796,0.6813 -0.469415,0 -0.88346,-0.1032 -1.242086,-0.3096 -0.35863,-0.2095 -0.634151,-0.5089 -0.826621,-0.8983 -0.192426,-0.3894 -0.288643,-0.8437 -0.288643,-1.3629 0,-0.8082 0.208457,-1.4366 0.625412,-1.8849 0.416956,-0.4484 1.00302,-0.6726 1.758166,-0.6726 0.469445,0 0.883449,0.1033 1.242119,0.3097 0.358622,0.2065 0.634148,0.503 0.826591,0.8895 0.192422,0.3864 0.288639,0.8391 0.288645,1.3583"
         style="font-style:normal;font-variant:normal;font-weight:bold;font-stretch:normal;font-size:28px;line-height:125%;font-family:'Open Sans';-inkscape-font-specification:'Open Sans Bold';text-align:start;letter-spacing:0px;word-spacing:0px;writing-mode:lr-tb;text-anchor:start;display:inline;fill:#1a1a1a;fill-opacity:1;stroke:none"
         id="path4292"
         inkscape:connector-curvature="0" />
      <path
         inkscape:export-ydpi="300"
         inkscape:export-xdpi="300"
         inkscape:export-filename="/Users/lucacorsato/Documents/o{s}d/o{s}d_semplice.png"
         inkscape:connector-curvature="0"
         id="path4296"
         style="font-style:normal;font-variant:normal;font-weight:bold;font-stretch:normal;font-size:28px;line-height:125%;font-family:'Open Sans';-inkscape-font-specification:'Open Sans Bold';text-align:start;letter-spacing:0px;word-spacing:0px;writing-mode:lr-tb;text-anchor:start;display:inline;fill:#1a1a1a;fill-opacity:1;stroke:none"
         d="m 32.275336,1031.1763 c -0.5744,0 -1.02632,-0.2256 -1.355799,-0.6769 -0.326562,-0.4513 -0.489824,-1.0767 -0.489824,-1.8761 0,-0.8112 0.166169,-1.4424 0.49857,-1.8938 0.3353,-0.4543 0.795968,-0.6814 1.382033,-0.6814 0.615197,0 1.084639,0.2418 1.408257,0.7256 l 0.04375,0 c -0.06706,-0.3686 -0.100584,-0.6977 -0.100578,-0.9866 l 0,-1.5842 1.338281,0 0,6.885 -1.023408,0 -0.258045,-0.6415 -0.05683,0 c -0.303252,0.4866 -0.765372,0.7299 -1.38641,0.7299 m 0.467957,-1.0752 c 0.341129,0 0.590422,-0.1002 0.747876,-0.3008 0.160341,-0.2006 0.247809,-0.5413 0.262416,-1.0222 l 0,-0.146 c -4e-6,-0.5309 -0.08164,-0.9114 -0.244932,-1.1416 -0.160362,-0.23 -0.42277,-0.3451 -0.787215,-0.3451 -0.297424,0 -0.529203,0.1283 -0.695394,0.385 -0.163281,0.2537 -0.24492,0.6239 -0.24492,1.1106 -3e-6,0.4867 0.0831,0.8525 0.249288,1.0973 0.166195,0.2419 0.403806,0.3628 0.712877,0.3628" />
      <g
         style="fill:#1a1a1a"
         transform="matrix(0.11870732,0,0,0.11870732,13.148832,915.5403)"
         id="g3781">
        <path
           inkscape:connector-curvature="0"
           id="path4298"
           style="font-style:normal;font-variant:normal;font-weight:normal;font-stretch:normal;font-size:56px;line-height:125%;font-family:'Liberation Serif';-inkscape-font-specification:'Liberation Serif';text-align:start;letter-spacing:0px;word-spacing:0px;writing-mode:lr-tb;text-anchor:start;display:inline;fill:#1a1a1a;fill-opacity:1;stroke:none"
           d="m 90.606059,1015.7074 c -6.189514,-3e-4 -10.954632,-1.9137 -14.294854,-5.7406 -3.29147,-3.827 -4.937073,-9.2191 -4.937045,-16.17702 l 0,-21.99203 c -2.8e-5,-5.81472 -1.301817,-10.1638 -3.905173,-13.04637 -2.554619,-2.93215 -6.533523,-4.49762 -11.937309,-4.69643 l 0,-3.35461 c 10.561775,-0.19923 15.842454,-6.06337 15.842482,-17.59367 l 0,-21.91769 c -2.8e-5,-7.00752 1.596477,-12.39964 4.789472,-16.17703 3.193204,-3.77705 8.007115,-5.66575 14.442427,-5.66575 l 9.947711,0 0,3.50401 -4.568738,0 c -4.470333,0 -7.663245,1.36676 -9.579056,4.1 -1.866616,2.68396 -2.799944,6.65973 -2.799917,11.92791 l 0,24.60111 c -2.7e-5,4.72169 -1.277337,8.79704 -3.831803,12.22634 -2.554327,3.37946 -5.993092,5.54122 -10.316018,6.48584 l 0,0.22351 c 4.372052,1.04347 7.81079,3.25507 10.316018,6.63481 2.554466,3.32962 3.831776,7.40504 3.831803,12.22614 l 0,24.89933 c -2.7e-5,5.2681 0.933301,9.244 2.799917,11.9281 1.915811,2.733 5.108723,4.0998 9.579056,4.0998 l 4.568738,0 0,3.504 -9.947711,0"
           inkscape:export-filename="/Users/lucacorsato/Documents/o{s}d/o{s}d_semplice.png"
           inkscape:export-xdpi="300"
           inkscape:export-ydpi="300" />
        <path
           inkscape:connector-curvature="0"
           id="path4300"
           style="font-style:normal;font-variant:normal;font-weight:normal;font-stretch:normal;font-size:56px;line-height:125%;font-family:'Liberation Serif';-inkscape-font-specification:'Liberation Serif';text-align:start;letter-spacing:0px;word-spacing:0px;writing-mode:lr-tb;text-anchor:start;display:inline;fill:#1a1a1a;fill-opacity:1;stroke:none"
           d="m 100.55377,1015.7074 0,-3.5043 4.5684,0 c 4.47024,0 7.63862,-1.3668 9.50547,-4.0998 1.91567,-2.6841 2.87378,-6.66 2.87381,-11.9281 l 0,-24.89933 c -3e-5,-4.82096 1.25239,-8.89624 3.75791,-12.22614 2.50518,-3.37974 5.96842,-5.59134 10.38961,-6.63481 l 0,-0.22351 c -4.32291,-0.94434 -7.76172,-3.13123 -10.31595,-6.56025 -2.55461,-3.42945 -3.8316,-7.47974 -3.83157,-12.15188 l 0,-24.6011 c -3e-5,-5.26818 -0.95814,-9.24395 -2.87381,-11.92792 -1.86685,-2.73323 -5.03523,-4.1 -9.50547,-4.1 l -4.5684,0 0,-3.50401 10.02108,0 c 6.38609,3e-4 11.17585,1.889 14.36881,5.66604 3.19285,3.7771 4.7893,9.16949 4.78936,16.17674 l 0,21.9177 c -6e-5,11.53024 5.28104,17.39467 15.84251,17.59361 l 0,3.35461 c -5.30534,0.19909 -9.28449,1.73929 -11.93692,4.62201 -2.60375,2.88272 -3.90565,7.25622 -3.90559,13.12079 l 0,21.99203 c -6e-5,6.90832 -1.67015,12.27582 -5.01038,16.10252 -3.29142,3.8766 -8.00717,5.8151 -14.14779,5.8151 l -10.02108,0"
           inkscape:export-filename="/Users/lucacorsato/Documents/o{s}d/o{s}d_semplice.png"
           inkscape:export-xdpi="300"
           inkscape:export-ydpi="300" />
      </g>
      <g
         transform="matrix(0.75000001,0,0,0.75000001,14.999975,251.52808)"
         id="text3777"
         style="font-style:normal;font-variant:normal;font-weight:bold;font-stretch:normal;font-size:11.18723583px;line-height:125%;font-family:'Open Sans';-inkscape-font-specification:'Open Sans Bold';text-align:start;letter-spacing:0px;word-spacing:0px;writing-mode:lr-tb;text-anchor:start;fill:#1a1a1a;fill-opacity:1;stroke:none">
        <path
           id="path4154"
           d="m 15.763183,1037.3549 q 0,0.9396 -0.655503,1.4312 -0.650039,0.4916 -1.950118,0.4916 -0.666427,0 -1.136204,-0.093 -0.469776,-0.087 -0.879465,-0.2622 l 0,-1.3765 q 0.464314,0.2185 1.043341,0.366 0.584489,0.1475 1.026953,0.1475 0.906778,0 0.906778,-0.5244 0,-0.1967 -0.120176,-0.3169 -0.120175,-0.1256 -0.415151,-0.2786 -0.294976,-0.1584 -0.786602,-0.3659 -0.704665,-0.295 -1.037879,-0.5463 -0.327751,-0.2513 -0.480701,-0.5736 -0.147488,-0.3277 -0.147488,-0.8029 0,-0.814 0.628189,-1.2564 0.633652,-0.448 1.791706,-0.448 1.103428,0 2.146769,0.4808 l -0.502551,1.2017 q -0.458852,-0.1966 -0.857616,-0.3223 -0.398763,-0.1256 -0.813915,-0.1256 -0.73744,0 -0.73744,0.3987 0,0.224 0.234889,0.3879 0.24035,0.1639 1.043341,0.4861 0.715589,0.2896 1.048803,0.5408 0.333213,0.2513 0.491627,0.5791 0.158413,0.3277 0.158413,0.7811 z"
           inkscape:connector-curvature="0" />
      </g>
    </g>
    <g
       style="font-style:normal;font-variant:normal;font-weight:normal;font-stretch:normal;font-size:12.83529663px;line-height:125%;font-family:'HelveticaNeueLT Std Med';-inkscape-font-specification:'HelveticaNeueLT Std Med, Normal';text-align:start;letter-spacing:0px;word-spacing:0px;writing-mode:lr-tb;text-anchor:start;fill:#000000;fill-opacity:1;stroke:none;stroke-width:1px;stroke-linecap:butt;stroke-linejoin:miter;stroke-opacity:1"
       id="text4347">
      <path
         d="m 2.6823768,1039.0427 q 0.4324392,0 0.9275508,0.088 l -0.1190775,0.5953 q -0.426172,-0.1065 -0.8836801,-0.1065 -0.8711456,0 -1.4289295,0.7395 -0.55778388,0.7396 -0.55778388,1.8677 l 0,3.7603 -0.62045623256981,0 0,-6.8125 0.52644771256981,0 0.0626724,1.2284 0.0438706,0 q 0.41990471,-0.7521 0.89621461,-1.0529 0.4763098,-0.3071 1.1531711,-0.3071 z"
         style="font-style:normal;font-variant:normal;font-weight:300;font-stretch:normal;font-family:'Open Sans';-inkscape-font-specification:'Open Sans Light'"
         id="path4352" />
      <path
         d="m 7.7400354,1046.1122 q -1.4853346,0 -2.3188768,-0.9151 -0.827275,-0.915 -0.827275,-2.5633 0,-1.6294 0.802206,-2.6071 0.8022061,-0.984 2.162196,-0.984 1.2033091,0 1.8989721,0.8398 0.6956633,0.8398 0.6956633,2.2813 l 0,0.5014 -4.907245,0 q 0.012535,1.4038 0.6517924,2.1434 0.6455252,0.7395 1.842567,0.7395 0.5828528,0 1.0215593,-0.082 0.4449736,-0.081 1.121835,-0.3509 l 0,0.564 q -0.5765856,0.2507 -1.0654299,0.3385 -0.4888443,0.094 -1.0779644,0.094 z m -0.1817498,-6.518 q -0.9839559,0 -1.5793431,0.6518 -0.5953873,0.6456 -0.6956631,1.8677 l 4.2115817,0 q 0,-1.1845 -0.5139132,-1.8489 -0.5139133,-0.6706 -1.4226623,-0.6706 z"
         style="font-style:normal;font-variant:normal;font-weight:300;font-stretch:normal;font-family:'Open Sans';-inkscape-font-specification:'Open Sans Light'"
         id="path4354" />
      <path
         d="m 16.194535,1045.9868 -0.156681,-1.0779 -0.05014,0 q -0.513913,0.658 -1.059162,0.9338 -0.538982,0.2695 -1.278516,0.2695 -1.002758,0 -1.560542,-0.514 -0.557783,-0.5139 -0.557783,-1.4226 0,-0.9965 0.827274,-1.548 0.833543,-0.5515 2.406619,-0.5829 l 1.297317,-0.038 0,-0.4512 q 0,-0.9714 -0.394836,-1.4666 -0.394835,-0.4951 -1.272248,-0.4951 -0.946353,0 -1.961645,0.5265 l -0.231887,-0.539 q 1.121835,-0.5264 2.218601,-0.5264 1.121835,0 1.673351,0.5828 0.557784,0.5829 0.557784,1.8175 l 0,4.5312 -0.457508,0 z m -2.506894,-0.4387 q 1.090499,0 1.717223,-0.6204 0.63299,-0.6268 0.63299,-1.7361 l 0,-0.6706 -1.190774,0.05 q -1.435197,0.069 -2.049386,0.4512 -0.607922,0.376 -0.607922,1.1783 0,0.6392 0.388569,0.9964 0.394835,0.351 1.1093,0.351 z"
         style="font-style:normal;font-variant:normal;font-weight:300;font-stretch:normal;font-family:'Open Sans';-inkscape-font-specification:'Open Sans Light'"
         id="path4356" />
      <path
         d="m 21.346203,1039.0427 q 0.739533,0 1.278516,0.2695 0.538982,0.2695 0.965154,0.9213 l 0.0376,0 q -0.0376,-0.7897 -0.0376,-1.548 l 0,-2.4505 0.614189,0 0,9.7518 -0.407371,0 -0.15668,-1.0403 -0.05014,0 q -0.777137,1.1657 -2.231136,1.1657 -1.410128,0 -2.155929,-0.8775 -0.745801,-0.8774 -0.745801,-2.557 0,-1.7673 0.739534,-2.7012 0.739534,-0.9338 2.149662,-0.9338 z m 0,0.5641 q -1.115568,0 -1.679619,0.7834 -0.557784,0.7834 -0.557784,2.275 0,2.8954 2.249937,2.8954 1.153171,0 1.692154,-0.6705 0.538982,-0.6706 0.538982,-2.2124 l 0,-0.1065 q 0,-1.5794 -0.532715,-2.2688 -0.526448,-0.6956 -1.710955,-0.6956 z"
         style="font-style:normal;font-variant:normal;font-weight:300;font-stretch:normal;font-family:'Open Sans';-inkscape-font-specification:'Open Sans Light'"
         id="path4358" />
      <path
         d="m 30.452494,1045.9868 -0.620457,0 0,-9.7518 0.620457,0 0,9.7518 z"
         style="font-style:normal;font-variant:normal;font-weight:300;font-stretch:normal;font-family:'Open Sans';-inkscape-font-specification:'Open Sans Light'"
         id="path4360" />
      <path
         d="m 35.491352,1046.1122 q -1.485334,0 -2.318876,-0.9151 -0.827275,-0.915 -0.827275,-2.5633 0,-1.6294 0.802206,-2.6071 0.802206,-0.984 2.162196,-0.984 1.203309,0 1.898972,0.8398 0.695663,0.8398 0.695663,2.2813 l 0,0.5014 -4.907245,0 q 0.01253,1.4038 0.651792,2.1434 0.645526,0.7395 1.842567,0.7395 0.582853,0 1.02156,-0.082 0.444973,-0.081 1.121835,-0.3509 l 0,0.564 q -0.576586,0.2507 -1.06543,0.3385 -0.488845,0.094 -1.077965,0.094 z m -0.181749,-6.518 q -0.983956,0 -1.579344,0.6518 -0.595387,0.6456 -0.695663,1.8677 l 4.211582,0 q 0,-1.1845 -0.513913,-1.8489 -0.513913,-0.6706 -1.422662,-0.6706 z"
         style="font-style:normal;font-variant:normal;font-weight:300;font-stretch:normal;font-family:'Open Sans';-inkscape-font-specification:'Open Sans Light'"
         id="path4362" />
      <path
         d="m 44.033592,1044.2132 q 0,0.915 -0.695664,1.4101 -0.695663,0.4889 -1.974178,0.4889 -1.366258,0 -2.168464,-0.4199 l 0,-0.6706 q 1.027827,0.5139 2.168464,0.5139 1.009024,0 1.529205,-0.3322 0.526448,-0.3384 0.526448,-0.8962 0,-0.5139 -0.419905,-0.8649 -0.413638,-0.3509 -1.366257,-0.6894 -1.02156,-0.3697 -1.435197,-0.633 -0.413638,-0.2695 -0.626724,-0.6016 -0.206818,-0.3385 -0.206818,-0.821 0,-0.7646 0.639258,-1.2096 0.645525,-0.445 1.798696,-0.445 1.103033,0 2.093256,0.4137 l -0.231887,0.564 q -1.002758,-0.4136 -1.861369,-0.4136 -0.833542,0 -1.322387,0.2757 -0.488844,0.2758 -0.488844,0.7646 0,0.5327 0.376034,0.8524 0.382302,0.3196 1.485335,0.7144 0.921283,0.3322 1.341188,0.6017 0.419905,0.2632 0.626724,0.6017 0.213086,0.3384 0.213086,0.7959 z"
         style="font-style:normal;font-variant:normal;font-weight:300;font-stretch:normal;font-family:'Open Sans';-inkscape-font-specification:'Open Sans Light'"
         id="path4364" />
      <path
         d="m 49.999999,1044.2132 q 0,0.915 -0.695663,1.4101 -0.695663,0.4889 -1.974179,0.4889 -1.366257,0 -2.168463,-0.4199 l 0,-0.6706 q 1.027827,0.5139 2.168463,0.5139 1.009025,0 1.529206,-0.3322 0.526447,-0.3384 0.526447,-0.8962 0,-0.5139 -0.419904,-0.8649 -0.413638,-0.3509 -1.366258,-0.6894 -1.021559,-0.3697 -1.435196,-0.633 -0.413638,-0.2695 -0.626724,-0.6016 -0.206819,-0.3385 -0.206819,-0.821 0,-0.7646 0.639258,-1.2096 0.645526,-0.445 1.798697,-0.445 1.103033,0 2.093256,0.4137 l -0.231888,0.564 q -1.002757,-0.4136 -1.861368,-0.4136 -0.833542,0 -1.322387,0.2757 -0.488844,0.2758 -0.488844,0.7646 0,0.5327 0.376034,0.8524 0.382301,0.3196 1.485335,0.7144 0.921283,0.3322 1.341188,0.6017 0.419905,0.2632 0.626723,0.6017 0.213086,0.3384 0.213086,0.7959 z"
         style="font-style:normal;font-variant:normal;font-weight:300;font-stretch:normal;font-family:'Open Sans';-inkscape-font-specification:'Open Sans Light'"
         id="path4366" />
    </g>
  </g>
</svg>
