<?xml version="1.0" encoding="UTF-8" standalone="no"?>
<svg
   xmlns:dc="http://purl.org/dc/elements/1.1/"
   xmlns:cc="http://creativecommons.org/ns#"
   xmlns:rdf="http://www.w3.org/1999/02/22-rdf-syntax-ns#"
   xmlns:svg="http://www.w3.org/2000/svg"
   xmlns="http://www.w3.org/2000/svg"
   xmlns:xlink="http://www.w3.org/1999/xlink"
   xmlns:sodipodi="http://sodipodi.sourceforge.net/DTD/sodipodi-0.dtd"
   xmlns:inkscape="http://www.inkscape.org/namespaces/inkscape"
   version="1.1"
   width="100%"
   height="100%"
   viewBox="-252 -205 120 61.08807"
   id="svg2"
   inkscape:version="0.48.5 r10040"
   sodipodi:docname="Lego_dimensions.svg">
  <metadata
     id="metadata179">
    <rdf:RDF>
      <cc:Work
         rdf:about="">
        <dc:format>image/svg+xml</dc:format>
        <dc:type
           rdf:resource="http://purl.org/dc/dcmitype/StillImage" />
      </cc:Work>
    </rdf:RDF>
  </metadata>
  <sodipodi:namedview
     pagecolor="#ffffff"
     bordercolor="#666666"
     borderopacity="1"
     objecttolerance="10"
     gridtolerance="10"
     guidetolerance="10"
     inkscape:pageopacity="0"
     inkscape:pageshadow="2"
     inkscape:window-width="1440"
     inkscape:window-height="851"
     id="namedview177"
     showgrid="false"
     inkscape:zoom="2.0820312"
     inkscape:cx="194.34481"
     inkscape:cy="107.07537"
     inkscape:window-x="0"
     inkscape:window-y="0"
     inkscape:window-maximized="1"
     inkscape:current-layer="layer4"
     fit-margin-top="0"
     fit-margin-left="0"
     fit-margin-right="0"
     fit-margin-bottom="0" />
  <title
     id="title4">Nominal dimensions of standard Lego bricks</title>
  <desc
     id="desc6">Nominal dimensions of standard Lego bricks from http://orionrobots.co.uk/Lego+Specifications and http://www.dimensionsguide.com/dimensions-of-a-standard-lego-brick , compiled by CMG Lee.</desc>
  <defs
     id="defs8">
    <linearGradient
       id="grad"
       x1="0"
       y1="0"
       x2="1"
       y2="0">
      <stop
         offset="20%"
         stop-color="#000000"
         stop-opacity="0.25"
         id="stop11" />
      <stop
         offset="80%"
         stop-color="#000000"
         stop-opacity="0.5"
         id="stop13" />
    </linearGradient>
    <path
       id="arrow"
       d="M 0,0 5,10 Q 0,0 -5,10 z"
       inkscape:connector-curvature="0"
       style="stroke:none" />
    <text
       id="stud_text"
       transform="matrix(0.69282032,-0.4,0.5,0.8660254,0,0)"
       x="0"
       y="0"
       dy="-1.7224846e-26"
       text-align="middle"
       font-size="16"
       font-style="italic"
       style="font-size:16px;font-style:italic;stroke:none">LEGO</text>
    <g
       id="stud">
      <ellipse
         cx="6"
         cy="3"
         rx="30.618601"
         ry="17.6777"
         id="ellipse18"
         d="m 36.618601,3 c 0,9.763124 -13.708415,17.6777 -30.618601,17.6777 -16.910186,0 -30.618601,-7.914576 -30.618601,-17.6777 0,-9.7631241 13.708415,-17.6777 30.618601,-17.6777 16.910186,0 30.618601,7.9145759 30.618601,17.6777 z"
         sodipodi:cx="6"
         sodipodi:cy="3"
         sodipodi:rx="30.618601"
         sodipodi:ry="17.6777"
         style="fill:#000000;fill-opacity:0.25;stroke:none" />
      <path
         d="m -30.6186,-17 a 30.6186,17.6777 0 0 1 61.2372,0 V 0 a 30.6186,17.6777 0 0 1 -61.2372,0 z"
         id="path20"
         inkscape:connector-curvature="0" />
      <path
         d="m -30.6186,-17 a 30.6186,17.6777 0 0 0 61.2372,0 V 0 a 30.6186,17.6777 0 0 1 -61.2372,0 z"
         id="path22"
         inkscape:connector-curvature="0"
         style="fill:url(#grad)" />
      <use
         transform="translate(1,-16)"
         xlink:href="#stud_text"
         id="use24"
         style="fill:#000000"
         x="0"
         y="0"
         width="512"
         height="256" />
      <use
         transform="translate(0,-17)"
         xlink:href="#stud_text"
         id="use26"
         x="0"
         y="0"
         width="512"
         height="256" />
    </g>
    <g
       id="brick">
      <path
         d="M 0,40 69.282,0 V -96 L 0,-136 -69.282,-96 V 0 z"
         id="path29"
         inkscape:connector-curvature="0" />
      <path
         d="M 0,40 V -56 L 69.282,-96 V 0 z"
         id="path31"
         inkscape:connector-curvature="0"
         style="fill:#000000;fill-opacity:0.5" />
      <path
         d="M 0,40 V -56 L -69.282,-96 V 0 z"
         id="path33"
         inkscape:connector-curvature="0"
         style="fill:#000000;fill-opacity:0.25" />
      <use
         transform="translate(0,-96)"
         xlink:href="#stud"
         id="use35"
         x="0"
         y="0"
         width="512"
         height="256" />
    </g>
    <g
       id="plate">
      <path
         d="M 0,40 69.282,0 v -32 l -138.564,-80 -69.282,40 v 32 z"
         id="path38"
         inkscape:connector-curvature="0" />
      <path
         d="M 0,40 V 8 L 69.282,-32 V 0 z"
         id="path40"
         inkscape:connector-curvature="0"
         style="fill:#000000;fill-opacity:0.5" />
      <path
         d="M 0,40 V 8 l -138.564,-80 v 32 z"
         id="path42"
         inkscape:connector-curvature="0"
         style="fill:#000000;fill-opacity:0.25" />
      <use
         transform="translate(-69.282,-72)"
         xlink:href="#stud"
         id="use44"
         x="0"
         y="0"
         width="512"
         height="256" />
      <use
         transform="translate(0,-32)"
         xlink:href="#stud"
         id="use46"
         x="0"
         y="0"
         width="512"
         height="256" />
    </g>
    <g
       id="main"
       font-size="16"
       style="font-size:16px;text-anchor:middle;fill:#000000;stroke:#000000;stroke-linecap:round;stroke-linejoin:round;font-family:sans-serif">
      <g
         transform="translate(10,-5)"
         id="g49">
        <use
           transform="translate(69.282,-40)"
           xlink:href="#brick"
           id="use51"
           style="fill:#ffcc00"
           x="0"
           y="0"
           width="512"
           height="256" />
        <text
           x="69"
           y="-186"
           id="text53"
           style="text-anchor:middle;stroke:none">4.8 mm</text>
        <line
           x1="39"
           y1="-180"
           x2="100"
           y2="-180"
           id="line55" />
        <use
           xlink:href="#arrow"
           transform="matrix(0,-1,1,0,39,-180)"
           id="use57"
           x="0"
           y="0"
           width="512"
           height="256" />
        <use
           xlink:href="#arrow"
           transform="matrix(0,1,-1,0,100,-180)"
           id="use59"
           x="0"
           y="0"
           width="512"
           height="256" />
        <line
           x1="39"
           y1="-161"
           x2="39"
           y2="-185"
           id="line61" />
        <line
           x1="100"
           y1="-161"
           x2="100"
           y2="-185"
           id="line63" />
        <text
           x="160"
           y="-170"
           id="text65"
           style="text-anchor:start;stroke:none">1.7 mm</text>
        <line
           x1="147"
           y1="-176"
           x2="147"
           y2="-159"
           id="line67" />
        <use
           xlink:href="#arrow"
           transform="translate(147,-176)"
           id="use69"
           x="0"
           y="0"
           width="512"
           height="256" />
        <use
           xlink:href="#arrow"
           transform="matrix(-1,0,0,-1,147,-159)"
           id="use71"
           x="0"
           y="0"
           width="512"
           height="256" />
        <line
           x1="102"
           y1="-150"
           x2="156"
           y2="-181"
           id="line73" />
        <line
           x1="102"
           y1="-133"
           x2="156"
           y2="-164"
           id="line75" />
        <text
           x="150"
           y="-80"
           id="text77"
           style="text-anchor:start;stroke:none">
          <tspan
             id="tspan79">H = 9.6 mm</tspan>
          <tspan
             x="165"
             dy="0"
             id="tspan81">= 3 × h</tspan>
          <tspan
             x="165"
             dy="0"
             id="tspan83">= 1.2 × P</tspan>
        </text>
        <line
           x1="147"
           y1="-131"
           x2="147"
           y2="-35"
           id="line85" />
        <use
           xlink:href="#arrow"
           transform="translate(147,-131)"
           id="use87"
           x="0"
           y="0"
           width="512"
           height="256" />
        <use
           xlink:href="#arrow"
           transform="matrix(-1,0,0,-1,147,-35)"
           id="use89"
           x="0"
           y="0"
           width="512"
           height="256" />
        <text
           x="130"
           y="0"
           id="text91"
           style="text-anchor:start;stroke:none">
          <tspan
             id="tspan93">P − 0.2 mm</tspan>
          <tspan
             x="130"
             dy="0"
             id="tspan95">= 7.8 mm</tspan>
        </text>
        <line
           x1="78"
           y1="5"
           x2="147"
           y2="-35"
           id="line97" />
        <use
           xlink:href="#arrow"
           transform="matrix(-0.5,-0.8660254,0.8660254,-0.5,78,5)"
           id="use99"
           x="0"
           y="0"
           width="512"
           height="256" />
        <use
           xlink:href="#arrow"
           transform="matrix(0.5,0.8660254,-0.8660254,0.5,147,-35)"
           id="use101"
           x="0"
           y="0"
           width="512"
           height="256" />
        <line
           x1="142"
           y1="-134"
           x2="156"
           y2="-126"
           id="line103" />
        <line
           x1="142"
           y1="-38"
           x2="156"
           y2="-30"
           id="line105" />
        <line
           x1="73"
           y1="2"
           x2="87"
           y2="10"
           id="line107" />
      </g>
      <g
         id="g109">
        <use
           xlink:href="#plate"
           id="use111"
           style="fill:#ff0000"
           x="0"
           y="0"
           width="512"
           height="256" />
        <text
           x="-170"
           y="-190"
           id="text113"
           style="text-anchor:start;stroke:none">
          <tspan
             id="tspan115">P = 8.0 mm</tspan>
          <tspan
             x="-155"
             dy="0"
             id="tspan117">= 5/6 × H</tspan>
          <tspan
             x="-155"
             dy="0"
             id="tspan119">= 2.5 × h</tspan>
        </text>
        <line
           x1="0"
           y1="-150"
           x2="-69"
           y2="-190"
           id="line121" />
        <use
           xlink:href="#arrow"
           transform="matrix(-0.5,0.8660254,-0.8660254,-0.5,0,-150)"
           id="use123"
           x="0"
           y="0"
           width="512"
           height="256" />
        <use
           xlink:href="#arrow"
           transform="matrix(0.5,-0.8660254,0.8660254,0.5,-69,-190)"
           id="use125"
           x="0"
           y="0"
           width="512"
           height="256" />
        <line
           x1="0"
           y1="-50"
           x2="0"
           y2="-160"
           id="line127" />
        <line
           x1="-69"
           y1="-90"
           x2="-69"
           y2="-200"
           id="line129" />
        <text
           x="-32"
           y="-130"
           id="text131"
           style="text-anchor:middle;stroke:none">3.2 mm</text>
        <line
           x1="-24"
           y1="-105"
           x2="-48"
           y2="-120"
           id="line133" />
        <use
           xlink:href="#arrow"
           transform="matrix(-0.5,0.8660254,-0.8660254,-0.5,-24,-105)"
           id="use135"
           x="0"
           y="0"
           width="512"
           height="256" />
        <use
           xlink:href="#arrow"
           transform="matrix(0.5,-0.8660254,0.8660254,0.5,-48,-120)"
           id="use137"
           x="0"
           y="0"
           width="512"
           height="256" />
        <line
           x1="-24"
           y1="-62"
           x2="-24"
           y2="-110"
           id="line139" />
        <line
           x1="-48"
           y1="-78"
           x2="-48"
           y2="-125"
           id="line141" />
        <text
           x="-90"
           y="20"
           id="text143"
           style="text-anchor:end;stroke:none">
          <tspan
             id="tspan145">2 × P − 0.2 mm</tspan>
          <tspan
             x="-90"
             dy="0"
             id="tspan147">= 15.8 mm</tspan>
        </text>
        <line
           x1="-9"
           y1="45"
           x2="-147"
           y2="-35"
           id="line149" />
        <use
           xlink:href="#arrow"
           transform="matrix(-0.5,0.8660254,-0.8660254,-0.5,-9,45)"
           id="use151"
           x="0"
           y="0"
           width="512"
           height="256" />
        <use
           xlink:href="#arrow"
           transform="matrix(0.5,-0.8660254,0.8660254,0.5,-147,-35)"
           id="use153"
           x="0"
           y="0"
           width="512"
           height="256" />
        <text
           x="-247"
           y="-60"
           id="text155"
           style="text-anchor:start;stroke:none">
          <tspan
             id="tspan157">h = 3.2 mm</tspan>
          <tspan
             x="-235"
             dy="0"
             id="tspan159">= 1/3 × H</tspan>
          <tspan
             x="-235"
             dy="0"
             id="tspan161">= 0.4 × P</tspan>
        </text>
        <line
           x1="-147"
           y1="-67"
           x2="-147"
           y2="-35"
           id="line163" />
        <use
           xlink:href="#arrow"
           transform="translate(-147,-67)"
           id="use165"
           x="0"
           y="0"
           width="512"
           height="256" />
        <use
           xlink:href="#arrow"
           transform="matrix(-1,0,0,-1,-147,-35)"
           id="use167"
           x="0"
           y="0"
           width="512"
           height="256" />
        <line
           x1="-142"
           y1="-70"
           x2="-156"
           y2="-62"
           id="line169" />
        <line
           x1="-142"
           y1="-38"
           x2="-156"
           y2="-30"
           id="line171" />
        <line
           x1="-3"
           y1="42"
           x2="-17"
           y2="50"
           id="line173" />
      </g>
    </g>
    <linearGradient
       inkscape:collect="always"
       xlink:href="#grad"
       id="linearGradient3565"
       gradientUnits="userSpaceOnUse"
       gradientTransform="matrix(1.3207682,0,0,0.75713513,79.282,-141)"
       x1="-23.560986"
       y1="-23.113443"
       x2="23.560986"
       y2="-23.113443" />
    <linearGradient
       inkscape:collect="always"
       xlink:href="#grad"
       id="linearGradient4374"
       x1="-23.560986"
       y1="-23.113443"
       x2="23.560986"
       y2="-23.113443"
       gradientTransform="scale(1.3207682,0.75713513)"
       gradientUnits="userSpaceOnUse" />
    <linearGradient
       inkscape:collect="always"
       xlink:href="#grad"
       id="linearGradient4379"
       gradientUnits="userSpaceOnUse"
       gradientTransform="matrix(1.3207682,0,0,0.75713513,-69.282,-72)"
       x1="-23.560986"
       y1="-23.113443"
       x2="23.560986"
       y2="-23.113443" />
    <linearGradient
       inkscape:collect="always"
       xlink:href="#grad"
       id="linearGradient4395"
       x1="-23.560986"
       y1="-23.113443"
       x2="23.560986"
       y2="-23.113443"
       gradientTransform="scale(1.3207682,0.75713513)"
       gradientUnits="userSpaceOnUse" />
    <linearGradient
       inkscape:collect="always"
       xlink:href="#grad"
       id="linearGradient4400"
       gradientUnits="userSpaceOnUse"
       gradientTransform="matrix(1.3207682,0,0,0.75713513,0,-32)"
       x1="-23.560986"
       y1="-23.113443"
       x2="23.560986"
       y2="-23.113443" />
    <linearGradient
       inkscape:collect="always"
       xlink:href="#grad"
       id="linearGradient4415"
       gradientUnits="userSpaceOnUse"
       gradientTransform="matrix(1.3207682,0,0,0.75713513,-69.282,-72)"
       x1="-23.560986"
       y1="-23.113443"
       x2="23.560986"
       y2="-23.113443" />
    <linearGradient
       inkscape:collect="always"
       xlink:href="#grad"
       id="linearGradient4417"
       gradientUnits="userSpaceOnUse"
       gradientTransform="matrix(1.3207682,0,0,0.75713513,0,-32)"
       x1="-23.560986"
       y1="-23.113443"
       x2="23.560986"
       y2="-23.113443" />
  </defs>
  <g
     inkscape:groupmode="layer"
     id="layer1"
     inkscape:label="misure"
     style="display:inline"
     transform="translate(-4.0191675,-194.41295)">
    <text
       id="text3162"
       y="-7.7241693"
       x="-169.15067"
       style="font-size:3.85735965px;text-anchor:middle;fill:#000000;stroke:none;font-family:sans-serif">4.8 mm</text>
    <text
       id="text3174"
       y="-3.8668122"
       x="-147.21194"
       style="font-size:3.85735965px;text-anchor:start;fill:#000000;stroke:none;font-family:sans-serif">1.7 mm</text>
    <text
       id="text3240"
       y="6.9820118"
       x="-195.91109"
       style="font-size:3.85735965px;text-anchor:middle;fill:#000000;stroke:none;font-family:sans-serif">3.2 mm</text>
    <g
       id="g3435"
       transform="matrix(0.24108497,0,0,0.24108497,-188.19638,38.323061)">
      <text
         id="text3408"
         y="-189.49055"
         x="-164.4151"
         style="font-size:16px;text-anchor:start;fill:#000000;stroke:none;font-family:sans-serif">P = 8.0mm</text>
      <text
         style="font-size:16px;text-anchor:start;fill:#000000;stroke:none;font-family:sans-serif"
         x="-149.61531"
         y="-171.49055"
         id="text3412">= 5/6 x H</text>
      <text
         id="text3414"
         y="-153.49055"
         x="-148.99532"
         style="font-size:16px;text-anchor:start;fill:#000000;stroke:none;font-family:sans-serif">= 2.5 x h</text>
    </g>
    <g
       id="g3440"
       transform="matrix(0.24108497,0,0,0.24108497,-181.60066,66.561844)">
      <text
         style="font-size:16px;text-anchor:start;fill:#000000;stroke:none;font-family:sans-serif"
         x="-276.79245"
         y="-176.20753"
         id="text3423">h = 3.2mm</text>
      <text
         id="text3425"
         y="-158.20753"
         x="-261.7923"
         style="font-size:16px;text-anchor:start;fill:#000000;stroke:none;font-family:sans-serif">= 1/3 x H</text>
      <text
         style="font-size:16px;text-anchor:start;fill:#000000;stroke:none;font-family:sans-serif"
         x="-261.7923"
         y="-140.20753"
         id="text3427">= 0.4 x P</text>
    </g>
    <text
       style="font-size:3.85735965px;text-anchor:start;fill:#000000;stroke:none;font-family:sans-serif"
       x="-233.86606"
       y="43.367657"
       id="text3447">2 x P - 0.2mm</text>
    <text
       id="text3449"
       y="47.707188"
       x="-227.11554"
       style="font-size:3.85735965px;text-anchor:start;fill:#000000;stroke:none;font-family:sans-serif">= 15.8mm</text>
    <g
       id="g3453"
       transform="matrix(0.24108497,0,0,0.24108497,-109.59358,60.448294)">
      <text
         style="font-size:16px;text-anchor:start;fill:#000000;stroke:none;font-family:sans-serif"
         x="-164.4151"
         y="-189.49055"
         id="text3455">H= 9.6mm</text>
      <text
         id="text3457"
         y="-171.49055"
         x="-149.61531"
         style="font-size:16px;text-anchor:start;fill:#000000;stroke:none;font-family:sans-serif">= 3 x h</text>
      <text
         style="font-size:16px;text-anchor:start;fill:#000000;stroke:none;font-family:sans-serif"
         x="-148.99532"
         y="-153.49055"
         id="text3459">= 1.2 x P</text>
    </g>
    <text
       id="text3463"
       y="37.545219"
       x="-154.33533"
       style="font-size:3.85735965px;text-anchor:start;fill:#000000;stroke:none;font-family:sans-serif">P - 0.2mm</text>
    <text
       style="font-size:3.85735965px;text-anchor:start;fill:#000000;stroke:none;font-family:sans-serif"
       x="-152.40649"
       y="41.884754"
       id="text3465">= 7.8mm</text>
  </g>
  <g
     inkscape:groupmode="layer"
     id="layer2"
     inkscape:label="quote"
     style="display:inline"
     transform="translate(-4.0191675,-194.41295)">
    <line
       style="font-size:16px;text-anchor:middle;fill:#000000;stroke:#000000;stroke-width:0.24108498;stroke-linecap:round;stroke-linejoin:round;font-family:sans-serif"
       id="line3164"
       y2="-6.2776589"
       x2="-161.67703"
       y1="-6.2776589"
       x1="-176.38321" />
    <line
       style="font-size:16px;text-anchor:middle;fill:#000000;stroke:#000000;stroke-width:0.24108498;stroke-linecap:round;stroke-linejoin:round;font-family:sans-serif"
       id="line3170"
       y2="-7.4830842"
       x2="-176.38321"
       y1="-1.6970468"
       x1="-176.38321" />
    <use
       style="font-size:16px;text-anchor:middle;fill:#000000;stroke:#000000;stroke-linecap:round;stroke-linejoin:round;font-family:sans-serif"
       id="use3180"
       transform="matrix(-0.24108497,0,0,-0.24108497,-150.34604,-1.214876)"
       xlink:href="#arrow"
       x="0"
       y="0"
       width="1"
       height="1" />
    <line
       style="font-size:16px;text-anchor:middle;fill:#000000;stroke:#000000;stroke-width:0.24108498;stroke-linecap:round;stroke-linejoin:round;font-family:sans-serif"
       id="line3182"
       y2="-6.518744"
       x2="-148.17627"
       y1="0.95488894"
       x1="-161.19485" />
    <line
       style="font-size:16px;text-anchor:middle;fill:#000000;stroke:#000000;stroke-width:0.24108498;stroke-linecap:round;stroke-linejoin:round;font-family:sans-serif"
       id="line3184"
       y2="-2.4203019"
       x2="-148.17627"
       y1="5.0533347"
       x1="-161.19485" />
    <line
       style="font-size:16px;text-anchor:middle;fill:#000000;stroke:#000000;stroke-width:0.24108498;stroke-linecap:round;stroke-linejoin:round;font-family:sans-serif"
       id="line3194"
       y2="28.679661"
       x2="-150.34604"
       y1="5.5355053"
       x1="-150.34604" />
    <line
       style="font-size:16px;text-anchor:middle;fill:#000000;stroke:#000000;stroke-width:0.24108498;stroke-linecap:round;stroke-linejoin:round;font-family:sans-serif"
       id="line3206"
       y2="28.679661"
       x2="-150.34604"
       y1="38.323063"
       x1="-166.9809" />
    <line
       style="font-size:16px;text-anchor:middle;fill:#000000;stroke:#000000;stroke-width:0.24108498;stroke-linecap:round;stroke-linejoin:round;font-family:sans-serif"
       id="line3212"
       y2="6.7409301"
       x2="-148.17627"
       y1="4.8122497"
       x1="-151.55147" />
    <line
       style="font-size:16px;text-anchor:middle;fill:#000000;stroke:#000000;stroke-width:0.24108498;stroke-linecap:round;stroke-linejoin:round;font-family:sans-serif"
       id="line3214"
       y2="29.885088"
       x2="-148.17627"
       y1="27.956409"
       x1="-151.55147" />
    <line
       style="font-size:16px;text-anchor:middle;fill:#000000;stroke:#000000;stroke-width:0.24108498;stroke-linecap:round;stroke-linejoin:round;font-family:sans-serif"
       id="line3216"
       y2="39.528481"
       x2="-164.81111"
       y1="37.599804"
       x1="-168.18634" />
    <line
       style="font-size:16px;text-anchor:middle;fill:#000000;stroke:#000000;stroke-width:0.24108498;stroke-linecap:round;stroke-linejoin:round;font-family:sans-serif"
       id="line3230"
       y2="-7.4830842"
       x2="-204.83124"
       y1="2.1603141"
       x1="-188.19638" />
    <line
       style="font-size:16px;text-anchor:middle;fill:#000000;stroke:#000000;stroke-width:0.24108498;stroke-linecap:round;stroke-linejoin:round;font-family:sans-serif"
       id="line3236"
       y2="-0.25053638"
       x2="-188.19638"
       y1="26.268808"
       x1="-188.19638" />
    <line
       style="font-size:16px;text-anchor:middle;fill:#000000;stroke:#000000;stroke-width:0.24108498;stroke-linecap:round;stroke-linejoin:round;font-family:sans-serif"
       id="line3238"
       y2="-9.8939352"
       x2="-204.83124"
       y1="16.625414"
       x1="-204.83124" />
    <line
       style="font-size:16px;text-anchor:middle;fill:#000000;stroke:#000000;stroke-width:0.24108498;stroke-linecap:round;stroke-linejoin:round;font-family:sans-serif"
       id="line3242"
       y2="9.3928623"
       x2="-199.76845"
       y1="13.009139"
       x1="-193.98242" />
    <line
       style="font-size:16px;text-anchor:middle;fill:#000000;stroke:#000000;stroke-width:0.24108498;stroke-linecap:round;stroke-linejoin:round;font-family:sans-serif"
       id="line3248"
       y2="11.803713"
       x2="-193.98242"
       y1="23.375788"
       x1="-193.98242" />
    <line
       style="font-size:16px;text-anchor:middle;fill:#000000;stroke:#000000;stroke-width:0.24108498;stroke-linecap:round;stroke-linejoin:round;font-family:sans-serif"
       id="line3250"
       y2="8.1874371"
       x2="-199.76845"
       y1="19.518435"
       x1="-199.76845" />
    <line
       style="font-size:16px;text-anchor:middle;fill:#000000;stroke:#000000;stroke-width:0.24108498;stroke-linecap:round;stroke-linejoin:round;font-family:sans-serif"
       id="line3258"
       y2="29.885088"
       x2="-223.63586"
       y1="49.171886"
       x1="-190.36615" />
    <line
       style="font-size:16px;text-anchor:middle;fill:#000000;stroke:#000000;stroke-width:0.24108498;stroke-linecap:round;stroke-linejoin:round;font-family:sans-serif"
       id="line3272"
       y2="29.885088"
       x2="-223.63586"
       y1="22.170366"
       x1="-223.63586" />
    <line
       style="font-size:16px;text-anchor:middle;fill:#000000;stroke:#000000;stroke-width:0.24108498;stroke-linecap:round;stroke-linejoin:round;font-family:sans-serif"
       id="line3278"
       y2="23.375788"
       x2="-225.80563"
       y1="21.447115"
       x1="-222.43045" />
    <line
       style="font-size:16px;text-anchor:middle;fill:#000000;stroke:#000000;stroke-width:0.24108498;stroke-linecap:round;stroke-linejoin:round;font-family:sans-serif"
       id="line3280"
       y2="31.090509"
       x2="-225.80563"
       y1="29.161831"
       x1="-222.43045" />
    <line
       style="font-size:16px;text-anchor:middle;fill:#000000;stroke:#000000;stroke-width:0.24108498;stroke-linecap:round;stroke-linejoin:round;font-family:sans-serif"
       id="line3282"
       y2="50.377308"
       x2="-192.29483"
       y1="48.448627"
       x1="-188.91965" />
    <use
       style="font-size:16px;text-anchor:middle;fill:#000000;stroke:#000000;stroke-linecap:round;stroke-linejoin:round;font-family:sans-serif"
       id="use3166"
       transform="matrix(0,-0.24108497,0.24108497,0,-176.38322,-6.2776602)"
       xlink:href="#arrow"
       x="0"
       y="0"
       width="1"
       height="1" />
    <line
       style="font-size:16px;text-anchor:middle;fill:#000000;stroke:#000000;stroke-width:0.24108498;stroke-linecap:round;stroke-linejoin:round;font-family:sans-serif"
       id="line3172"
       y2="-7.4830842"
       x2="-161.67703"
       y1="-1.6970468"
       x1="-161.67703" />
    <line
       style="font-size:16px;text-anchor:middle;fill:#000000;stroke:#000000;stroke-width:0.24108498;stroke-linecap:round;stroke-linejoin:round;font-family:sans-serif"
       id="line3176"
       y2="-1.2148767"
       x2="-150.34604"
       y1="-5.3133187"
       x1="-150.34604" />
    <use
       style="font-size:16px;text-anchor:middle;fill:#000000;stroke:#000000;stroke-linecap:round;stroke-linejoin:round;font-family:sans-serif"
       id="use3178"
       transform="matrix(0.24108497,0,0,0.24108497,-150.34604,-5.3133201)"
       xlink:href="#arrow"
       x="0"
       y="0"
       width="1"
       height="1" />
    <use
       style="font-size:16px;text-anchor:middle;fill:#000000;stroke:#000000;stroke-linecap:round;stroke-linejoin:round;font-family:sans-serif"
       id="use3196"
       transform="matrix(0.24108497,0,0,0.24108497,-150.34604,5.5355042)"
       xlink:href="#arrow"
       x="0"
       y="0"
       width="1"
       height="1" />
    <use
       style="font-size:16px;text-anchor:middle;fill:#000000;stroke:#000000;stroke-linecap:round;stroke-linejoin:round;font-family:sans-serif"
       id="use3198"
       transform="matrix(-0.24108497,0,0,-0.24108497,-150.34604,28.679661)"
       xlink:href="#arrow"
       x="0"
       y="0"
       width="1"
       height="1" />
    <use
       style="font-size:16px;text-anchor:middle;fill:#000000;stroke:#000000;stroke-linecap:round;stroke-linejoin:round;font-family:sans-serif"
       id="use3208"
       transform="matrix(-0.12054248,-0.20878571,0.20878571,-0.12054248,-166.9809,38.323061)"
       xlink:href="#arrow"
       x="0"
       y="0"
       width="1"
       height="1" />
    <use
       style="font-size:16px;text-anchor:middle;fill:#000000;stroke:#000000;stroke-linecap:round;stroke-linejoin:round;font-family:sans-serif"
       id="use3210"
       transform="matrix(0.12054248,0.20878571,-0.20878571,0.12054248,-150.34604,28.679661)"
       xlink:href="#arrow"
       x="0"
       y="0"
       width="1"
       height="1" />
    <use
       style="font-size:16px;text-anchor:middle;fill:#000000;stroke:#000000;stroke-linecap:round;stroke-linejoin:round;font-family:sans-serif"
       id="use3232"
       transform="matrix(-0.12054248,0.20878571,-0.20878571,-0.12054248,-188.19638,2.1603141)"
       xlink:href="#arrow"
       x="0"
       y="0"
       width="1"
       height="1" />
    <use
       style="font-size:16px;text-anchor:middle;fill:#000000;stroke:#000000;stroke-linecap:round;stroke-linejoin:round;font-family:sans-serif"
       id="use3234"
       transform="matrix(0.12054248,-0.20878571,0.20878571,0.12054248,-204.83125,-7.4830842)"
       xlink:href="#arrow"
       x="0"
       y="0"
       width="1"
       height="1" />
    <use
       style="font-size:16px;text-anchor:middle;fill:#000000;stroke:#000000;stroke-linecap:round;stroke-linejoin:round;font-family:sans-serif"
       id="use3244"
       transform="matrix(-0.12054248,0.20878571,-0.20878571,-0.12054248,-193.98243,13.009139)"
       xlink:href="#arrow"
       x="0"
       y="0"
       width="1"
       height="1" />
    <use
       style="font-size:16px;text-anchor:middle;fill:#000000;stroke:#000000;stroke-linecap:round;stroke-linejoin:round;font-family:sans-serif"
       id="use3246"
       transform="matrix(0.12054248,-0.20878571,0.20878571,0.12054248,-199.76846,9.3928626)"
       xlink:href="#arrow"
       x="0"
       y="0"
       width="1"
       height="1" />
    <use
       style="font-size:16px;text-anchor:middle;fill:#000000;stroke:#000000;stroke-linecap:round;stroke-linejoin:round;font-family:sans-serif"
       id="use3260"
       transform="matrix(-0.12054248,0.20878571,-0.20878571,-0.12054248,-190.36614,49.171884)"
       xlink:href="#arrow"
       x="0"
       y="0"
       width="1"
       height="1" />
    <use
       style="font-size:16px;text-anchor:middle;fill:#000000;stroke:#000000;stroke-linecap:round;stroke-linejoin:round;font-family:sans-serif"
       id="use3262"
       transform="matrix(0.12054248,-0.20878571,0.20878571,0.12054248,-223.63586,29.885087)"
       xlink:href="#arrow"
       x="0"
       y="0"
       width="1"
       height="1" />
    <use
       style="font-size:16px;text-anchor:middle;fill:#000000;stroke:#000000;stroke-linecap:round;stroke-linejoin:round;font-family:sans-serif"
       id="use3274"
       transform="matrix(0.24108497,0,0,0.24108497,-223.63586,22.170367)"
       xlink:href="#arrow"
       x="0"
       y="0"
       width="1"
       height="1" />
    <use
       style="font-size:16px;text-anchor:middle;fill:#000000;stroke:#000000;stroke-linecap:round;stroke-linejoin:round;font-family:sans-serif"
       id="use3276"
       transform="matrix(-0.24108497,0,0,-0.24108497,-223.63586,29.885087)"
       xlink:href="#arrow"
       x="0"
       y="0"
       width="1"
       height="1" />
    <use
       style="font-size:16px;text-anchor:middle;fill:#000000;stroke:#000000;stroke-linecap:round;stroke-linejoin:round;font-family:sans-serif"
       id="use3168"
       transform="matrix(0,0.24108497,-0.24108497,0,-161.67704,-6.2776602)"
       xlink:href="#arrow"
       x="0"
       y="0"
       width="1"
       height="1" />
  </g>
  <g
     inkscape:groupmode="layer"
     id="layer3"
     inkscape:label="blu"
     style="display:inline"
     transform="translate(-4.0191675,-194.41295)">
    <g
       id="g4337"
       transform="matrix(0.24108497,0,0,0.24108497,-188.19638,38.323061)">
      <path
         id="path3536"
         d="m 79.282,-5 69.282,-40 v -96 L 79.282,-181 10,-141 v 96 z"
         inkscape:connector-curvature="0"
         style="font-size:16px;text-anchor:middle;fill:#002fa7;fill-opacity:1;stroke:#000000;stroke-linecap:round;stroke-linejoin:round;font-family:sans-serif" />
      <path
         id="path3538"
         d="m 79.282,-5 v -96 l 69.282,-40 v 96 z"
         inkscape:connector-curvature="0"
         style="font-size:16px;text-anchor:middle;fill:#000000;fill-opacity:0.5;stroke:#000000;stroke-linecap:round;stroke-linejoin:round;font-family:sans-serif" />
      <path
         id="path3540"
         d="m 79.282,-5 v -96 L 10,-141 v 96 z"
         inkscape:connector-curvature="0"
         style="font-size:16px;text-anchor:middle;fill:#000000;fill-opacity:0.25;stroke:#000000;stroke-linecap:round;stroke-linejoin:round;font-family:sans-serif" />
      <ellipse
         transform="translate(79.282,-141)"
         d="m 36.618601,3 c 0,9.763124 -13.708415,17.6777 -30.618601,17.6777 -16.910186,0 -30.618601,-7.914576 -30.618601,-17.6777 0,-9.7631241 13.708415,-17.6777 30.618601,-17.6777 16.910186,0 30.618601,7.9145759 30.618601,17.6777 z"
         id="ellipse3550"
         ry="17.6777"
         rx="30.618601"
         cy="3"
         cx="6"
         sodipodi:cx="6"
         sodipodi:cy="3"
         sodipodi:rx="30.618601"
         sodipodi:ry="17.6777"
         style="font-size:16px;text-anchor:middle;fill:#000000;fill-opacity:0.25;stroke:none;font-family:sans-serif" />
      <path
         id="path3552"
         d="m 48.6634,-158 a 30.6186,17.6777 0 1 1 61.2372,0 v 17 a 30.6186,17.6777 0 0 1 -61.2372,0 z"
         inkscape:connector-curvature="0"
         style="font-size:16px;text-anchor:middle;fill:#002fa7;fill-opacity:1;stroke:#000000;stroke-linecap:round;stroke-linejoin:round;font-family:sans-serif" />
      <path
         id="path3554"
         d="m 48.6634,-158 a 30.6186,17.6777 0 0 0 61.2372,0 v 17 a 30.6186,17.6777 0 0 1 -61.2372,0 z"
         inkscape:connector-curvature="0"
         style="font-size:16px;text-anchor:middle;fill:url(#linearGradient3565);stroke:#000000;stroke-linecap:round;stroke-linejoin:round;font-family:sans-serif" />
    </g>
  </g>
  <g
     inkscape:groupmode="layer"
     id="layer4"
     inkscape:label="rosa"
     style="display:inline"
     transform="translate(-4.0191675,-194.41295)">
    <g
       id="g4404"
       transform="matrix(0.24108497,0,0,0.24108497,-188.19638,38.323061)">
      <path
         id="path4347"
         d="M 0,40 69.282,0 v -32 l -138.564,-80 -69.282,40 v 32 z"
         inkscape:connector-curvature="0"
         style="font-size:16px;text-anchor:middle;fill:#ea5480;fill-opacity:1;stroke:#000000;stroke-linecap:round;stroke-linejoin:round;font-family:sans-serif" />
      <path
         id="path4349"
         d="M 0,40 V 8 L 69.282,-32 V 0 z"
         inkscape:connector-curvature="0"
         style="font-size:16px;text-anchor:middle;fill:#000000;fill-opacity:0.5;stroke:#000000;stroke-linecap:round;stroke-linejoin:round;font-family:sans-serif" />
      <path
         id="path4351"
         d="M 0,40 V 8 l -138.564,-80 v 32 z"
         inkscape:connector-curvature="0"
         style="font-size:16px;text-anchor:middle;fill:#000000;fill-opacity:0.25;stroke:#000000;stroke-linecap:round;stroke-linejoin:round;font-family:sans-serif" />
      <ellipse
         transform="translate(-69.282,-72)"
         d="m 36.618601,3 c 0,9.763124 -13.708415,17.6777 -30.618601,17.6777 -16.910186,0 -30.618601,-7.914576 -30.618601,-17.6777 0,-9.7631241 13.708415,-17.6777 30.618601,-17.6777 16.910186,0 30.618601,7.9145759 30.618601,17.6777 z"
         id="ellipse4364"
         ry="17.6777"
         rx="30.618601"
         cy="3"
         cx="6"
         sodipodi:cx="6"
         sodipodi:cy="3"
         sodipodi:rx="30.618601"
         sodipodi:ry="17.6777"
         style="font-size:16px;text-anchor:middle;fill:#000000;fill-opacity:0.25;stroke:none;font-family:sans-serif" />
      <path
         id="path4366"
         d="m -99.9006,-89 a 30.6186,17.6777 0 1 1 61.2372,0 v 17 a 30.6186,17.6777 0 0 1 -61.2372,0 z"
         inkscape:connector-curvature="0"
         style="font-size:16px;text-anchor:middle;fill:#ea5480;fill-opacity:1;stroke:#000000;stroke-linecap:round;stroke-linejoin:round;font-family:sans-serif" />
      <path
         id="path4368"
         d="m -99.9006,-89 a 30.6186,17.6777 0 0 0 61.2372,0 v 17 a 30.6186,17.6777 0 0 1 -61.2372,0 z"
         inkscape:connector-curvature="0"
         style="font-size:16px;text-anchor:middle;fill:url(#linearGradient4415);stroke:#000000;stroke-linecap:round;stroke-linejoin:round;font-family:sans-serif" />
      <ellipse
         transform="translate(0,-32)"
         d="m 36.618601,3 c 0,9.763124 -13.708415,17.6777 -30.618601,17.6777 -16.910186,0 -30.618601,-7.914576 -30.618601,-17.6777 0,-9.7631241 13.708415,-17.6777 30.618601,-17.6777 16.910186,0 30.618601,7.9145759 30.618601,17.6777 z"
         id="ellipse4385"
         ry="17.6777"
         rx="30.618601"
         cy="3"
         cx="6"
         sodipodi:cx="6"
         sodipodi:cy="3"
         sodipodi:rx="30.618601"
         sodipodi:ry="17.6777"
         style="font-size:16px;text-anchor:middle;fill:#000000;fill-opacity:0.25;stroke:none;font-family:sans-serif" />
      <path
         id="path4387"
         d="m -30.6186,-49 a 30.6186,17.6777 0 1 1 61.2372,0 v 17 a 30.6186,17.6777 0 0 1 -61.2372,0 z"
         inkscape:connector-curvature="0"
         style="font-size:16px;text-anchor:middle;fill:#ea5480;fill-opacity:1;stroke:#000000;stroke-linecap:round;stroke-linejoin:round;font-family:sans-serif" />
      <path
         id="path4389"
         d="m -30.6186,-49 a 30.6186,17.6777 0 0 0 61.2372,0 v 17 a 30.6186,17.6777 0 0 1 -61.2372,0 z"
         inkscape:connector-curvature="0"
         style="font-size:16px;text-anchor:middle;fill:url(#linearGradient4417);stroke:#000000;stroke-linecap:round;stroke-linejoin:round;font-family:sans-serif" />
    </g>
  </g>
</svg>
